<?xml version="1.0" standalone="no"?>
<!DOCTYPE svg PUBLIC "-//W3C//DTD SVG 1.1//EN" "http://www.w3.org/Graphics/SVG/1.1/DTD/svg11.dtd" >
<svg xmlns="http://www.w3.org/2000/svg" xmlns:xlink="http://www.w3.org/1999/xlink" version="1.1" viewBox="-10 0 1034 1024">
   <path fill="currentColor"
d="M635 339q6 6 11 13h250q19 0 33.5 14t14.5 34t-14.5 34t-33.5 14h-211l37 330l23 193v5q0 20 -14 34t-34 14q-18 0 -32 -12.5t-16 -29.5l-4 -37.5t-9 -75.5l-4 -38h-240l-17 151q-2 17 -16 29.5t-32 12.5q-19 0 -33.5 -14.5t-14.5 -33.5v-5l23 -193l37 -330h-211
q-19 0 -33.5 -14t-14.5 -34t14.5 -34t33.5 -14h250q5 -7 11 -13q-70 -57 -70 -148q0 -79 56.5 -135t136 -56t135.5 56t56 135v3q0 89 -68 145zM589 452q-3 -29 -25 -48.5t-52 -19.5t-52 20t-25 48l-7.5 71t-15.5 142l-9 71h218zM608 191.5q0 -39.5 -28 -67.5t-68 -28t-68 28
t-28 67.5t28 68t68 28.5t68 -28.5t28 -68z" />
</svg>
