<?xml version="1.0" standalone="no"?>
<!DOCTYPE svg PUBLIC "-//W3C//DTD SVG 1.1//EN" "http://www.w3.org/Graphics/SVG/1.1/DTD/svg11.dtd" >
<svg xmlns="http://www.w3.org/2000/svg" xmlns:xlink="http://www.w3.org/1999/xlink" version="1.1" viewBox="-10 0 1044 1024">
   <path fill="currentColor"
d="M512 0q139 0 257 68.5t186.5 186.5t68.5 257t-68.5 257t-186.5 186.5t-257 68.5t-257 -68.5t-186.5 -186.5t-68.5 -257t68.5 -257t186.5 -186.5t257 -68.5zM640 256q0 -53 -37.5 -90.5t-90.5 -37.5t-90.5 37.5t-37.5 90.5q0 36 18.5 66t49.5 46q-11 6 -21 16h-191
q-19 0 -33 13.5t-14 33.5t13.5 34.5t33.5 14.5h151l-39 363v7q0 20 14 34t33 14t33 -13t15 -32l4.5 -37.5t8.5 -74.5l4 -37h96l17 149q2 18 15 30.5t32 12.5q20 0 34 -14.5t14 -33.5v-5l-39 -363h151q19 0 33 -14.5t14 -34.5t-13.5 -33.5t-33.5 -13.5h-191q-9 -9 -21 -16
q31 -16 49.5 -46t18.5 -66z" />
</svg>
