<?xml version="1.0" standalone="no"?>
<!DOCTYPE svg PUBLIC "-//W3C//DTD SVG 1.1//EN" "http://www.w3.org/Graphics/SVG/1.1/DTD/svg11.dtd" >
<svg xmlns="http://www.w3.org/2000/svg" xmlns:xlink="http://www.w3.org/1999/xlink" version="1.1" viewBox="-10 0 1034 1024">
   <path fill="currentColor"
d="M414 66q20 -38 59 -52q19 -7 39 -7l39 7q39 14 59 52l390 729q12 25 13 53q0 46 -33 78.5t-79 33.5h-778q-46 -1 -79 -33.5t-33 -78.5q0 -28 13 -53l97 -182t195 -364zM526 112q-5 -9 -14 -9t-14 9l-389 729q-2 3 -3 7q0 7 5 11.5t12 4.5h778q7 0 12 -4.5t5 -11.5
q0 -4 -3 -7l-97 -182.5t-194 -364.5zM560 367v161q0 19 -14.5 33t-33.5 14t-33.5 -13.5t-14.5 -33.5v-161q0 -19 14.5 -33.5t33.5 -14.5t33.5 14.5t14.5 33.5zM575 704q0 26 -18 45t-45 19t-45 -19t-18 -45t18 -45t45 -19t45 19t18 45z" />
</svg>
