<?xml version="1.0" standalone="no"?>
<!DOCTYPE svg PUBLIC "-//W3C//DTD SVG 1.1//EN" "http://www.w3.org/Graphics/SVG/1.1/DTD/svg11.dtd" >
<svg xmlns="http://www.w3.org/2000/svg" xmlns:xlink="http://www.w3.org/1999/xlink" version="1.1" viewBox="-10 0 1034 1024">
   <path fill="currentColor"
d="M96 208q0 -46 33 -79t79 -33h160q47 0 79.5 33t32.5 79v159q0 47 -32.5 80t-79.5 33h-160q-46 0 -79 -32.5t-33 -80.5v-159zM544 208q0 -46 32.5 -79t79.5 -33h160q46 0 79 33t33 79v159q0 47 -33 80t-79 33h-160q-47 0 -79.5 -32.5t-32.5 -80.5v-159zM96 656
q0 -47 33 -79.5t79 -32.5h160q47 0 79.5 32.5t32.5 79.5v160q0 46 -32.5 79t-79.5 33h-160q-46 0 -79 -33t-33 -79v-160zM544 656q0 -47 32.5 -79.5t79.5 -32.5h160q46 0 79 32.5t33 79.5v160q0 46 -33 79t-79 33h-160q-47 0 -79.5 -33t-32.5 -79v-160zM208 192
q-6 0 -10.5 5t-4.5 11v159q0 7 4.5 12t10.5 5h160q7 0 11.5 -4.5t4.5 -12.5v-159q0 -6 -4.5 -11t-11.5 -5h-160zM656 192q-7 0 -11.5 5t-4.5 11v159q0 7 4.5 12t11.5 5h160q6 0 10.5 -4.5t4.5 -12.5v-159q0 -6 -4.5 -11t-10.5 -5h-160zM208 640q-6 0 -10.5 4.5t-4.5 11.5
v160q0 6 4.5 10.5t10.5 4.5h160q7 0 11.5 -4.5t4.5 -10.5v-160q0 -7 -4.5 -11.5t-11.5 -4.5h-160zM656 640q-7 0 -11.5 4.5t-4.5 11.5v160q0 6 4.5 10.5t11.5 4.5h160q6 0 10.5 -4.5t4.5 -10.5v-160q0 -7 -4.5 -11.5t-10.5 -4.5h-160z" />
</svg>
