<?xml version="1.0" standalone="no"?>
<!DOCTYPE svg PUBLIC "-//W3C//DTD SVG 1.1//EN" "http://www.w3.org/Graphics/SVG/1.1/DTD/svg11.dtd" >
<svg xmlns="http://www.w3.org/2000/svg" xmlns:xlink="http://www.w3.org/1999/xlink" version="1.1" viewBox="-10 0 1034 1024">
   <path fill="currentColor"
d="M526 190q14 -14 34 -14t34 14l68 67.5t136 136.5l68 68q13 14 14 34v1q0 19 -14 33l-272 272q-14 13 -33 13t-33.5 -14.5t-14.5 -33.5t13 -33l48 -47.5t95 -94.5l47 -48h-476q-19 0 -33 -14t-14 -34t13.5 -34t33.5 -14h476l-190 -190q-14 -14 -14 -34t14 -34z" />
</svg>
