<?xml version="1.0" standalone="no"?>
<!DOCTYPE svg PUBLIC "-//W3C//DTD SVG 1.1//EN" "http://www.w3.org/Graphics/SVG/1.1/DTD/svg11.dtd" >
<svg xmlns="http://www.w3.org/2000/svg" xmlns:xlink="http://www.w3.org/1999/xlink" version="1.1" viewBox="-10 0 1034 1024">
   <path fill="currentColor"
d="M498 801.5q-14 14.5 -34 14.5t-34 -14l-68 -68.5t-136 -135.5l-68 -68q-13 -14 -14 -34v-1q0 -19 14 -33l272 -272q14 -13 33 -13t33.5 14t14.5 34q0 18 -13 33l-48 47.5t-95 94.5l-47 48h476q19 0 33 14t14 34t-13.5 34t-33.5 14h-476l190 190q14 14 14 33.5t-14 34z
" />
</svg>
