<?xml version="1.0" standalone="no"?>
<!DOCTYPE svg PUBLIC "-//W3C//DTD SVG 1.1//EN" "http://www.w3.org/Graphics/SVG/1.1/DTD/svg11.dtd" >
<svg xmlns="http://www.w3.org/2000/svg" xmlns:xlink="http://www.w3.org/1999/xlink" version="1.1" viewBox="-10 0 1044 1024">
   <path fill="currentColor"
d="M238 237q14 -12 32 -12q20 0 34 14t14 34q0 18 -12 33l-36 35.5t-70 70.5l-36 36h696l-142 -142q-12 -14 -12 -33q0 -20 13.5 -34t34.5 -14q18 0 32 12v0q0 1 56 57l112 112l56 56q14 14 14 34t-14 34l-224 223q-14 15 -35 16q-16 0 -29 -10.5t-17 -25.5q-2 -6 -3 -12
q0 -20 16 -35l142 -142h-696l142 142q15 14 16 35q0 17 -10.5 30t-26.5 17q-5 1 -12 1q-22 0 -35 -16l-224 -223q-14 -14 -14 -34t14 -34z" />
</svg>
