<?xml version="1.0" standalone="no"?>
<!DOCTYPE svg PUBLIC "-//W3C//DTD SVG 1.1//EN" "http://www.w3.org/Graphics/SVG/1.1/DTD/svg11.dtd" >
<svg xmlns="http://www.w3.org/2000/svg" xmlns:xlink="http://www.w3.org/1999/xlink" version="1.1" viewBox="-10 0 1034 1024">
   <path fill="currentColor"
d="M334 946l-192 -193q-14 -13 -14 -33t14 -34l192 -193q14 -12 33 -12q20 0 34 14t14 34q0 18 -14 33l-109 110h556q20 0 34 14t14 34t-14 34t-34 14h-556l109 110q13 13 14 32q0 20 -14 34t-34 14q-19 0 -33 -12zM690 530q-14 14 -36 15q-19 0 -33 -14t-14 -34
q0 -22 16 -35l109 -110h-556q-20 0 -34 -14.5t-14 -34.5t14 -33.5t34 -13.5h556l-109 -111q-13 -13 -14 -32q0 -20 14 -34t34 -14q18 0 33 13l192 192q14 13 14 33t-14 35z" />
</svg>
