<?xml version="1.0" standalone="no"?>
<!DOCTYPE svg PUBLIC "-//W3C//DTD SVG 1.1//EN" "http://www.w3.org/Graphics/SVG/1.1/DTD/svg11.dtd" >
<svg xmlns="http://www.w3.org/2000/svg" xmlns:xlink="http://www.w3.org/1999/xlink" version="1.1" viewBox="-10 0 1034 1024">
   <path fill="currentColor"
d="M222 498q-14 -14 -14 -34t14 -34l272 -273q14 -13 34 -13t34 13l68 68.5t136 136.5l68 68q13 14 13 33t-14 33.5t-34 14.5q-18 0 -33 -14l-47.5 -47.5l-94.5 -94.5l-49 -47v476q0 19 -13.5 33t-33.5 14t-34 -13.5t-14 -33.5v-476l-190 189q-14 14 -34 14q0 1 -1 1
q-19 0 -33 -14z" />
</svg>
