<?xml version="1.0" standalone="no"?>
<!DOCTYPE svg PUBLIC "-//W3C//DTD SVG 1.1//EN" "http://www.w3.org/Graphics/SVG/1.1/DTD/svg11.dtd" >
<svg xmlns="http://www.w3.org/2000/svg" xmlns:xlink="http://www.w3.org/1999/xlink" version="1.1" viewBox="-10 0 1034 1024">
   <path fill="currentColor"
d="M319 369v-209h-15q-20 0 -34 -14t-14 -34t14 -34.5t34 -14.5h416q20 0 34 14.5t14 34.5t-14 34t-34 14h-15v209l234 369q22 34 22 75l1 7q0 37 -18 66q-18 32 -52 53t-75 21h-610q-41 0 -75 -21.5t-52 -52.5q-17 -31 -18 -70q1 -1 1 -3q0 -41 22 -75zM166 790
q-7 11 -7 26q0 19 14 33.5t34 14.5h610q19 0 33.5 -14.5t14.5 -33.5q0 -14 -7 -26l-19 -29.5t-38 -59.5l-19 -29h-540zM608 160h-192v224q0 14 -7 25l-106 166h418l-106 -166q-7 -11 -7 -25v-56v-112v-56z" />
</svg>
