<?xml version="1.0" standalone="no"?>
<!DOCTYPE svg PUBLIC "-//W3C//DTD SVG 1.1//EN" "http://www.w3.org/Graphics/SVG/1.1/DTD/svg11.dtd" >
<svg xmlns="http://www.w3.org/2000/svg" xmlns:xlink="http://www.w3.org/1999/xlink" version="1.1" viewBox="-10 0 1034 1024">
   <path fill="currentColor"
d="M512 1024q-44 0 -78 -26.5t-44 -69.5q-1 -5 -1 -10q0 -8 4 -13q8 -9 23 -9h192q14 0 23 9q5 6 4 13q0 4 -1 10q-10 43 -44 69.5t-78 26.5zM193 319q0 -134 92.5 -226.5t226.5 -92.5t226.5 92.5t92.5 226.5v193l110 166q19 19 20 51q0 39 -29.5 67.5t-67.5 28.5h-704
q-6 1 -12 1q-32 0 -56 -23q-29 -28 -29 -67q0 -32 20 -51l110 -167v-199z" />
</svg>
