<?xml version="1.0" standalone="no"?>
<!DOCTYPE svg PUBLIC "-//W3C//DTD SVG 1.1//EN" "http://www.w3.org/Graphics/SVG/1.1/DTD/svg11.dtd" >
<svg xmlns="http://www.w3.org/2000/svg" xmlns:xlink="http://www.w3.org/1999/xlink" version="1.1" viewBox="-11 0 1046 1024">
   <path fill="currentColor"
d="M267 275l1 1l647 468l1 1l89 64q20 14 20 40q0 19 -14 33.5t-34 14.5q-16 0 -29 -10l-19 -14t-38 -27l-19 -15h-711q-40 0 -69 -28t-29 -68q0 -30 17 -54l27.5 -41t54.5 -82l27 -41l4 -8q-1 0 -1.5 -42.5t-0.5 -84.5l2 -42l-174 -125q-20 -14 -20 -40q0 -19 14 -33.5
t34 -14.5q16 0 29 10l48 35t96 69zM739 736l-451 -328v101q0 34 -19 61l-109 164v0.5t1 0.5v1h578zM512 96q-96 0 -162 70q-14 14 -35 14q-20 0 -34 -14t-14 -34q0 -19 14 -33q44 -47 103.5 -73t127.5 -26q132 0 225.5 93.5t93.5 225.5v38.5v76.5v38q0 19 -13.5 33.5
t-33.5 14.5t-34 -14.5t-14 -33.5v-153q0 -92 -65.5 -157.5t-158.5 -65.5zM512 1024q-49 0 -85 -32.5t-42 -79.5q-1 -7 3.5 -11.5t11.5 -4.5h224q7 0 11.5 4.5t3.5 11.5q-6 47 -42 79.5t-85 32.5z" />
</svg>
