<?xml version="1.0" standalone="no"?>
<!DOCTYPE svg PUBLIC "-//W3C//DTD SVG 1.1//EN" "http://www.w3.org/Graphics/SVG/1.1/DTD/svg11.dtd" >
<svg xmlns="http://www.w3.org/2000/svg" xmlns:xlink="http://www.w3.org/1999/xlink" version="1.1" viewBox="-10 0 1034 1024">
   <path fill="currentColor"
d="M256 128h288q93 0 158.5 65.5t65.5 158.5q0 72 -41 130q48 30 77 80.5t29 109.5q0 93 -66 158.5t-159 65.5h-88h-176h-88q-27 0 -45 -19t-18 -46v-639q0 -27 18 -45.5t45 -18.5zM319 575v193h289q40 0 68.5 -28.5t28.5 -68t-28.5 -68t-68.5 -28.5h-289zM544 448
q40 0 68 -28t28 -68t-28 -68t-68 -28h-225v192h225z" />
</svg>
