<?xml version="1.0" standalone="no"?>
<!DOCTYPE svg PUBLIC "-//W3C//DTD SVG 1.1//EN" "http://www.w3.org/Graphics/SVG/1.1/DTD/svg11.dtd" >
<svg xmlns="http://www.w3.org/2000/svg" xmlns:xlink="http://www.w3.org/1999/xlink" version="1.1" viewBox="-11 0 1046 1024">
   <path fill="currentColor"
d="M76 73l191 139l1 1l544 393h1l192 139q20 14 20 39q0 20 -14 34t-34 14q-16 0 -29 -9l-29 -21l-58 -42l-30 -21v173q0 19 -13.5 33.5t-33.5 14.5q-16 0 -29 -10l-60.5 -46.5t-122.5 -92.5l-60 -47l-243 186q-13 10 -29 10q-19 0 -33 -14t-14 -34v-637l-174 -125
q-20 -14 -20 -39q0 -20 14 -34t34 -14q17 1 29 10zM288 345v470l195 -150q12 -9 28.5 -9t29.5 9l49 37.5t97 74.5l49 38v-146zM376 63h344q46 0 78.5 33.5t32.5 79.5v231q0 20 -13.5 34t-33.5 14t-34 -13.5t-14 -34.5v-231q0 -7 -4.5 -11.5t-11.5 -4.5h-344q-20 0 -34 -14
t-14 -34t14 -34.5t34 -14.5z" />
</svg>
