<?xml version="1.0" standalone="no"?>
<!DOCTYPE svg PUBLIC "-//W3C//DTD SVG 1.1//EN" "http://www.w3.org/Graphics/SVG/1.1/DTD/svg11.dtd" >
<svg xmlns="http://www.w3.org/2000/svg" xmlns:xlink="http://www.w3.org/1999/xlink" version="1.1" viewBox="-10 0 1044 1024">
   <path fill="currentColor"
d="M432 0h160q46 0 79.5 32.5t33.5 78.5v81h207q46 0 79 33t33 79v544q0 46 -33 79t-79 33h-800q-46 0 -79 -33t-33 -79v-544q0 -46 33 -79t79 -33h207v-81q0 -46 33.5 -78.5t79.5 -32.5zM224 608h-1q-70 0 -127 -40v280q0 7 4.5 11.5t11.5 4.5h800q6 0 11 -4.5t5 -11.5
v-280q-57 40 -127 40h-1h-144h-288h-144zM112 288q-6 0 -11 4.5t-5 11.5v80q0 53 37.5 90.5t90.5 37.5h576q53 0 90.5 -37.5t37.5 -90.5v-80q0 -7 -4.5 -11.5t-11.5 -4.5h-800zM608 192v-81q0 -6 -4.5 -10.5t-11.5 -4.5h-160q-7 0 -11.5 4.5t-4.5 10.5v81h192z" />
</svg>
