<?xml version="1.0" standalone="no"?>
<!DOCTYPE svg PUBLIC "-//W3C//DTD SVG 1.1//EN" "http://www.w3.org/Graphics/SVG/1.1/DTD/svg11.dtd" >
<svg xmlns="http://www.w3.org/2000/svg" xmlns:xlink="http://www.w3.org/1999/xlink" version="1.1" viewBox="-10 0 1044 1024">
   <path fill="currentColor"
d="M560 549v363q0 19 -14.5 33.5t-33.5 14.5t-33.5 -14t-14.5 -34v-363q-29 -13 -46.5 -40.5t-17.5 -61.5q0 -46 33 -78.5t79 -32.5t79 32.5t33 78.5q0 34 -17.5 61.5t-46.5 40.5zM815 93q13 -13 33 -13t35 15q67 70 104 161t37 191v1q0 100 -37.5 191.5t-103.5 161.5
q-14 16 -36 16q-19 0 -33.5 -14.5t-14.5 -34.5t14 -33q54 -57 84.5 -131t30.5 -156v-1q0 -82 -30.5 -155.5t-84.5 -130.5q-13 -13 -13 -33q0 -21 15 -35zM209 93q14 13 14 34q0 1 1 1q0 19 -13 33q-54 57 -84.5 130.5t-30.5 155.5v1q0 82 30.5 156t84.5 131q12 13 12 32
q0 20 -14 34t-33.5 14t-34.5 -14q-67 -70 -104 -160.5t-37 -192t37.5 -192.5t103.5 -161q14 -15 35 -15q20 0 33 13zM757 241q74 88 74 203v3v1q0 117 -74 206q-14 18 -38 19q-19 0 -33.5 -14.5t-14.5 -34.5q0 -18 12 -32q53 -61 53 -143.5t-53 -144.5q-10 -13 -10 -31
q0 -19 14 -33.5t34 -14.5q22 0 36 16zM341 303q-53 62 -53 144v1q0 82 53 144q10 13 10 30q0 19 -14 34t-34 15q-22 0 -36 -17q-74 -88 -74 -203v-3v-1q0 -118 75 -207q14 -16 36 -16q20 0 34 14t14 34q0 18 -11 31z" />
</svg>
