<?xml version="1.0" standalone="no"?>
<!DOCTYPE svg PUBLIC "-//W3C//DTD SVG 1.1//EN" "http://www.w3.org/Graphics/SVG/1.1/DTD/svg11.dtd" >
<svg xmlns="http://www.w3.org/2000/svg" xmlns:xlink="http://www.w3.org/1999/xlink" version="1.1" viewBox="-10 0 1044 1024">
   <path fill="currentColor"
d="M0 176q0 -46 33 -79.5t79 -33.5h800q46 0 79 33.5t33 79.5v672q0 46 -33 79t-79 33h-800q-46 0 -79 -33t-33 -79v-672zM928 384h-832v464q0 7 4.5 11.5t11.5 4.5h800q6 0 11 -4.5t5 -11.5v-464zM544 160v128h384v-112q0 -7 -4.5 -11.5t-11.5 -4.5h-368zM319 160v128h130
v-128h-130zM112 160q-6 0 -11 4.5t-5 11.5v112h128v-128h-112z" />
</svg>
