<?xml version="1.0" standalone="no"?>
<!DOCTYPE svg PUBLIC "-//W3C//DTD SVG 1.1//EN" "http://www.w3.org/Graphics/SVG/1.1/DTD/svg11.dtd" >
<svg xmlns="http://www.w3.org/2000/svg" xmlns:xlink="http://www.w3.org/1999/xlink" version="1.1" viewBox="-10 0 1044 1024">
   <path fill="currentColor"
d="M395 319h234q5 0 8 -3t3 -7v-21q0 -52 -37.5 -90t-90.5 -38t-90.5 37.5t-37.5 90.5v21q0 4 3 7t8 3zM336 416q-19 0 -33.5 14t-14.5 34v240q0 92 65.5 158t158.5 66t158.5 -66t65.5 -158v-240q0 -19 -14 -33.5t-34 -14.5h-352zM302 13.5q14 -13.5 34 -13.5t34 14l15 17
q16 15 33 31l16 16q37 -14 78 -15h3q39 0 75 15l16 -17l32 -32l16 -15q14 -15 35 -15q16 0 29 10t17 26q1 6 1 12q0 20 -14 35l-49 49q63 66 63 157v21q0 9 -2 18q40 13 67 47l125 -51q8 -3 16 -3q20 0 34 14.5t14 33.5q0 32 -28 44l-131 53v110h145q20 0 34 14.5t14 34.5
t-14 34t-34 14h-145v32q0 38 -8 76l139 55q28 12 28 42v2q0 19 -13.5 34t-33.5 15q-9 0 -17 -4l-35 -13q-35 -14 -70 -29l-35 -14q-43 72 -115.5 114t-158.5 42t-158.5 -42t-115.5 -114l-140 56q-8 3 -17 4q-19 0 -33.5 -14.5t-14.5 -34.5q0 -32 29 -44l139 -55
q-8 -38 -8 -76v-32h-145q-20 0 -34 -14t-14 -34t14 -34.5t34 -14.5h145v-110l-131 -53q-29 -12 -29 -42v-2q0 -20 14 -34t34 -14q9 0 17 3l31 13q32 12 64 25l30 13q27 -33 67 -47q-2 -9 -2 -18v-21q0 -91 63 -157l-49 -49q-14 -14 -14 -34.5t14 -34z" />
</svg>
