<?xml version="1.0" standalone="no"?>
<!DOCTYPE svg PUBLIC "-//W3C//DTD SVG 1.1//EN" "http://www.w3.org/Graphics/SVG/1.1/DTD/svg11.dtd" >
<svg xmlns="http://www.w3.org/2000/svg" xmlns:xlink="http://www.w3.org/1999/xlink" version="1.1" viewBox="-10 0 1036 1024">
   <path fill="currentColor"
d="M928 485l-49 219h113q9 0 16.5 7t7.5 17q0 8 -5 14l-200 264q-7 9 -19 10q-9 0 -16.5 -7.5t-7.5 -16.5v-5l40 -187h-136q-9 0 -16.5 -7.5t-7.5 -16.5q0 -8 5 -15l232 -296q7 -9 19 -10q9 0 16.5 7.5t7.5 17.5v5zM160 224q0 16 18 35q24 25 71 45q108 48 263.5 48
t262.5 -48q47 -20 71 -45q18 -18 18 -34.5t-18 -36.5q-24 -25 -71 -45q-108 -47 -263.5 -47t-262.5 47q-47 20 -71 45q-18 20 -18 36zM160 366v146q0 14 17.5 34t56.5 40q92 46 233 53q18 1 31.5 14.5t13.5 33.5q0 19 -14.5 33.5t-33.5 14.5q-1 0 -2 -1q-160 -8 -269 -62
q-16 -7 -33 -18v146q0 16 18 35q24 25 71 45q108 47 263 48q39 0 76 -4h7q19 0 33.5 14t14.5 34q0 19 -14 33.5t-33 14.5q-41 4 -84 4q-176 0 -302 -55q-65 -29 -101 -67q-45 -47 -46 -102v-576q0 -55 46 -102q38 -38 101 -67q126 -55 302 -55t302 55q65 29 101 67
q45 47 45 102v1h1q0 54 -46 100q-38 39 -101 67q-126 56 -302 56t-302 -56q-25 -12 -50 -26z" />
</svg>
