<?xml version="1.0" standalone="no"?>
<!DOCTYPE svg PUBLIC "-//W3C//DTD SVG 1.1//EN" "http://www.w3.org/Graphics/SVG/1.1/DTD/svg11.dtd" >
<svg xmlns="http://www.w3.org/2000/svg" xmlns:xlink="http://www.w3.org/1999/xlink" version="1.1" viewBox="-10 0 1044 1024">
   <path fill="currentColor"
d="M160 111v737q0 7 4.5 11.5t11.5 4.5h203q19 0 33.5 14t14.5 34t-14.5 34t-33.5 14h-203q-46 0 -79.5 -33t-33.5 -79v-737q0 -46 33.5 -78.5t79.5 -32.5h544q46 0 78.5 32.5t32.5 78.5v496q0 19 -13.5 33.5t-33.5 14.5t-34 -14.5t-14 -33.5v-496q0 -6 -4.5 -10.5
t-11.5 -4.5h-544q-7 0 -11.5 4.5t-4.5 10.5zM1010 722l-292 285q-14 13 -34 14q-19 0 -34 -15l-31 -31l-62 -62l-31 -32q-13 -13 -13 -32t14.5 -33.5t33.5 -14.5t33 13l91 91l257 -252q14 -13 34 -13t34 13.5t14 34.5t-14 34zM304 256h288q20 0 34 13.5t14 33.5t-14 34.5
t-34 14.5h-288q-20 0 -34 -14.5t-14 -34.5t14 -33.5t34 -13.5zM256 496q0 -20 14 -34t34 -14h128q19 0 33.5 14t14.5 34t-14 34t-34 14h-128q-20 0 -34 -14t-14 -34z" />
</svg>
