<?xml version="1.0" standalone="no"?>
<!DOCTYPE svg PUBLIC "-//W3C//DTD SVG 1.1//EN" "http://www.w3.org/Graphics/SVG/1.1/DTD/svg11.dtd" >
<svg xmlns="http://www.w3.org/2000/svg" xmlns:xlink="http://www.w3.org/1999/xlink" version="1.1" viewBox="-10 0 1034 1024">
   <path fill="currentColor"
d="M176 63h672q46 0 79.5 33.5t33.5 79.5v672q0 46 -33.5 79t-79.5 33h-672q-46 0 -79.5 -33t-33.5 -79v-672q0 -46 33.5 -79.5t79.5 -33.5zM160 176v672q0 7 4.5 11.5t11.5 4.5h672q7 0 11.5 -4.5t4.5 -11.5v-672q0 -7 -4.5 -11.5t-11.5 -4.5h-672q-7 0 -11.5 4.5
t-4.5 11.5zM754 401l-288 289q-14 13 -34 13t-34 -13l-32 -32.5t-64 -63.5l-32 -32q-13 -14 -13 -33q0 -20 14.5 -34t33.5 -14q18 0 33 12l23.5 23.5l47.5 47.5l23 24l254 -254q14 -12 33 -13q19 0 33.5 14t14.5 34q0 19 -13 32z" />
</svg>
