<?xml version="1.0" standalone="no"?>
<!DOCTYPE svg PUBLIC "-//W3C//DTD SVG 1.1//EN" "http://www.w3.org/Graphics/SVG/1.1/DTD/svg11.dtd" >
<svg xmlns="http://www.w3.org/2000/svg" xmlns:xlink="http://www.w3.org/1999/xlink" version="1.1" viewBox="-10 0 1044 1024">
   <path fill="currentColor"
d="M0 512q0 -139 68.5 -257t186.5 -186.5t257 -68.5t257 68.5t186.5 186.5t68.5 257t-68.5 257t-186.5 186.5t-257 68.5t-257 -68.5t-186.5 -186.5t-68.5 -257zM96 511.5q0 112.5 56 208.5t151.5 152t208.5 56t208.5 -56t151.5 -152t56 -208.5t-56 -208t-151.5 -151.5
t-208.5 -56t-208.5 56t-151.5 151.5t-56 208zM754 401l-288 289q-14 13 -34 13t-34 -13l-32 -32.5t-64 -63.5l-32 -32q-13 -14 -13 -33q0 -20 14.5 -34t33.5 -14q18 0 33 12l23.5 23.5l47.5 47.5l23 24l254 -254q14 -12 33 -13q19 0 33.5 14t14.5 34q0 19 -13 32z" />
</svg>
