<?xml version="1.0" standalone="no"?>
<!DOCTYPE svg PUBLIC "-//W3C//DTD SVG 1.1//EN" "http://www.w3.org/Graphics/SVG/1.1/DTD/svg11.dtd" >
<svg xmlns="http://www.w3.org/2000/svg" xmlns:xlink="http://www.w3.org/1999/xlink" version="1.1" viewBox="-10 0 1044 1024">
   <path fill="currentColor"
d="M512 1024q-139 0 -257 -68.5t-186.5 -186.5t-68.5 -257t68.5 -257t186.5 -186.5t257 -68.5t257 68.5t186.5 186.5t68.5 257t-68.5 257t-186.5 186.5t-257 68.5zM754 401q13 -13 13 -32q0 -20 -14.5 -34t-33.5 -14q-18 0 -33 13l-63.5 63.5l-126.5 126.5l-64 64l-94 -95
q-14 -12 -33 -12t-33.5 14t-14.5 34q0 18 13 33l32 31.5t64 63.5l32 33q13 13 33.5 13t34.5 -13l72 -72l144 -144z" />
</svg>
