<?xml version="1.0" standalone="no"?>
<!DOCTYPE svg PUBLIC "-//W3C//DTD SVG 1.1//EN" "http://www.w3.org/Graphics/SVG/1.1/DTD/svg11.dtd" >
<svg xmlns="http://www.w3.org/2000/svg" xmlns:xlink="http://www.w3.org/1999/xlink" version="1.1" viewBox="-10 0 1044 1024">
   <path fill="currentColor"
d="M0 512q0 -139 68.5 -257t186.5 -186.5t257 -68.5t257 68.5t186.5 186.5t68.5 257t-68.5 257t-186.5 186.5t-257 68.5t-257 -68.5t-186.5 -186.5t-68.5 -257zM549 304q0 -22 -15.5 -37.5t-37.5 -15.5t-37.5 15.5t-15.5 37.5v224q0 15 9.5 29t23.5 20l161 64q8 3 18 3
q22 0 37.5 -15.5t15.5 -36.5q0 -16 -9 -29.5t-23 -19.5l-127 -51v-188z" />
</svg>
