<?xml version="1.0" standalone="no"?>
<!DOCTYPE svg PUBLIC "-//W3C//DTD SVG 1.1//EN" "http://www.w3.org/Graphics/SVG/1.1/DTD/svg11.dtd" >
<svg xmlns="http://www.w3.org/2000/svg" xmlns:xlink="http://www.w3.org/1999/xlink" version="1.1" viewBox="-10 0 1044 1024">
   <path fill="currentColor"
d="M464 128h0.5h1.5q99 0 181 53t122 140q108 12 181.5 93.5t73.5 191.5v2v1q0 103 -66 182q-14 16 -35 17q-20 0 -34.5 -14t-14.5 -33q0 -17 11 -30q43 -53 43 -122v-1q0 -81 -56 -136.5t-136 -55.5q-15 0 -28 -9t-18 -23q-25 -71 -86 -115.5t-138 -44.5h-2q-47 0 -90 16
q-8 4 -18 5q-19 0 -33.5 -14.5t-14.5 -34.5q0 -15 9 -27.5t22 -17.5q59 -23 125 -23zM46 110q14 -14 34 -14t34 14l36.5 37t74.5 74l37 37l5 5l546 546l2 2l131 131q15 14 16 35q0 17 -10.5 30t-26.5 17q-5 1 -12 1q-22 0 -34 -16l-116 -114q-13 1 -27 1h-512h-2
q-92 0 -157 -65t-65 -157v-0.5v-1.5q0 -67 35 -121.5t93 -81.5v-7q0 -85 41 -161l-30.5 -31t-61.5 -61l-31 -31q-14 -14 -14 -34t14 -34zM224 464q0 15 2 30q1 4 1 8q0 16 -10 29t-27 17q-41 11 -67.5 44.5t-26.5 79.5q0 54 37 91t91 37h444l-426 -427q-17 44 -18 90v1z" />
</svg>
