<?xml version="1.0" standalone="no"?>
<!DOCTYPE svg PUBLIC "-//W3C//DTD SVG 1.1//EN" "http://www.w3.org/Graphics/SVG/1.1/DTD/svg11.dtd" >
<svg xmlns="http://www.w3.org/2000/svg" xmlns:xlink="http://www.w3.org/1999/xlink" version="1.1" viewBox="-10 0 1044 1024">
   <path fill="currentColor"
d="M112 63h800q46 0 79 33.5t33 79.5v544q0 46 -33 78.5t-79 32.5h-396l-165 165q-28 28 -66 28t-65 -27t-27 -66v-25v-49v-26h-81q-46 0 -79 -32.5t-33 -78.5v-544q0 -46 33 -79.5t79 -33.5zM96 176v544q0 7 4.5 11.5t11.5 4.5h128q20 0 34 14t14 34v139l174 -174
q14 -13 34 -13h103.5h208.5h104q6 0 11 -4.5t5 -11.5v-544q0 -7 -4.5 -11.5t-11.5 -4.5h-800q-6 0 -11 4.5t-5 11.5zM433.5 286q13.5 14 13.5 34t-13 34l-23.5 23.5t-46.5 47.5l-24 23l94 93q12 14 12 33q0 20 -13.5 34t-34.5 14q-18 0 -31 -12l-32.5 -32t-64.5 -64l-32 -32
q-13 -14 -14 -34v-1q0 -20 14 -34l32 -31.5t64 -63.5l33 -33q13 -13 33 -13t33.5 14zM590.5 286q13.5 -14 33.5 -14t33 13l32.5 32.5l64.5 64.5l32 31q13 14 14 34v2q0 19 -14 33l-32 32t-64 63l-33 33q-13 12 -31 12q-20 0 -34 -13.5t-14 -34.5q0 -18 12 -33l23.5 -23.5
l46.5 -46.5l24 -23l-94 -94q-13 -14 -13 -34t13.5 -34z" />
</svg>
