<?xml version="1.0" standalone="no"?>
<!DOCTYPE svg PUBLIC "-//W3C//DTD SVG 1.1//EN" "http://www.w3.org/Graphics/SVG/1.1/DTD/svg11.dtd" >
<svg xmlns="http://www.w3.org/2000/svg" xmlns:xlink="http://www.w3.org/1999/xlink" version="1.1" viewBox="-10 0 1045 1024">
   <path fill="currentColor"
d="M657 401q-13 14 -36.5 38t-72.5 73t-81.5 81l-32.5 32q-14 14 -34 14l-1 1q-19 0 -32 -15q-6 -6 -16.5 -15.5t-31.5 -30.5t-35 -36q-13 -13 -14 -13v0q-13 -14 -13 -33q0 -20 14.5 -34t33.5 -14q18 0 33 13l62 62q5 -5 14.5 -14t34.5 -34.5t46.5 -47.5t44.5 -44.5
t36.5 -36l13.5 -13.5q14 -15 36 -16q19 0 33 14.5t14 33.5q-1 22 -16 35zM480 960q-98 0 -186.5 -38t-153 -102t-102.5 -153.5t-38 -187t38 -186t102.5 -153t153 -102.5t186.5 -38t187 38t153 102.5t102.5 153t38.5 186.5q0 171 -109 303l39.5 40t79.5 79l39 40q15 14 15 35
q0 17 -10 30t-26 17q-6 1 -12 1q-20 0 -35 -16l-159 -157q-131 107 -299 107h-3l-0.5 0.5zM480 96q-104 0 -192.5 51t-140 140t-51.5 193.5t51.5 192.5t140 139.5t192.5 51.5q152 0 262 -103q6 -12 19 -19q103 -111 103 -262q0 -80 -31 -154q-45 -103 -140.5 -166.5
t-212.5 -63.5z" />
</svg>
