<?xml version="1.0" standalone="no"?>
<!DOCTYPE svg PUBLIC "-//W3C//DTD SVG 1.1//EN" "http://www.w3.org/Graphics/SVG/1.1/DTD/svg11.dtd" >
<svg xmlns="http://www.w3.org/2000/svg" xmlns:xlink="http://www.w3.org/1999/xlink" version="1.1" viewBox="-10 0 1044 1024">
   <path fill="currentColor"
d="M0 720q0 -46 33 -79t79 -33h800q46 0 79 33t33 79v192q0 46 -33 79t-79 33h-800q-46 0 -79 -33t-33 -79v-192zM128 111q0 -46 33 -78.5t79 -32.5h544q46 0 79 32.5t33 78.5v321q0 46 -33 79t-79 33h-544q-46 0 -79 -33t-33 -79v-321zM240 96q-6 0 -11 4.5t-5 10.5v321
q0 6 4.5 11t11.5 5h544q6 0 11 -5t5 -11v-321q0 -6 -4.5 -10.5t-11.5 -4.5h-544zM112 704q-6 0 -11 5t-5 11v192q0 6 4.5 11t11.5 5h800q6 0 11 -5t5 -11v-192q0 -6 -4.5 -11t-11.5 -5h-800zM449 815q0 -20 13.5 -33.5t33.5 -13.5h288q19 0 33 13.5t14 33.5t-13.5 34.5
t-33.5 14.5h-288q-19 0 -33 -14.5t-14 -34.5zM193 815q0 -20 13.5 -33.5t33.5 -13.5h32q19 0 33 13.5t14 33.5t-13.5 34.5t-33.5 14.5h-32q-19 0 -33 -14.5t-14 -34.5z" />
</svg>
