<?xml version="1.0" standalone="no"?>
<!DOCTYPE svg PUBLIC "-//W3C//DTD SVG 1.1//EN" "http://www.w3.org/Graphics/SVG/1.1/DTD/svg11.dtd" >
<svg xmlns="http://www.w3.org/2000/svg" xmlns:xlink="http://www.w3.org/1999/xlink" version="1.1" viewBox="-10 0 1044 1024">
   <path fill="currentColor"
d="M0 111q0 -46 33 -78.5t79 -32.5h800q46 0 79 32.5t33 78.5v801q0 46 -33 79t-79 33h-800q-46 0 -79 -33t-33 -79v-801zM112 96q-6 0 -11 4.5t-5 10.5v801q0 6 4.5 11t11.5 5h800q6 0 11 -5t5 -11v-801q0 -6 -4.5 -10.5t-11.5 -4.5h-800zM590.5 350q13.5 -14 33.5 -14
t33 14l32.5 31.5t64.5 64.5l32 32q13 14 14 33v2q0 19 -14 33l-32 32l-64 64l-33 32q-13 15 -34 15q-16 0 -29 -10.5t-17 -25.5q-2 -6 -3 -12q0 -20 16 -35l94 -94l-94 -94q-13 -14 -13 -34t13.5 -34zM434 418l-94 94l94 94q15 14 16 35q0 16 -10.5 29.5t-26.5 17.5
q-5 1 -12 1q-22 0 -34 -15l-129 -128q-13 -14 -14 -34v-1q0 -19 14 -33l32 -32.5t64 -63.5l33 -32q13 -13 31 -13q20 0 34 14t14 34t-12 33z" />
</svg>
