<?xml version="1.0" standalone="no"?>
<!DOCTYPE svg PUBLIC "-//W3C//DTD SVG 1.1//EN" "http://www.w3.org/Graphics/SVG/1.1/DTD/svg11.dtd" >
<svg xmlns="http://www.w3.org/2000/svg" xmlns:xlink="http://www.w3.org/1999/xlink" version="1.1" viewBox="-10 0 1044 1024">
   <path fill="currentColor"
d="M515 143q108 -79 213 -80h1q122 0 209 87q43 43 63 91q23 53 23 126q0 174 -198 376q-95 97 -271 228l-14 11q-12 9 -28.5 9t-29.5 -9l-3.5 -2.5t-6.5 -5.5l-4 -3q-176 -130 -271 -228q-197 -201 -198 -375v-9q0 -122 87 -209q57 -57 134 -76q36 -9 83 -11h7q33 0 68 8
q80 20 136 72zM441 207q-56 -47 -135 -47h-10q-83 0 -141 58q-58 59 -59 141v8q0 135 170 309q88 91 246 208q45 -34 76 -59l-84 -78q-16 -14 -17 -36q0 -19 14.5 -33.5t34.5 -14.5q19 0 32 14l23.5 22t48.5 43l24 22q34 -29 62 -57l-87 -79q-15 -14 -15 -36q0 -19 14 -33.5
t34 -14.5q19 0 33 13l22 20.5t44 40.5l23 21q29 -33 51 -64l-18 -18l-74 -75q-32 -32 -76 -32h-3q-45 0 -80 34t-51 50q-42 42 -100 42h-3q-58 0 -101 -44q-23 -22 -67 -66q-14 -14 -14 -34q0 -17 11 -31q10 -12 34 -40q87 -105 138 -154zM896 490q32 -66 32 -123
q0 -53 -15 -88q-13 -31 -43 -61q-58 -58 -141 -58h-1q-95 1 -207 102q-52 49 -142 158l-8 9l36 36q14 15 34 15q19 0 34 -13l13 -13l25 -25l13 -13q61 -61 146 -62h3h3h3h2h2h2h2q70 0 131 59l75 76z" />
</svg>
