<?xml version="1.0" standalone="no"?>
<!DOCTYPE svg PUBLIC "-//W3C//DTD SVG 1.1//EN" "http://www.w3.org/Graphics/SVG/1.1/DTD/svg11.dtd" >
<svg xmlns="http://www.w3.org/2000/svg" xmlns:xlink="http://www.w3.org/1999/xlink" version="1.1" viewBox="-10 0 1045 1024">
   <path fill="currentColor"
d="M542 318q14 -14 34 -14t34 14l21 21l41 41l47 47l19 19q13 13 14 33v2q0 19 -14 33l-128 128q-14 15 -36 15q-19 0 -33.5 -14t-14.5 -34t16 -35l94 -94l-16 -16l-30.5 -30.5l-34 -34l-13.5 -13.5q-13 -14 -14 -34v-1q0 -19 14 -33zM418 386l-94 94q6 6 15.5 16t30 30.5
t34.5 34l14 13.5q15 14 15 35q0 19 -13.5 33.5t-34.5 14.5q-20 0 -35 -15l-21.5 -21.5l-41.5 -41.5l-46.5 -46.5l-18.5 -18.5q-14 -14 -14 -34t14 -34l21.5 -21.5t41 -41.5t46.5 -46.5l19 -18.5q13 -13 33 -13q19 0 33.5 14.5t14.5 33.5t-13 33zM783 852q-131 107 -300 107
h-3q-97 0 -186 -37.5t-153.5 -101.5t-102.5 -153.5t-38 -187t38 -186t102.5 -153t153.5 -102.5t186.5 -38t186.5 38t153 102.5t102.5 153t38.5 186.5q0 171 -109 303l158 159q15 14 15 35q0 17 -10 30t-26 17q-6 1 -12 1q-20 0 -35 -16zM96 480q0 117 63.5 212t167.5 140
q73 32 152 32q153 0 263 -103q6 -12 19 -19q103 -111 103 -262q0 -104 -51.5 -193t-139.5 -140t-192.5 -51t-193 51t-140 140t-51.5 193z" />
</svg>
