<?xml version="1.0" standalone="no"?>
<!DOCTYPE svg PUBLIC "-//W3C//DTD SVG 1.1//EN" "http://www.w3.org/Graphics/SVG/1.1/DTD/svg11.dtd" >
<svg xmlns="http://www.w3.org/2000/svg" xmlns:xlink="http://www.w3.org/1999/xlink" version="1.1" viewBox="-10 0 1034 1024">
   <path fill="currentColor"
d="M176 0h160q46 0 79.5 32.5t33.5 78.5v801q0 46 -33.5 79t-79.5 33h-160q-46 0 -79.5 -33t-33.5 -79v-801q0 -46 33.5 -78.5t79.5 -32.5zM688 0h160q46 0 79.5 32.5t33.5 78.5v801q0 46 -33.5 79t-79.5 33h-160q-46 0 -79.5 -33t-33.5 -79v-801q0 -46 33.5 -78.5
t79.5 -32.5zM160 111v801q0 6 4.5 11t11.5 5h160q7 0 11.5 -5t4.5 -11v-801q0 -6 -4.5 -10.5t-11.5 -4.5h-160q-7 0 -11.5 4.5t-4.5 10.5zM672 111v801q0 6 4.5 11t11.5 5h160q7 0 11.5 -5t4.5 -11v-801q0 -6 -4.5 -10.5t-11.5 -4.5h-160q-7 0 -11.5 4.5t-4.5 10.5z" />
</svg>
