<?xml version="1.0" standalone="no"?>
<!DOCTYPE svg PUBLIC "-//W3C//DTD SVG 1.1//EN" "http://www.w3.org/Graphics/SVG/1.1/DTD/svg11.dtd" >
<svg xmlns="http://www.w3.org/2000/svg" xmlns:xlink="http://www.w3.org/1999/xlink" version="1.1" viewBox="-10 0 1034 1024">
   <path fill="currentColor"
d="M407 514l-306 -305q-13 -13 -13 -33t14 -34t34 -14q19 0 33 13q22 22 57 56.5t109.5 109.5t124 124l49.5 49q13 14 13 34t-13 35l-340 339q-14 14 -35 14q-19 0 -33 -14t-14 -33q0 -20 14 -35zM560 736h352q19 0 34 14t15 34t-14.5 33.5t-34.5 13.5h-352q-20 0 -34 -13.5
t-14 -33.5t14 -34t34 -14z" />
</svg>
