<?xml version="1.0" standalone="no"?>
<!DOCTYPE svg PUBLIC "-//W3C//DTD SVG 1.1//EN" "http://www.w3.org/Graphics/SVG/1.1/DTD/svg11.dtd" >
<svg xmlns="http://www.w3.org/2000/svg" xmlns:xlink="http://www.w3.org/1999/xlink" version="1.1" viewBox="-10 0 1034 1024">
   <path fill="currentColor"
d="M63 176q0 -46 33.5 -79.5t79.5 -33.5h672q46 0 79.5 33.5t33.5 79.5v480q0 46 -33.5 79t-79.5 33h-268l-165 165q-27 27 -65 27l-1 -1q-39 0 -66 -27t-27 -66v-9.5v-24.5v-29.5v-24.5v-10h-80q-46 0 -79.5 -33t-33.5 -79v-480zM176 160q-7 0 -11.5 4.5t-4.5 11.5v480
q0 6 4.5 11t11.5 5h128q19 0 33.5 14t14.5 34v140l174 -174q13 -14 34 -14h71.5h144.5h72q7 0 11.5 -5t4.5 -11v-480q0 -7 -4.5 -11.5t-11.5 -4.5h-672z" />
</svg>
