<?xml version="1.0" standalone="no"?>
<!DOCTYPE svg PUBLIC "-//W3C//DTD SVG 1.1//EN" "http://www.w3.org/Graphics/SVG/1.1/DTD/svg11.dtd" >
<svg xmlns="http://www.w3.org/2000/svg" xmlns:xlink="http://www.w3.org/1999/xlink" version="1.1" viewBox="-10 0 1044 1024">
   <path fill="currentColor"
d="M112 63h544q46 0 79 33.5t33 79.5v352q0 46 -33 79t-79 33h-204l-165 165q-27 27 -65 27l-1 -1q-39 0 -66 -27t-27 -66v-24.5v-49.5v-24h-16q-46 0 -79 -33t-33 -79v-352q0 -46 33 -79.5t79 -33.5zM96 176v352q0 6 4.5 11t11.5 5h64q19 0 33.5 14t14.5 34v140l174 -174
q13 -14 34 -14h56h112h56q6 0 11 -5t5 -11v-352q0 -7 -4.5 -11.5t-11.5 -4.5h-544q-6 0 -11 4.5t-5 11.5zM928 304q0 -7 -4.5 -11.5t-11.5 -4.5h-32q-19 0 -34 -14t-15 -34t14.5 -34t34.5 -14h32q46 0 79 33t33 79v352q0 46 -33 79t-79 33h-16v98q0 39 -27 66t-66 27
t-66 -26l-147 -147q-15 -14 -16 -36q0 -16 10.5 -29t26.5 -17q5 -2 12 -2q22 0 34 16l143 142v-140q0 -19 14 -33.5t34 -14.5h64q6 0 11 -5t5 -11v-352z" />
</svg>
