<?xml version="1.0" standalone="no"?>
<!DOCTYPE svg PUBLIC "-//W3C//DTD SVG 1.1//EN" "http://www.w3.org/Graphics/SVG/1.1/DTD/svg11.dtd" >
<svg xmlns="http://www.w3.org/2000/svg" xmlns:xlink="http://www.w3.org/1999/xlink" version="1.1" viewBox="-10 0 1044 1024">
   <path fill="currentColor"
d="M416 48v80h192v-80q0 -20 14 -34t34 -14t34.5 13.5t14.5 34.5v80h79q46 0 79 32.5t33 78.5v80h80q20 0 34 14.5t14 34.5t-14 34t-34 14h-80v192h80q20 0 34 14t14 34t-14 34t-34 14h-80v80q0 46 -33 79t-79 33h-79v80q0 20 -14.5 34t-34.5 14t-34 -14t-14 -34v-80h-192
v80q0 20 -14 34t-34 14t-34.5 -14t-14.5 -34v-80h-79q-46 0 -79 -33t-33 -79v-80h-80q-20 0 -34 -14t-14 -34t14 -34t34 -14h80v-192h-80q-20 0 -34 -14t-14 -34t14 -34.5t34 -14.5h80v-80q0 -46 33 -78.5t79 -32.5h79v-80q0 -20 14.5 -34t34.5 -14t34 14t14 34zM784 800
q6 0 11 -5t5 -11v-545q0 -6 -4.5 -10.5t-11.5 -4.5h-544q-6 0 -11 4.5t-5 10.5v545q0 6 4.5 11t11.5 5h544zM368 319h288q19 0 34 14.5t15 33.5v289q0 19 -14.5 33.5t-34.5 14.5h-288q-19 0 -34 -14t-15 -34v-289q0 -19 15 -33.5t34 -14.5zM416 608h192v-192h-192v192z" />
</svg>
