<?xml version="1.0" standalone="no"?>
<!DOCTYPE svg PUBLIC "-//W3C//DTD SVG 1.1//EN" "http://www.w3.org/Graphics/SVG/1.1/DTD/svg11.dtd" >
<svg xmlns="http://www.w3.org/2000/svg" xmlns:xlink="http://www.w3.org/1999/xlink" version="1.1" viewBox="-10 0 1044 1024">
   <path fill="currentColor"
d="M176 224q-7 0 -11.5 4.5t-4.5 10.5v481q0 7 4.5 11.5t11.5 4.5h128q19 0 33.5 14t14.5 34v139l174 -174q13 -13 34 -13h71.5h144.5h72q7 0 11.5 -4.5t4.5 -11.5v-160q0 -20 14 -34t34 -14t34.5 13.5t14.5 34.5v160q0 46 -33.5 78.5t-79.5 32.5h-268l-165 165
q-27 28 -66 28t-66 -27t-27 -66v-25v-49v-26h-80q-46 0 -79.5 -32.5t-33.5 -78.5v-481q0 -46 33.5 -78.5t79.5 -32.5h352q19 0 33 13.5t14 33.5t-13.5 34.5t-33.5 14.5h-352zM1024 80v265q0 7 -4.5 11.5t-11.5 4.5t-12 -5l-98 -98l-241 239q-13 15 -34 16q-16 0 -29 -10.5
t-17 -25.5q-2 -6 -3 -12q0 -20 16 -35l240 -240l-99 -99q-4 -4 -4 -10.5t4.5 -11.5t10.5 -5v-1q0 1 67 1h133l66 -1q7 0 11.5 5.5t4.5 11.5z" />
</svg>
