<?xml version="1.0" standalone="no"?>
<!DOCTYPE svg PUBLIC "-//W3C//DTD SVG 1.1//EN" "http://www.w3.org/Graphics/SVG/1.1/DTD/svg11.dtd" >
<svg xmlns="http://www.w3.org/2000/svg" xmlns:xlink="http://www.w3.org/1999/xlink" version="1.1" viewBox="-10 0 1034 1024">
   <path fill="currentColor"
d="M63 224q0 -55 46 -102q37 -38 101 -67q126 -55 302 -55t302 55q63 29 101 67q45 47 46 102v576q0 55 -46 102q-37 38 -101 67q-126 55 -302 55t-302 -55q-63 -29 -101 -67q-45 -47 -46 -102v-576zM160 224q0 16 18 35q24 25 71 45q108 48 263.5 48t262.5 -48
q47 -20 71 -45q18 -18 18 -34.5t-18 -36.5q-24 -25 -71 -45q-108 -47 -263.5 -47t-262.5 47q-47 20 -71 45q-18 20 -18 36zM160 512q0 16 18 35q24 26 71 46q108 47 263.5 47t262.5 -47q47 -22 71 -46q18 -18 18 -35v-146q-23 14 -50 26q-126 56 -302 56t-302 -56
q-26 -11 -50 -26v146zM160 654v146q0 16 18 35q24 25 71 45q108 47 263 47q2 1 4 1q153 0 259 -48q47 -20 71 -45q18 -19 18 -35v-146q-23 14 -50 26q-126 56 -302 56t-302 -56q-25 -12 -50 -26z" />
</svg>
