<?xml version="1.0" standalone="no"?>
<!DOCTYPE svg PUBLIC "-//W3C//DTD SVG 1.1//EN" "http://www.w3.org/Graphics/SVG/1.1/DTD/svg11.dtd" >
<svg xmlns="http://www.w3.org/2000/svg" xmlns:xlink="http://www.w3.org/1999/xlink" version="1.1" viewBox="-10 0 1044 1024">
   <path fill="currentColor"
d="M368 480q20 0 34 14t14 34v95q0 20 -14 34.5t-34 14.5t-34.5 -14t-14.5 -35v-95q0 -20 14.5 -34t34.5 -14zM705 528v95q0 20 -14.5 34.5t-34.5 14.5t-34 -14t-14 -35v-95q0 -20 14 -34t34 -14t34.5 14t14.5 34zM400 0h128q19 0 33 13.5t14 34.5v176h209q59 0 101.5 42
t42.5 101v145h48q20 0 34 13.5t14 33.5t-14 34.5t-34 14.5h-48v176q0 59 -42 101.5t-102 42.5h-544q-59 0 -101.5 -42t-42.5 -102v-176h-48q-20 0 -34 -14.5t-14 -34.5t14 -33.5t34 -13.5h48v-145q0 -59 42 -101t102 -42h240v-128h-80q-20 0 -34 -14.5t-14 -34.5t14 -33.5
t34 -13.5zM193 367v417q0 19 13.5 33t33.5 14h544q19 0 33 -13.5t14 -33.5v-417q0 -19 -13.5 -33.5t-33.5 -14.5h-544q-19 0 -33 14.5t-14 33.5z" />
</svg>
