<?xml version="1.0" standalone="no"?>
<!DOCTYPE svg PUBLIC "-//W3C//DTD SVG 1.1//EN" "http://www.w3.org/Graphics/SVG/1.1/DTD/svg11.dtd" >
<svg xmlns="http://www.w3.org/2000/svg" xmlns:xlink="http://www.w3.org/1999/xlink" version="1.1" viewBox="-10 0 1044 1024">
   <path fill="currentColor"
d="M315 347q-5 -4 -5 -10.5t5.5 -12t11.5 -5.5h137v-271q0 -20 14.5 -34t33.5 -14t33.5 13.5t14.5 34.5v271q8 1 22.5 1h44.5h50t20 -1v1q6 0 11.5 5t5.5 11.5t-5 10.5q-11 12 -31 31t-60 59.5t-67.5 67.5l-27.5 27q-5 5 -11 5t-11 -5zM100.5 164.5q-4.5 4.5 -4.5 11.5v120
v239v121q0 6 4.5 11t11.5 5h800q6 0 11 -5t5 -11v-480q0 -7 -4.5 -11.5t-11.5 -4.5h-192q-19 0 -33.5 -14t-14.5 -34t14 -34.5t34 -14.5h192q46 0 79 33.5t33 79.5v480q0 46 -33 79t-79 33h-238q8 92 82 176q12 14 12 32q0 20 -14 34t-34 14h-416q-20 0 -34 -14t-14 -34
q0 -17 12 -32q74 -84 82 -176h-238q-46 0 -79 -33t-33 -79v-480q0 -46 33 -79.5t79 -33.5h192q19 0 33.5 14.5t14.5 34.5t-14 34t-34 14h-192q-7 0 -11.5 4.5zM446 768q-5 86 -48 160h228q-43 -74 -48 -160h-33h-66h-33z" />
</svg>
