<?xml version="1.0" standalone="no"?>
<!DOCTYPE svg PUBLIC "-//W3C//DTD SVG 1.1//EN" "http://www.w3.org/Graphics/SVG/1.1/DTD/svg11.dtd" >
<svg xmlns="http://www.w3.org/2000/svg" xmlns:xlink="http://www.w3.org/1999/xlink" version="1.1" viewBox="-10 0 1044 1024">
   <path fill="currentColor"
d="M0 176q0 -46 33 -79.5t79 -33.5h800q46 0 79 33.5t33 79.5v143q0 20 -14 34t-34 14t-34 -13.5t-14 -34.5v-143q0 -7 -4.5 -11.5t-11.5 -4.5h-800q-6 0 -11 4.5t-5 11.5v480q0 6 4.5 11t11.5 5h337q19 0 33 14t14 34t-14 34t-33 14h-18q-6 86 -49 160h67q19 0 33 14t14 34
t-14 34t-33 14h-161q-19 0 -33.5 -14t-14.5 -34q0 -17 12 -32q74 -84 83 -176h-223q-46 0 -79 -33t-33 -79v-480zM688 448h224q46 0 79 33t33 79v352q0 46 -33 79t-79 33h-224q-46 0 -79.5 -33t-33.5 -79v-352q0 -46 33.5 -79t79.5 -33zM672 560v352q0 6 4.5 11t11.5 5h224
q6 0 11 -5t5 -11v-352q0 -7 -4.5 -11.5t-11.5 -4.5h-224q-7 0 -11.5 4.5t-4.5 11.5z" />
</svg>
