<?xml version="1.0" standalone="no"?>
<!DOCTYPE svg PUBLIC "-//W3C//DTD SVG 1.1//EN" "http://www.w3.org/Graphics/SVG/1.1/DTD/svg11.dtd" >
<svg xmlns="http://www.w3.org/2000/svg" xmlns:xlink="http://www.w3.org/1999/xlink" version="1.1" viewBox="-10 0 1034 1024">
   <path fill="currentColor"
d="M240 0h544q46 0 79 32.5t33 78.5v801q0 46 -33 79t-79 33h-544q-46 0 -79 -33t-33 -79v-801q0 -46 33 -78.5t79 -32.5zM224 111v801q0 6 4.5 11t11.5 5h544q6 0 11 -5t5 -11v-801q0 -6 -4.5 -10.5t-11.5 -4.5h-544q-6 0 -11 4.5t-5 10.5zM512 831q-27 0 -45 -18.5
t-18 -45t18 -45t45 -18.5t45 18.5t18 45t-18 45t-45 18.5z" />
</svg>
