<?xml version="1.0" standalone="no"?>
<!DOCTYPE svg PUBLIC "-//W3C//DTD SVG 1.1//EN" "http://www.w3.org/Graphics/SVG/1.1/DTD/svg11.dtd" >
<svg xmlns="http://www.w3.org/2000/svg" xmlns:xlink="http://www.w3.org/1999/xlink" version="1.1" viewBox="-10 0 1034 1024">
   <path fill="currentColor"
d="M560 111v208h208q19 0 33.5 14.5t14.5 34.5t-14.5 34t-33.5 14h-208v207q0 20 -14.5 34.5t-33.5 14.5t-33.5 -14t-14.5 -35v-207h-208q-19 0 -33.5 -14t-14.5 -34t14.5 -34.5t33.5 -14.5h208v-208q0 -19 14.5 -33.5t33.5 -14.5t33.5 14.5t14.5 33.5zM256 831h512
q19 0 33.5 14.5t14.5 34.5t-14.5 34t-33.5 14h-512q-19 0 -33.5 -14t-14.5 -34t14.5 -34.5t33.5 -14.5z" />
</svg>
