<?xml version="1.0" standalone="no"?>
<!DOCTYPE svg PUBLIC "-//W3C//DTD SVG 1.1//EN" "http://www.w3.org/Graphics/SVG/1.1/DTD/svg11.dtd" >
<svg xmlns="http://www.w3.org/2000/svg" xmlns:xlink="http://www.w3.org/1999/xlink" version="1.1" viewBox="-10 0 1034 1024">
   <path fill="currentColor"
d="M848 63q46 0 79.5 33.5t33.5 79.5v672q0 46 -33.5 79t-79.5 33h-672q-46 0 -79.5 -33t-33.5 -79v-672q0 -46 33.5 -79.5t79.5 -33.5h672zM176 160q-7 0 -11.5 4.5t-4.5 11.5v672q0 7 4.5 11.5t11.5 4.5h672q7 0 11.5 -4.5t4.5 -11.5v-672q0 -7 -4.5 -11.5t-11.5 -4.5
h-672zM512 640h-3q-53 0 -90.5 -37.5t-37.5 -90.5t37.5 -90.5t90.5 -37.5h3q52 1 88.5 38.5t36.5 89.5t-36.5 89.5t-88.5 38.5z" />
</svg>
