<?xml version="1.0" standalone="no"?>
<!DOCTYPE svg PUBLIC "-//W3C//DTD SVG 1.1//EN" "http://www.w3.org/Graphics/SVG/1.1/DTD/svg11.dtd" >
<svg xmlns="http://www.w3.org/2000/svg" xmlns:xlink="http://www.w3.org/1999/xlink" version="1.1" viewBox="-10 0 1044 1024">
   <path fill="currentColor"
d="M0 176q0 -46 33 -79.5t79 -33.5h544q46 0 79 33.5t33 79.5v352q0 46 -33 79t-79 33h-204l-165 165q-27 27 -65 27l-1 -1q-39 0 -66 -27t-27 -66v-24.5v-49.5v-24h-16q-46 0 -79 -33t-33 -79v-352zM112 160q-6 0 -11 4.5t-5 11.5v352q0 6 4.5 11t11.5 5h64q19 0 33.5 14
t14.5 34v140l174 -174q13 -14 34 -14h56h112h56q6 0 11 -5t5 -11v-352q0 -7 -4.5 -11.5t-11.5 -4.5h-544zM912 288h-32q-19 0 -34 -14t-15 -34t14.5 -34t34.5 -14h32q46 0 79 33t33 79v352q0 46 -33 79t-79 33h-16v98q0 39 -27 66t-66 27t-66 -26l-147 -147q-13 -14 -13 -34
t13.5 -34t33.5 -14t33 14l36 35.5t72 70.5l35 36v-140q0 -19 14 -33.5t34 -14.5h64q6 0 11 -5t5 -11v-352q0 -7 -5 -11.5t-11 -4.5zM562 306l-192 191q-13 14 -34 14q0 1 -1 1q-19 0 -33 -15l-24 -24t-48 -47l-24 -25q-13 -13 -13 -33t13.5 -34t33.5 -14t34 14v0q0 1 15 15
l32 32l15 15l158 -159q14 -13 34 -13t33.5 14t13.5 34t-13 34z" />
</svg>
