<?xml version="1.0" standalone="no"?>
<!DOCTYPE svg PUBLIC "-//W3C//DTD SVG 1.1//EN" "http://www.w3.org/Graphics/SVG/1.1/DTD/svg11.dtd" >
<svg xmlns="http://www.w3.org/2000/svg" xmlns:xlink="http://www.w3.org/1999/xlink" version="1.1" viewBox="-10 0 1044 1024">
   <path fill="currentColor"
d="M672 192q20 0 34 14t14 33v65h64q19 0 33 14t14 34t-13.5 34t-33.5 14h-64v64q0 20 -14 34t-34 14t-34 -14t-14 -34v-64h-64q-20 0 -34 -14t-14 -34t14 -34t34 -14h64v-65q0 -19 14 -33t34 -14zM432 0h480q46 0 79 32.5t33 78.5v481q0 46 -33 79t-79 33h-480
q-46 0 -79.5 -33t-33.5 -79v-481q0 -46 33.5 -78.5t79.5 -32.5zM416 111v481q0 7 4.5 11.5t11.5 4.5h480q6 0 11 -4.5t5 -11.5v-481q0 -6 -4.5 -10.5t-11.5 -4.5h-480q-7 0 -11.5 4.5t-4.5 10.5zM112 319h96q20 0 34 14.5t14 34.5t-14 34t-34 14h-96q-6 0 -11 4.5t-5 11.5
v480q0 6 4.5 11t11.5 5h480q7 0 11.5 -5t4.5 -11v-96q0 -20 14 -34t34 -14t34.5 13.5t14.5 34.5v96q0 46 -33.5 79t-79.5 33h-480q-46 0 -79 -33t-33 -79v-480q0 -46 33 -79.5t79 -33.5z" />
</svg>
