<?xml version="1.0" standalone="no"?>
<!DOCTYPE svg PUBLIC "-//W3C//DTD SVG 1.1//EN" "http://www.w3.org/Graphics/SVG/1.1/DTD/svg11.dtd" >
<svg xmlns="http://www.w3.org/2000/svg" xmlns:xlink="http://www.w3.org/1999/xlink" version="1.1" viewBox="-10 0 1044 1024">
   <path fill="currentColor"
d="M0 367q0 -46 33 -78.5t79 -32.5h800q46 0 79 32.5t33 78.5v289q0 46 -33 79t-79 33h-800q-46 0 -79 -33t-33 -79v-289zM768 448q-27 0 -45 18.5t-18 45t18 45t45 18.5t45 -18.5t18 -45t-18 -45t-45 -18.5zM449 511.5q0 26.5 18 45t45 18.5t45 -18.5t18 -45t-18 -45
t-45 -18.5t-45 18.5t-18 45zM256 448q-27 0 -45 18.5t-18 45t18 45t45 18.5t45 -18.5t18 -45t-18 -45t-45 -18.5z" />
</svg>
