<?xml version="1.0" standalone="no"?>
<!DOCTYPE svg PUBLIC "-//W3C//DTD SVG 1.1//EN" "http://www.w3.org/Graphics/SVG/1.1/DTD/svg11.dtd" >
<svg xmlns="http://www.w3.org/2000/svg" xmlns:xlink="http://www.w3.org/1999/xlink" version="1.1" viewBox="-10 0 1045 1024">
   <path fill="currentColor"
d="M9 147q14 -19 39 -19q15 0 28 9l232 168l464 336l233 168q20 14 20 40q0 19 -14 33.5t-34 14.5q-16 0 -29 -10l-36 -26.5t-72 -51.5l-36 -27q-143 114 -292 114q-161 0 -315 -133q-94 -80 -169 -194q-17 -26 -18 -57q0 -32 18 -58q53 -80 119 -147l-128 -92
q-19 -14 -19 -39q0 -16 9 -29zM108 508l-2 4v1t2 3q68 101 151 174q127 110 253 110q104 0 211 -76l-143 -104q-31 19 -68 20q-53 0 -90.5 -37.5t-37.5 -90.5q0 -16 4 -31l-40.5 -29t-81.5 -59l-40 -29q-66 66 -118 144zM512 224q-48 0 -96 15q-7 3 -17 3q-19 0 -33 -13.5
t-14 -34.5q0 -15 9.5 -28t24.5 -17q58 -21 120 -21h6q161 0 315 133q94 81 169 193q17 26 18 58q0 32 -18 57q-11 17 -25 38q-15 19 -39 19q-20 0 -34 -13.5t-14 -34.5q0 -15 9 -28q11 -15 23 -34l2 -4v-1t-2 -3q-68 -101 -151 -174q-127 -110 -253 -110z" />
</svg>
