<?xml version="1.0" standalone="no"?>
<!DOCTYPE svg PUBLIC "-//W3C//DTD SVG 1.1//EN" "http://www.w3.org/Graphics/SVG/1.1/DTD/svg11.dtd" >
<svg xmlns="http://www.w3.org/2000/svg" xmlns:xlink="http://www.w3.org/1999/xlink" version="1.1" viewBox="-10 0 1034 1024">
   <path fill="currentColor"
d="M512 128q161 0 315 133q94 81 169 193q17 26 18 58q0 32 -18 57q-75 113 -169 194q-155 133 -315.5 133t-314.5 -133q-94 -81 -169 -194q-17 -26 -18 -57q0 -32 18 -58q75 -113 169 -193q154 -133 315 -133zM108 508q-1 2 -1.5 4t1.5 4q67 101 151 174q127 110 253 110
t253 -110q84 -73 151 -174q1 -2 1.5 -4t-1.5 -4q-68 -101 -151 -174q-127 -110 -253 -110t-253 110q-83 73 -151 174zM512 640h-3q-53 0 -90.5 -37.5t-37.5 -90.5t37.5 -90.5t90.5 -37.5h3q52 1 88.5 38.5t36.5 89.5t-36.5 89.5t-88.5 38.5z" />
</svg>
