<?xml version="1.0" standalone="no"?>
<!DOCTYPE svg PUBLIC "-//W3C//DTD SVG 1.1//EN" "http://www.w3.org/Graphics/SVG/1.1/DTD/svg11.dtd" >
<svg xmlns="http://www.w3.org/2000/svg" xmlns:xlink="http://www.w3.org/1999/xlink" version="1.1" viewBox="-10 0 1044 1024">
   <path fill="currentColor"
d="M0 512q0 -139 68.5 -257t186.5 -186.5t257 -68.5t257 68.5t186.5 186.5t68.5 257t-68.5 257t-186.5 186.5t-257 68.5t-257 -68.5t-186.5 -186.5t-68.5 -257zM432 672q0 -37 -22.5 -67t-57.5 -41v-121q35 -10 57 -39.5t22 -67.5q0 -46 -32 -79t-80 -33q-46 0 -78.5 33
t-32.5 79q0 38 22.5 67.5t57.5 39.5v121q-35 11 -57 41t-22 67q0 46 32 78.5t78 33.5q47 0 80 -32.5t33 -79.5zM640 352h16q13 0 22.5 9t9.5 23v180q-35 11 -57.5 41t-22.5 67q0 46 33 78.5t79 33.5q47 0 80 -32.5t33 -79.5q0 -38 -23 -67.5t-58 -40.5v-180q0 -40 -28.5 -68
t-67.5 -28h-16v-87q0 -7 -4.5 -12t-11.5 -5t-12 4l-119 120q-4 5 -4.5 11.5t4.5 12.5l119 118q5 5 12 5t11.5 -4.5t4.5 -11.5v-21.5v-43.5v-22z" />
</svg>
