<?xml version="1.0" standalone="no"?>
<!DOCTYPE svg PUBLIC "-//W3C//DTD SVG 1.1//EN" "http://www.w3.org/Graphics/SVG/1.1/DTD/svg11.dtd" >
<svg xmlns="http://www.w3.org/2000/svg" xmlns:xlink="http://www.w3.org/1999/xlink" version="1.1" viewBox="-10 0 1044 1024">
   <path fill="currentColor"
d="M512 1024q-139 0 -257 -68.5t-186.5 -186.5t-68.5 -257t68.5 -257t186.5 -186.5t257 -68.5t257 68.5t186.5 186.5t68.5 257t-68.5 257t-186.5 186.5t-257 68.5zM256 319v321q0 27 19 45.5t44 18.5h65v96q0 13 9 22.5t22.5 9.5t22.5 -10l119 -118h148q26 0 44.5 -19
t18.5 -45v-321q0 -26 -19 -44.5t-44 -18.5h-386q-26 0 -44.5 18.5t-18.5 44.5z" />
</svg>
