<?xml version="1.0" standalone="no"?>
<!DOCTYPE svg PUBLIC "-//W3C//DTD SVG 1.1//EN" "http://www.w3.org/Graphics/SVG/1.1/DTD/svg11.dtd" >
<svg xmlns="http://www.w3.org/2000/svg" xmlns:xlink="http://www.w3.org/1999/xlink" version="1.1" viewBox="-10 0 1044 1024">
   <path fill="currentColor"
d="M512 1024q-139 0 -257 -68.5t-186.5 -186.5t-68.5 -257t68.5 -257t186.5 -186.5t257 -68.5t257 68.5t186.5 186.5t68.5 257t-68.5 257t-186.5 186.5t-257 68.5zM528 304q0 -46 -32.5 -79t-79 -33t-79.5 33t-33 79q0 38 22.5 67.5t57.5 39.5v201q-35 10 -57.5 40t-22.5 68
q0 46 33 78.5t79.5 32.5t79 -32.5t32.5 -78.5q0 -38 -22.5 -68t-56.5 -40v-85q54 48 126 48h9.5h18.5h9q10 36 40 58.5t68 22.5q46 0 78.5 -32.5t32.5 -79.5t-32.5 -79.5t-78.5 -32.5q-38 0 -67.5 22.5t-40.5 57.5h-37q-45 0 -80 -29t-44 -73q34 -11 55.5 -40t21.5 -66z" />
</svg>
