<?xml version="1.0" standalone="no"?>
<!DOCTYPE svg PUBLIC "-//W3C//DTD SVG 1.1//EN" "http://www.w3.org/Graphics/SVG/1.1/DTD/svg11.dtd" >
<svg xmlns="http://www.w3.org/2000/svg" xmlns:xlink="http://www.w3.org/1999/xlink" version="1.1" viewBox="-10 0 1044 1024">
   <path fill="currentColor"
d="M512 0q139 0 257 68.5t186.5 186.5t68.5 257t-68.5 257t-186.5 186.5t-257 68.5t-257 -68.5t-186.5 -186.5t-68.5 -257t68.5 -257t186.5 -186.5t257 -68.5zM244 469v-7q0 -19 -14 -34t-34 -15q-17 0 -30.5 12t-17.5 29q-4 29 -4 58t4 57q3 17 16.5 29t31.5 12
q20 0 34 -14.5t14 -33.5v-7q-4 -22 -4 -43t4 -43zM512 144q-29 0 -57 4q-17 3 -29 16.5t-12 30.5q0 20 14 34.5t34 14.5h7q22 -4 43 -5q22 0 43 5h7q19 0 33.5 -14t14.5 -35q0 -17 -11.5 -30.5t-29.5 -16.5q-28 -4 -57 -4zM469 780h-7q-19 0 -33.5 14t-14.5 34
q0 17 11.5 30.5t29.5 16.5q29 4 57 4q29 0 57 -4q17 -3 29 -16t12 -31q0 -20 -14 -34t-34 -14h-7q-22 4 -43 4t-43 -4zM876 454q-3 -17 -16.5 -29t-31.5 -12q-20 0 -34 14.5t-14 34.5v7q4 22 4 43q0 22 -4 43v7q0 19 14 33.5t34 14.5q17 0 30.5 -11.5t17.5 -29.5
q4 -29 4 -57q0 -29 -4 -58zM352 292q19 -14 20 -38q0 -20 -14.5 -34t-33.5 -14q-15 0 -28 8q-47 35 -82 82q-9 12 -9 27q0 20 14 34.5t34 14.5q25 0 39 -20q25 -34 60 -60zM292 672q-14 -19 -38 -20q-20 0 -34 14.5t-14 33.5q0 15 8 28q35 47 82 82q12 9 28 9q20 0 34 -14.5
t14 -33.5q0 -25 -20 -39q-34 -25 -60 -60zM728 214q-12 -9 -28 -9q-20 0 -34 14t-14 34q0 25 20 39q35 26 60 60q14 19 38 20q20 0 34 -14.5t14 -34.5q0 -15 -8 -27q-35 -47 -82 -82zM810 728q9 -12 9 -28q0 -20 -14 -34t-34 -14q-25 0 -39 20q-26 35 -60 60q-19 14 -20 38
q0 20 14.5 34t33.5 14q15 0 28 -8q47 -35 82 -82z" />
</svg>
