<?xml version="1.0" standalone="no"?>
<!DOCTYPE svg PUBLIC "-//W3C//DTD SVG 1.1//EN" "http://www.w3.org/Graphics/SVG/1.1/DTD/svg11.dtd" >
<svg xmlns="http://www.w3.org/2000/svg" xmlns:xlink="http://www.w3.org/1999/xlink" version="1.1" viewBox="-10 0 1044 1024">
   <path fill="currentColor"
d="M240 511.5q0 -112.5 79.5 -192.5t192.5 -80t192.5 80t79.5 192.5t-79.5 192.5t-192.5 80t-192.5 -80t-79.5 -192.5zM608 512q0 -40 -28 -68t-68 -28t-68 28t-28 68t28 68t68 28t68 -28t28 -68zM0 512q0 -139 68.5 -257t186.5 -186.5t257 -68.5t257 68.5t186.5 186.5
t68.5 257t-68.5 257t-186.5 186.5t-257 68.5t-257 -68.5t-186.5 -186.5t-68.5 -257zM512 144q-100 0 -184.5 49t-134 133.5t-49.5 185t49.5 185t134 133.5t184.5 49t184.5 -49t134 -133.5t49.5 -185t-49.5 -185t-134 -133.5t-184.5 -49z" />
</svg>
