<?xml version="1.0" standalone="no"?>
<!DOCTYPE svg PUBLIC "-//W3C//DTD SVG 1.1//EN" "http://www.w3.org/Graphics/SVG/1.1/DTD/svg11.dtd" >
<svg xmlns="http://www.w3.org/2000/svg" xmlns:xlink="http://www.w3.org/1999/xlink" version="1.1" viewBox="-10 0 1044 1024">
   <path fill="currentColor"
d="M512 1024q-139 0 -257 -68.5t-186.5 -186.5t-68.5 -257t68.5 -257t186.5 -186.5t257 -68.5t257 68.5t186.5 186.5t68.5 257t-68.5 257t-186.5 186.5t-257 68.5zM566 503q47 -17 76.5 -58.5t29.5 -92.5q0 -67 -46.5 -114t-113.5 -47t-113.5 47t-46.5 114q0 51 29.5 92
t76.5 59q-80 19 -141 80.5t-61 120.5q0 25 14 44.5t49 19.5h386q36 0 49.5 -19.5t13.5 -44.5q0 -59 -61 -120.5t-141 -80.5z" />
</svg>
