<?xml version="1.0" standalone="no"?>
<!DOCTYPE svg PUBLIC "-//W3C//DTD SVG 1.1//EN" "http://www.w3.org/Graphics/SVG/1.1/DTD/svg11.dtd" >
<svg xmlns="http://www.w3.org/2000/svg" xmlns:xlink="http://www.w3.org/1999/xlink" version="1.1" viewBox="-10 0 1044 1024">
   <path fill="currentColor"
d="M512 0q139 0 257 68.5t186.5 186.5t68.5 257t-68.5 257t-186.5 186.5t-257 68.5t-257 -68.5t-186.5 -186.5t-68.5 -257t68.5 -257t186.5 -186.5t257 -68.5zM580 276q0 -27 -18.5 -45.5t-45.5 -18.5t-45.5 19t-18.5 45v175h-176q-27 0 -45.5 19t-18.5 46t19 45t45 18h176
v177q0 27 18.5 45.5t45.5 18.5t45.5 -19t18.5 -45v-177h176q27 0 45.5 -18t18.5 -45t-19 -46t-45 -19h-176v-175z" />
</svg>
