<?xml version="1.0" standalone="no"?>
<!DOCTYPE svg PUBLIC "-//W3C//DTD SVG 1.1//EN" "http://www.w3.org/Graphics/SVG/1.1/DTD/svg11.dtd" >
<svg xmlns="http://www.w3.org/2000/svg" xmlns:xlink="http://www.w3.org/1999/xlink" version="1.1" viewBox="-10 0 1044 1024">
   <path fill="currentColor"
d="M512 0q139 0 257 68.5t186.5 186.5t68.5 257t-68.5 257t-186.5 186.5t-257 68.5t-257 -68.5t-186.5 -186.5t-68.5 -257t68.5 -257t186.5 -186.5t257 -68.5zM352 784q46 0 79 -32.5t33 -79.5q0 -38 -22.5 -67.5t-57.5 -40.5v-121q35 -10 57.5 -39.5t22.5 -67.5
q0 -46 -33 -79t-79 -33q-47 0 -79.5 33t-32.5 79q0 38 22.5 67.5t56.5 39.5v121q-35 11 -56.5 41t-21.5 67q0 46 32.5 78.5t78.5 33.5zM671.5 464q-13.5 0 -22.5 9t-9 22v69q-35 11 -57.5 41t-22.5 67q0 46 33 78.5t79 33.5q47 0 79.5 -32.5t32.5 -79.5q0 -38 -22.5 -67.5
t-56.5 -40.5v-69q0 -13 -10 -22t-23.5 -9zM753 287q8 -9 8 -22t-9.5 -23t-22.5 -10q-12 0 -22 9l-34 34l-34 -34q-9 -9 -23 -9q-12 0 -21.5 10t-9.5 23q0 12 9 22l34 34l-34 34q-9 9 -9 22t9.5 22.5t21.5 9.5q13 0 23 -9l8.5 -8.5t17.5 -16.5l8 -9l34 34q10 9 22 9
q13 0 22.5 -9.5t9.5 -22.5q0 -12 -8 -22l-34 -34z" />
</svg>
