<?xml version="1.0" standalone="no"?>
<!DOCTYPE svg PUBLIC "-//W3C//DTD SVG 1.1//EN" "http://www.w3.org/Graphics/SVG/1.1/DTD/svg11.dtd" >
<svg xmlns="http://www.w3.org/2000/svg" xmlns:xlink="http://www.w3.org/1999/xlink" version="1.1" viewBox="-10 0 1044 1024">
   <path fill="currentColor"
d="M0 512q0 -139 68.5 -257t186.5 -186.5t257 -68.5t257 68.5t186.5 186.5t68.5 257t-68.5 257t-186.5 186.5t-257 68.5t-257 -68.5t-186.5 -186.5t-68.5 -257zM464 672q0 -37 -22.5 -67t-57.5 -41v-121q35 -10 57.5 -39.5t22.5 -67.5q0 -46 -33 -79t-79 -33q-47 0 -79.5 33
t-32.5 79q0 38 22.5 67.5t56.5 39.5v121q-35 11 -56.5 41t-21.5 67q0 46 32.5 78.5t78.5 33.5q46 0 79 -32.5t33 -79.5zM672 784h3q46 0 78.5 -32.5t32.5 -79.5t-32.5 -79.5t-78.5 -32.5h-3q-45 1 -77 33.5t-32 78.5t32 78.5t77 33.5zM672 495q20 0 34 -13.5t14 -33.5
t-14 -34t-34 -14t-34 14t-14 34t14 33.5t34 13.5zM720 288q0 -20 -14 -34.5t-34 -14.5t-34 14.5t-14 34.5t14 34t34 14t34 -14t14 -34z" />
</svg>
