<?xml version="1.0" standalone="no"?>
<!DOCTYPE svg PUBLIC "-//W3C//DTD SVG 1.1//EN" "http://www.w3.org/Graphics/SVG/1.1/DTD/svg11.dtd" >
<svg xmlns="http://www.w3.org/2000/svg" xmlns:xlink="http://www.w3.org/1999/xlink" version="1.1" viewBox="-10 0 1044 1024">
   <path fill="currentColor"
d="M512 1024q-139 0 -257 -68.5t-186.5 -186.5t-68.5 -257t68.5 -257t186.5 -186.5t257 -68.5t257 68.5t186.5 186.5t68.5 257t-68.5 257t-186.5 186.5t-257 68.5zM384 443q35 -10 57.5 -39.5t22.5 -67.5q0 -46 -33 -79t-79.5 -33t-79 33t-32.5 79q0 38 22.5 67.5t56.5 39.5
v37q0 40 28.5 67.5t68.5 27.5h64v70q-36 10 -58 40t-22 66q0 47 33 80t79 33t79 -32.5t33 -80.5q0 -37 -22 -66.5t-58 -39.5v-70h64q40 0 68.5 -27.5t28.5 -67.5v-37q35 -10 57 -39.5t22 -67.5q0 -46 -32.5 -79t-79 -33t-79.5 33t-33 79q0 38 22.5 67.5t57.5 39.5v37
q0 13 -9 22.5t-23 9.5h-192q-13 0 -22.5 -9.5t-9.5 -22.5v-37z" />
</svg>
