<?xml version="1.0" standalone="no"?>
<!DOCTYPE svg PUBLIC "-//W3C//DTD SVG 1.1//EN" "http://www.w3.org/Graphics/SVG/1.1/DTD/svg11.dtd" >
<svg xmlns="http://www.w3.org/2000/svg" xmlns:xlink="http://www.w3.org/1999/xlink" version="1.1" viewBox="-10 0 1044 1024">
   <path fill="currentColor"
d="M512 1024q-139 0 -257 -68.5t-186.5 -186.5t-68.5 -257t68.5 -257t186.5 -186.5t257 -68.5t257 68.5t186.5 186.5t68.5 257t-68.5 257t-186.5 186.5t-257 68.5zM352 256q-40 0 -68 28t-28 68v320q0 39 20 67.5t43 28.5v-64q0 -27 19 -45.5t46 -18.5h321v64h-65v64h96
q13 0 22.5 -9.5t9.5 -22.5v-448q0 -13 -9 -22.5t-23 -9.5h-384zM384 720v160q0 7 4.5 12t11.5 5t12 -5l14 -14t29 -28l14 -15q4 -5 10.5 -5t12.5 5l14 14.5t29 28.5l14 14q4 5 10.5 5t11 -4.5t4.5 -12.5v-44v-88v-44h-175q-7 0 -11.5 5t-4.5 11z" />
</svg>
