<?xml version="1.0" standalone="no"?>
<!DOCTYPE svg PUBLIC "-//W3C//DTD SVG 1.1//EN" "http://www.w3.org/Graphics/SVG/1.1/DTD/svg11.dtd" >
<svg xmlns="http://www.w3.org/2000/svg" xmlns:xlink="http://www.w3.org/1999/xlink" version="1.1" viewBox="-10 0 1044 1024">
   <path fill="currentColor"
d="M0 512q0 -139 68.5 -257t186.5 -186.5t257 -68.5t257 68.5t186.5 186.5t68.5 257t-68.5 257t-186.5 186.5t-257 68.5t-257 -68.5t-186.5 -186.5t-68.5 -257zM288 528v192q0 27 19 45.5t45 18.5h320q27 0 45.5 -19t18.5 -45v-192q0 -27 -19 -45.5t-45 -18.5h-223v-97
q0 -39 27.5 -67t67.5 -28q34 0 60 21q13 10 30 10q19 0 33.5 -14t14.5 -34q0 -22 -17 -36q-52 -43 -121 -43q-79 0 -135.5 56.5t-56.5 134.5v97q-27 0 -45.5 18.5t-18.5 45.5z" />
</svg>
