<?xml version="1.0" standalone="no"?>
<!DOCTYPE svg PUBLIC "-//W3C//DTD SVG 1.1//EN" "http://www.w3.org/Graphics/SVG/1.1/DTD/svg11.dtd" >
<svg xmlns="http://www.w3.org/2000/svg" xmlns:xlink="http://www.w3.org/1999/xlink" version="1.1" viewBox="-10 0 1044 1024">
   <path fill="currentColor"
d="M512 1024q-139 0 -257 -68.5t-186.5 -186.5t-68.5 -257t68.5 -257t186.5 -186.5t257 -68.5t257 68.5t186.5 186.5t68.5 257t-68.5 257t-186.5 186.5t-257 68.5zM706 256q-116 0 -198 82l-3.5 3.5l-7.5 7.5l-3 3q-16 16 -30 32h-103q-31 0 -48 26l-54 90q-3 6 -3 12
q0 18 16 23l100 30l87 87l29 99q5 17 24 18q6 0 12 -4l22 -14t45 -27l22 -14q27 -16 27 -48v-102q15 -13 32 -30l14 -14q82 -82 82 -198v-6q0 -24 -16.5 -40t-39.5 -16h-6zM379 713q5 -9 5 -21q0 -22 -15.5 -37t-36.5 -15q-23 0 -38 16q-28 29 -40 105v1q0 3 2.5 5.5
t5.5 2.5h1q76 -12 104 -40q8 -7 12 -17z" />
</svg>
