<?xml version="1.0" standalone="no"?>
<!DOCTYPE svg PUBLIC "-//W3C//DTD SVG 1.1//EN" "http://www.w3.org/Graphics/SVG/1.1/DTD/svg11.dtd" >
<svg xmlns="http://www.w3.org/2000/svg" xmlns:xlink="http://www.w3.org/1999/xlink" version="1.1" viewBox="-10 0 1034 1024">
   <path fill="currentColor"
d="M30 481.5q0 -97.5 38 -186.5t103 -153.5t154 -103t187 -38.5t187 38.5t154 103t103 153.5t38 186.5t-38 187.5t-103 154.5t-154 102t-187 37.5t-187 -37.5t-154 -102t-103 -154.5t-38 -187.5zM237 221q-4 -4 -10.5 -4t-11 4.5t-4.5 10.5v32.5v64.5v32q0 6 4.5 11t10.5 5
h129q6 0 11 -5t5 -11t-5 -10l-32 -32q72 -79 178 -79q86 0 152 54.5t84 136.5q3 15 15 25.5t29 10.5q18 0 31.5 -13.5t13.5 -31.5q0 -5 -1 -10q-24 -114 -115 -188t-209 -74q-71 0 -133.5 28t-108.5 77l-8.5 -8.5l-16.5 -16.5zM813 731v-129q0 -6 -4.5 -10t-10.5 -4h-129
q-6 0 -11 4t-5 10t5 11l32 31q-72 79 -178 79q-86 0 -152 -54.5t-84 -136.5q-3 -15 -15 -25.5t-29 -10.5q-18 0 -31.5 13.5t-13.5 31.5q0 5 1 11q24 113 115 187t209 74q71 0 133.5 -27.5t108.5 -77.5l8.5 8.5t16.5 17.5l8 8q4 4 10.5 4t11 -4t4.5 -11zM602 481.5
q0 -37.5 -26.5 -64t-64 -26.5t-63.5 26.5t-26 64t26 64t64 26.5t64 -26.5t26 -64z" />
</svg>
