<?xml version="1.0" standalone="no"?>
<!DOCTYPE svg PUBLIC "-//W3C//DTD SVG 1.1//EN" "http://www.w3.org/Graphics/SVG/1.1/DTD/svg11.dtd" >
<svg xmlns="http://www.w3.org/2000/svg" xmlns:xlink="http://www.w3.org/1999/xlink" version="1.1" viewBox="-10 0 1044 1024">
   <path fill="currentColor"
d="M0 176q0 -46 33 -79.5t79 -33.5h207q56 0 91 45l57 77q5 7 13 7h432q46 0 79 33t33 79v544q0 46 -33 79t-79 33h-568q-19 0 -33.5 -14t-14.5 -34t14.5 -34t33.5 -14h568q6 0 11 -4.5t5 -11.5v-544q0 -7 -4.5 -11.5t-11.5 -4.5h-432q-56 0 -90 -44l-57 -78q-5 -6 -14 -6
h-207q-6 0 -11 4.5t-5 11.5v191q0 20 -14 34.5t-34 14.5t-34 -14t-14 -35v-191zM96 783v65q0 20 -14 34t-34 14t-34 -14t-14 -34v-11v-21v-23.5v-9.5q0 -99 70 -169.5t170 -70.5h2l14 1v-123q0 -7 4.5 -12t11.5 -5q6 0 11 4l184 172q5 4 5 11.5t-5 12.5l-184 171q-7 7 -17 3
t-10 -15v-124h-15h-1q-59 0 -101.5 42.5t-42.5 101.5z" />
</svg>
