<?xml version="1.0" standalone="no"?>
<!DOCTYPE svg PUBLIC "-//W3C//DTD SVG 1.1//EN" "http://www.w3.org/Graphics/SVG/1.1/DTD/svg11.dtd" >
<svg xmlns="http://www.w3.org/2000/svg" xmlns:xlink="http://www.w3.org/1999/xlink" version="1.1" viewBox="-10 0 1034 1024">
   <path fill="currentColor"
d="M224 111v737q0 9 8 14q24 13 24 41q0 20 -14 34t-34 14q-12 0 -24 -6q-26 -15 -41 -41t-15 -56v-737q0 -46 33 -78.5t79 -32.5h358q46 0 79 33l186 186q33 33 33 80v549q0 46 -33 79t-79 33h-32q-19 0 -33 -14t-14 -34t13.5 -34t33.5 -14h32q6 0 11 -4.5t5 -11.5v-549v-1
q0 -6 -4 -11l-187 -187q-5 -4 -11 -4h-34h-66h-34q20 0 34 14t14 34t-14 34t-34 14h-32q-20 0 -34 -14t-14 -34t14 -34t34 -14h-192q-6 0 -11 4.5t-5 10.5zM464 672h32q47 0 79.5 32.5t32.5 79.5v192q0 20 -14 34t-34 14h-160q-20 0 -34 -14t-14 -34v-192q0 -47 33 -79.5
t79 -32.5zM384 336q0 -20 14 -34t34 -14h32q20 0 34 14t14 34t-14 34t-34 14h-32q-20 0 -34 -14t-14 -34zM432 480h32q20 0 34 14t14 34t-14 33.5t-34 13.5h-32q-20 0 -34 -13.5t-14 -33.5t14 -34t34 -14zM512 431q0 -20 14 -33.5t34 -13.5h32q20 0 34 13.5t14 33.5
t-14 34.5t-34 14.5h-32q-20 0 -34 -14.5t-14 -34.5zM560 192h32q20 0 34 14t14 34t-14 34t-34 14h-32q-20 0 -34 -14t-14 -34t14 -34t34 -14zM512 624q0 -20 14 -34.5t34 -14.5h32q20 0 34 14.5t14 34.5t-14 34t-34 14h-32q-20 0 -34 -14t-14 -34zM449 784v144h63v-144
q0 -7 -4.5 -11.5t-11.5 -4.5h-32q-6 0 -10.5 4.5t-4.5 11.5z" />
</svg>
