<?xml version="1.0" standalone="no"?>
<!DOCTYPE svg PUBLIC "-//W3C//DTD SVG 1.1//EN" "http://www.w3.org/Graphics/SVG/1.1/DTD/svg11.dtd" >
<svg xmlns="http://www.w3.org/2000/svg" xmlns:xlink="http://www.w3.org/1999/xlink" version="1.1" viewBox="-10 0 1034 1024">
   <path fill="currentColor"
d="M63 111q0 -46 33.5 -78.5t79.5 -32.5h486q46 0 78 33l187 186q34 33 34 80v613q0 46 -33.5 79t-79.5 33h-672q-46 0 -79.5 -33t-33.5 -79v-801zM176 96q-7 0 -11.5 4.5t-4.5 10.5v801q0 6 4.5 11t11.5 5h672q7 0 11.5 -5t4.5 -11v-613v-1q0 -6 -5 -11l-186 -187
q-5 -4 -11 -4h-121.5h-243.5h-121zM512 208q19 0 33.5 14t14.5 34v96h96q19 0 34 14t15 34t-14.5 34t-34.5 14h-96v96q0 20 -14.5 34t-33.5 14t-33.5 -14t-14.5 -34v-96h-96q-19 0 -34 -14t-15 -34t14.5 -34t34.5 -14h96v-96q0 -19 14.5 -33.5t33.5 -14.5zM319 720
q0 -20 14.5 -34t34.5 -14h288q19 0 34 14t15 34t-14.5 34t-34.5 14h-288q-19 0 -34 -14t-15 -34z" />
</svg>
