<?xml version="1.0" standalone="no"?>
<!DOCTYPE svg PUBLIC "-//W3C//DTD SVG 1.1//EN" "http://www.w3.org/Graphics/SVG/1.1/DTD/svg11.dtd" >
<svg xmlns="http://www.w3.org/2000/svg" xmlns:xlink="http://www.w3.org/1999/xlink" version="1.1" viewBox="-10 0 1034 1024">
   <path fill="currentColor"
d="M128 111q0 -46 33 -78.5t79 -32.5h422q46 0 78 33l187 186q34 33 34 80v613q0 46 -33.5 79t-79.5 33h-608q-46 0 -79 -33t-33 -79v-801zM240 96q-6 0 -11 4.5t-5 10.5v801q0 6 4.5 11t11.5 5h608q7 0 11.5 -5t4.5 -11v-528h-176q-46 0 -79.5 -33t-33.5 -79v-176h-335z
M672 100v172q0 6 4.5 11t11.5 5h172l-1 -1l-186 -187h-1z" />
</svg>
