<?xml version="1.0" standalone="no"?>
<!DOCTYPE svg PUBLIC "-//W3C//DTD SVG 1.1//EN" "http://www.w3.org/Graphics/SVG/1.1/DTD/svg11.dtd" >
<svg xmlns="http://www.w3.org/2000/svg" xmlns:xlink="http://www.w3.org/1999/xlink" version="1.1" viewBox="-10 0 1044 1024">
   <path fill="currentColor"
d="M256 111q0 -46 33 -78.5t79 -32.5h357q47 0 80 33l186 186q33 33 33 80v549q0 46 -33 79t-79 33h-576q-19 0 -33.5 -14t-14.5 -34t14 -34t34 -14h576q6 0 11 -4.5t5 -11.5v-464h-176q-46 0 -79 -33t-33 -79v-176h-272q-6 0 -11 4.5t-5 10.5v128q0 20 -14 34.5t-34 14.5
t-34 -14t-14 -35v-128zM0 495q0 -46 33 -78.5t79 -32.5h96q46 0 78.5 32.5t32.5 78.5v161q0 46 -32.5 79t-78.5 33h-96q-46 0 -79 -33t-33 -79v-161zM432 384h96q19 0 33 13.5t14 34.5v240h49q20 0 34 14t14 34t-14 34t-34 14h-192q-20 0 -34 -14t-14 -34t14 -34t34 -14h48
v-192h-48q-20 0 -34 -14.5t-14 -34.5t14 -33.5t34 -13.5zM112 480q-6 0 -11 4.5t-5 10.5v161q0 6 4.5 11t11.5 5h96q7 0 11.5 -5t4.5 -11v-161q0 -6 -4.5 -10.5t-11.5 -4.5h-96zM736 100v172q0 6 4.5 11t11.5 5h172v-1l-187 -187h-1z" />
</svg>
