<?xml version="1.0" standalone="no"?>
<!DOCTYPE svg PUBLIC "-//W3C//DTD SVG 1.1//EN" "http://www.w3.org/Graphics/SVG/1.1/DTD/svg11.dtd" >
<svg xmlns="http://www.w3.org/2000/svg" xmlns:xlink="http://www.w3.org/1999/xlink" version="1.1" viewBox="-10 0 1044 1024">
   <path fill="currentColor"
d="M256 111q0 -46 33 -78.5t79 -32.5h357q47 0 80 33l186 186q33 33 33 80v549q0 46 -33 79t-79 33h-576q-19 0 -33.5 -14t-14.5 -34t14 -34t34 -14h576q6 0 11 -4.5t5 -11.5v-464h-176q-46 0 -79 -33t-33 -79v-176h-272q-6 0 -11 4.5t-5 10.5v161q0 19 -14 33t-34 14
t-34 -13.5t-14 -33.5v-161zM366 430q14 -14 34 -14t34 14l32 31.5t63 64.5l33 32q13 14 13 34t-13 33l-32 32.5t-64 64.5l-32 31q-14 15 -36 16q-16 0 -29 -10.5t-17 -25.5q-1 -6 -1 -12q0 -20 16 -35l93 -94l-93 -95q-14 -13 -15 -33v-1q0 -19 14 -33zM210 497l-94 95
l94 94q13 14 13 33t-14 33.5t-34 14.5q-19 0 -33 -14l-32 -31.5t-64 -63.5l-32 -33q-14 -13 -14 -33t14 -34l32 -32t65 -64l31 -32q13 -13 33 -13q19 0 33.5 14t14.5 34q0 19 -13 32zM736 100v172q0 6 4.5 11t11.5 5h172v-1l-187 -187h-1z" />
</svg>
