<?xml version="1.0" standalone="no"?>
<!DOCTYPE svg PUBLIC "-//W3C//DTD SVG 1.1//EN" "http://www.w3.org/Graphics/SVG/1.1/DTD/svg11.dtd" >
<svg xmlns="http://www.w3.org/2000/svg" xmlns:xlink="http://www.w3.org/1999/xlink" version="1.1" viewBox="-10 0 1034 1024">
   <path fill="currentColor"
d="M128 111q0 -46 33 -78.5t79 -32.5h422q46 0 78 33l187 186q34 33 34 80v613q0 46 -33.5 79t-79.5 33h-224q-19 0 -34 -14t-15 -34t14.5 -34t34.5 -14h224q7 0 11.5 -5t4.5 -11v-613v-1q0 -6 -5 -11l-186 -187q-5 -4 -11 -4h-105.5h-211.5h-105q-6 0 -11 4.5t-5 10.5v417
q0 19 -14 33t-34 14t-34 -13.5t-14 -33.5v-417zM347 996q-7 8 -17.5 4t-10.5 -15v-154h-271q-20 0 -34 -13.5t-14 -33.5t14 -34t34 -14h271q1 -10 1.5 -26t0.5 -49v-56t-2 -23h2q0 -6 4.5 -11t11 -5t10.5 5l202 202q4 4 4 10.5t-4 11.5z" />
</svg>
