<?xml version="1.0" standalone="no"?>
<!DOCTYPE svg PUBLIC "-//W3C//DTD SVG 1.1//EN" "http://www.w3.org/Graphics/SVG/1.1/DTD/svg11.dtd" >
<svg xmlns="http://www.w3.org/2000/svg" xmlns:xlink="http://www.w3.org/1999/xlink" version="1.1" viewBox="-10 0 1034 1024">
   <path fill="currentColor"
d="M33 96.5q33 -32.5 79 -33.5h56h112h56q56 0 90 45l57 77q5 7 13 7h335q27 0 46 18.5t19 45.5v32h-720q-20 0 -34 14t-14 34t14 34t34 14h766h1q26 0 45 19t19 45v7l-46 393q0 46 -33.5 79t-79.5 33h-736q-46 0 -79 -33t-33 -79v-672q0 -47 33 -79.5z" />
</svg>
