<?xml version="1.0" standalone="no"?>
<!DOCTYPE svg PUBLIC "-//W3C//DTD SVG 1.1//EN" "http://www.w3.org/Graphics/SVG/1.1/DTD/svg11.dtd" >
<svg xmlns="http://www.w3.org/2000/svg" xmlns:xlink="http://www.w3.org/1999/xlink" version="1.1" viewBox="-10 0 1044 1024">
   <path fill="currentColor"
d="M48 192h928q20 0 34 14t14 34t-14 34t-34 14h-928q-20 0 -34 -14t-14 -34t14 -34t34 -14zM193 496q0 -20 13.5 -34t33.5 -14h544q19 0 33 14t14 34t-13.5 34t-33.5 14h-544q-19 0 -33 -14t-14 -34zM384 752q0 -20 14 -34t34 -14h160q20 0 34 14t14 34t-14 34t-34 14h-160
q-20 0 -34 -14t-14 -34z" />
</svg>
