<?xml version="1.0" standalone="no"?>
<!DOCTYPE svg PUBLIC "-//W3C//DTD SVG 1.1//EN" "http://www.w3.org/Graphics/SVG/1.1/DTD/svg11.dtd" >
<svg xmlns="http://www.w3.org/2000/svg" xmlns:xlink="http://www.w3.org/1999/xlink" version="1.1" viewBox="-10 0 1044 1024">
   <path fill="currentColor"
d="M640 512q-27 0 -46 -19t-19 -45t19 -45t46 -19t46 19t19 45t-19 45t-46 19zM256 592h-48q-19 0 -33.5 -14t-14.5 -34t14 -34.5t34 -14.5h48v-95h-48q-19 0 -33.5 -14t-14.5 -34t14 -34t34 -14h48v-80q0 -27 19 -45.5t44 -18.5h481q27 0 45.5 18.5t18.5 45.5v448
q0 27 -19 45.5t-45 18.5h-481q-26 0 -44.5 -19t-18.5 -45v-80zM352 256v51q14 4 23 17t9 28t-8.5 27.5t-23.5 17.5v101q14 5 23 17.5t9 28t-8.5 28.5t-23.5 17v51h416v-384h-416zM816 912v-16h-608v16q0 19 -14 33.5t-34 14.5t-34 -14t-14 -34v-16q-46 0 -79 -33t-33 -79
v-673q0 -46 33 -78.5t79 -32.5h800q46 0 79 32.5t33 78.5v673q0 46 -33 79t-79 33v16q0 19 -14 33.5t-34 14.5t-34 -14.5t-14 -33.5zM112 96q-6 0 -11 4.5t-5 10.5v673q0 6 4.5 11t11.5 5h800q6 0 11 -5t5 -11v-673q0 -6 -4.5 -10.5t-11.5 -4.5h-800z" />
</svg>
