<?xml version="1.0" standalone="no"?>
<!DOCTYPE svg PUBLIC "-//W3C//DTD SVG 1.1//EN" "http://www.w3.org/Graphics/SVG/1.1/DTD/svg11.dtd" >
<svg xmlns="http://www.w3.org/2000/svg" xmlns:xlink="http://www.w3.org/1999/xlink" version="1.1" viewBox="-10 0 1034 1024">
   <path fill="currentColor"
d="M610 48q4 44 16.5 84t26.5 67.5t39.5 60t41.5 49t46 47.5q30 30 45.5 46t38.5 46t34.5 55t20.5 61t9 76q0 110 -57.5 198.5t-152 137t-206.5 48.5t-207 -48.5t-152 -137.5t-57 -198q0 -62 24 -119t67 -91q11 -8 23 -8q7 0 15 4q19 9 29 33q14 39 41 56q24 14 44 14h7
q24 -3 38 -17q15 -16 15 -40t-15 -56q-31 -60 -33 -119v-12q0 -52 18 -93q19 -46 52 -84.5t69 -62.5t71 -36q6 -2 12 -2q11 0 21 8q14 13 16 33zM511.5 928q135.5 0 227.5 -83.5t92 -204.5q0 -34 -6.5 -61.5t-25 -55t-36 -46.5t-51.5 -53l-2 -3q-34 -33 -53 -54t-48 -58.5
t-49 -80t-32 -91.5q-35 28 -55 61q-26 41 -26 86q0 42 23 89q16 34 23 67q2 13 2 28q0 22 -6 44q-9 39 -37 67q-29 30 -71 41q-20 5 -42 5q-20 0 -41 -5q-54 -13 -92 -56q-13 36 -13 75v1q0 122 91.5 205t227 83z" />
</svg>
