<?xml version="1.0" standalone="no"?>
<!DOCTYPE svg PUBLIC "-//W3C//DTD SVG 1.1//EN" "http://www.w3.org/Graphics/SVG/1.1/DTD/svg11.dtd" >
<svg xmlns="http://www.w3.org/2000/svg" xmlns:xlink="http://www.w3.org/1999/xlink" version="1.1" viewBox="-10 0 1034 1024">
   <path fill="currentColor"
d="M512 0q23 0 45 2q35 3 60 25.5t33 55.5l19 70q2 8 13 15q23 10 43 24q7 5 14 5q3 0 5 -1l71 -19q14 -4 29 -4q16 0 35 6q33 10 52 39q27 37 45 78q10 23 10 44q-1 10 -3 20q-6 33 -30 57l-52 52q-6 5 -6 15v3q1 12 1 24.5t-1 24.5v3q0 10 6 16l52 52q24 24 30 56
q2 10 3 21q0 23 -10 44q-18 41 -45 78q-19 29 -52 39q-17 5 -34 5q-15 0 -30 -4l-71 -19q-3 -1 -5 -1q-7 0 -14 5q-20 13 -43 25q-11 6 -13 14l-19 71q-8 33 -33 55.5t-60 25.5q-23 2 -45 2q-23 0 -45 -2q-35 -3 -60 -25.5t-33 -55.5l-19 -71q-2 -8 -13 -14q-23 -10 -43 -25
q-7 -5 -14 -5q-3 0 -5 1l-71 20q-14 4 -29 4q-16 0 -35 -6q-33 -10 -52 -39q-27 -37 -45 -78q-10 -23 -10 -44q1 -10 3 -21q6 -33 30 -56l52 -52q6 -5 6 -16v-3q-1 -12 -1 -24t1 -25v-3q0 -10 -6 -15l-52 -52q-24 -24 -30 -57q-2 -10 -3 -20q0 -23 10 -44q18 -41 45 -78
q19 -29 52 -39q17 -5 34 -5q15 0 30 4l71 18q3 1 5 1q7 0 14 -5q20 -14 43 -24q11 -6 13 -15l19 -70q8 -33 33 -55.5t60 -25.5q22 -2 45 -2zM475 97q-6 1 -8 9l-18 72q-13 50 -65 76q-16 8 -32 18q-33 22 -67 22q-15 0 -31 -4l-70 -20q-3 -1 -5 -1q-5 0 -8 4q-20 30 -36 64
q-1 2 -1 3q0 4 4 8l52 52q34 33 34 82v11v19v18v11q0 49 -34 82l-52 53q-4 4 -4 8q0 2 1 3q15 34 36 63q3 4 8 4q2 0 5 -1l70 -19q15 -4 31 -4q35 0 67 21q15 10 32 19q51 26 65 76l18 71q2 8 8 10q18 1 37 1q18 0 37 -1q6 -1 8 -10l18 -71q13 -50 65 -76q16 -8 32 -19
q32 -21 64 -21h3q15 0 31 4l70 19q3 1 5 1q5 0 8 -4q20 -30 36 -63q1 -2 1 -3q0 -4 -4 -8l-52 -53q-34 -33 -34 -82v-11v-18v-19v-11q0 -49 34 -82l52 -52q4 -4 4 -8q0 -2 -1 -3q-15 -34 -36 -64q-3 -4 -8 -4q-2 0 -5 1l-70 20q-15 4 -31 4q-35 0 -67 -22q-15 -10 -32 -18
q-51 -26 -65 -76l-18 -72q-2 -8 -8 -9q-18 -1 -37 -1t-37 1zM705 512q0 80 -56.5 136t-136.5 56t-136.5 -56t-56.5 -136t56.5 -136.5t136.5 -56.5t136.5 56.5t56.5 136.5zM608 512q0 -40 -28 -68t-68 -28t-68 28t-28 68t28 68t68 28t68 -28t28 -68z" />
</svg>
