<?xml version="1.0" standalone="no"?>
<!DOCTYPE svg PUBLIC "-//W3C//DTD SVG 1.1//EN" "http://www.w3.org/Graphics/SVG/1.1/DTD/svg11.dtd" >
<svg xmlns="http://www.w3.org/2000/svg" xmlns:xlink="http://www.w3.org/1999/xlink" version="1.1" viewBox="-10 0 1044 1024">
   <path fill="currentColor"
d="M128 176q0 -73 51.5 -124.5t124.5 -51.5q96 0 165 79q26 31 43 66q17 -36 43 -66q69 -79 165 -79q73 0 124.5 51.5t51.5 124.5q0 42 -19 80h35q46 0 79 32.5t33 78.5v128q0 34 -17.5 61t-45.5 41v315q0 46 -33.5 79t-79.5 33h-672q-46 0 -79.5 -33t-33.5 -79v-315
q-29 -13 -46 -40.5t-17 -61.5v-128q0 -46 33 -78.5t79 -32.5h35q-19 -38 -19 -80zM464 608h-304v304q0 6 4.5 11t11.5 5h288v-320zM560 608v320h288q7 0 11.5 -5t4.5 -11v-304h-304zM560 352v160h352q6 0 11 -4.5t5 -12.5v-128q0 -6 -4.5 -10.5t-11.5 -4.5h-352zM112 352
q-6 0 -11 4.5t-5 10.5v128q0 7 4.5 12t11.5 5h352v-160h-352zM304 96q-33 0 -56.5 23.5t-23.5 56.5t23.5 56.5t56.5 23.5h148q-20 -74 -57 -115q-39 -45 -91 -45zM572 256h148q33 0 56.5 -23.5t23.5 -56.5t-23.5 -56.5t-56.5 -23.5q-52 0 -91 45q-37 41 -57 115z" />
</svg>
