<?xml version="1.0" standalone="no"?>
<!DOCTYPE svg PUBLIC "-//W3C//DTD SVG 1.1//EN" "http://www.w3.org/Graphics/SVG/1.1/DTD/svg11.dtd" >
<svg xmlns="http://www.w3.org/2000/svg" xmlns:xlink="http://www.w3.org/1999/xlink" version="1.1" viewBox="-10 0 1034 1024">
   <path fill="currentColor"
d="M608 208q0 -59 42 -101.5t102 -42.5t102 42t42 102q0 46 -26.5 83.5t-69.5 52.5v40q0 67 -46.5 113.5t-113.5 46.5h-256q-27 0 -46 18.5t-19 45.5v72q43 15 70 52.5t27 83.5q0 59 -42 101.5t-102 42.5t-102 -42.5t-42 -101.5q0 -46 26.5 -83.5t69.5 -52.5v-336
q-43 -15 -69.5 -52.5t-26.5 -83.5q0 -59 42 -102t102 -43t102 42.5t42 102.5q0 46 -27 83.5t-70 52.5v117q31 -12 65 -13h64h127h65q27 0 46 -19t19 -45v-40q-43 -15 -70 -52.5t-27 -83.5zM224 208q0 20 14 34t34 14t33.5 -14t13.5 -34t-13.5 -34t-33.5 -14t-34 14t-14 34z
M752 160q-20 0 -33.5 14t-13.5 34t13.5 34t33.5 14t34 -14t14 -34t-14 -34t-34 -14zM272 768q-20 0 -34 13.5t-14 33.5t14 34.5t34 14.5t33.5 -14.5t13.5 -34.5t-13.5 -33.5t-33.5 -13.5z" />
</svg>
