<?xml version="1.0" standalone="no"?>
<!DOCTYPE svg PUBLIC "-//W3C//DTD SVG 1.1//EN" "http://www.w3.org/Graphics/SVG/1.1/DTD/svg11.dtd" >
<svg xmlns="http://www.w3.org/2000/svg" xmlns:xlink="http://www.w3.org/1999/xlink" version="1.1" viewBox="-10 0 1034 1024">
   <path fill="currentColor"
d="M208 63h1q58 0 100 43q43 42 43 102q0 46 -26.5 83.5t-69.5 52.5v336q43 15 69.5 52.5t26.5 83.5q0 59 -42.5 101.5t-102 42.5t-102 -42.5t-42.5 -101.5q0 -46 27.5 -83.5t69.5 -52.5v-336q-42 -15 -68.5 -52.5t-26.5 -83.5q0 -59 42 -101.5t101 -43.5zM816.5 960
q-59.5 0 -102 -42.5t-42.5 -101.5t42.5 -101.5t102 -42.5t102 42.5t42.5 101.5t-42.5 101.5t-102 42.5zM160 208q0 20 14 34t34 14t34 -14t14 -34t-14 -34t-34 -14t-34 14t-14 34zM208 768q-20 0 -34 13.5t-14 33.5t14 34.5t34 14.5t34 -14.5t14 -34.5t-14 -33.5t-34 -13.5z
M816 768q-20 0 -34 13.5t-14 33.5t14 34.5t34 14.5t34 -14.5t14 -34.5t-14 -33.5t-34 -13.5zM896 479.5q0 33.5 -23.5 57t-56.5 23.5t-56.5 -23.5t-23.5 -57t23.5 -56.5t56.5 -23t56.5 23t23.5 56.5zM896 207.5q0 32.5 -23.5 56.5t-56.5 24t-56.5 -24t-23.5 -56.5t23.5 -56
t56.5 -23.5t56.5 23.5t23.5 56z" />
</svg>
