<?xml version="1.0" standalone="no"?>
<!DOCTYPE svg PUBLIC "-//W3C//DTD SVG 1.1//EN" "http://www.w3.org/Graphics/SVG/1.1/DTD/svg11.dtd" >
<svg xmlns="http://www.w3.org/2000/svg" xmlns:xlink="http://www.w3.org/1999/xlink" version="1.1" viewBox="-10 0 1034 1024">
   <path fill="currentColor"
d="M612 43q5 -4 12 -4t11.5 4.5t4.5 10.5v26.5v53.5v26h65q66 0 112.5 47t46.5 112v361q42 15 69.5 52.5t27.5 83.5q0 59 -42.5 101.5t-102 42.5t-102 -42.5t-42.5 -101.5q0 -46 26.5 -83.5t69.5 -52.5v-361q0 -26 -19 -44.5t-44 -18.5h-65v105q0 6 -4.5 11.5t-11.5 5.5
t-12 -5l-152 -154q-5 -4 -5 -10.5t5 -12.5zM384 768v-106q0 -6 4.5 -11t11.5 -5t12 5l152 154q5 4 5 10.5t-5 11.5l-152 154q-5 4 -12 4t-11.5 -4.5t-4.5 -10.5v-27v-53v-26h-65q-66 0 -112.5 -47t-46.5 -113v-360q-42 -15 -69.5 -52.5t-27.5 -83.5q0 -59 42.5 -102t102 -43
t102 42.5t42.5 102.5q0 46 -26.5 83.5t-69.5 52.5v360q0 26 19 45t44 19h65zM256 208q0 -20 -14 -34t-34 -14t-34 14t-14 34t14 34t34 14t34 -14t14 -34zM816 768q-20 0 -34 13.5t-14 33.5t14 34.5t34 14.5t34 -14.5t14 -34.5t-14 -33.5t-34 -13.5z" />
</svg>
