<?xml version="1.0" standalone="no"?>
<!DOCTYPE svg PUBLIC "-//W3C//DTD SVG 1.1//EN" "http://www.w3.org/Graphics/SVG/1.1/DTD/svg11.dtd" >
<svg xmlns="http://www.w3.org/2000/svg" xmlns:xlink="http://www.w3.org/1999/xlink" version="1.1" viewBox="-10 0 1034 1024">
   <path fill="currentColor"
d="M96 208q0 -59 42 -101.5t102 -42.5t102 42t42 102q0 46 -26.5 83.5t-69.5 52.5v336q43 15 69.5 52.5t26.5 83.5q0 59 -42 101.5t-102 42.5t-102 -42.5t-42 -101.5q0 -46 27 -83.5t70 -52.5v-336q-43 -15 -70 -52.5t-27 -83.5zM460 196l152 -153q5 -4 12 -4t11.5 4.5
t4.5 10.5v26.5v53.5v26h65q66 0 112.5 47t46.5 112v361q42 15 69.5 52.5t27.5 83.5q0 59 -42.5 101.5t-102 42.5t-102 -42.5t-42.5 -101.5q0 -46 26.5 -83.5t69.5 -52.5v-361q0 -26 -19 -44.5t-44 -18.5h-65v105q0 6 -4.5 11.5t-11.5 5.5t-12 -5l-152 -154q-5 -4 -5 -11
t5 -12zM240 160q-20 0 -33.5 14t-13.5 34t13.5 34t33.5 14t34 -14t14 -34t-14 -34t-34 -14zM240 768q-20 0 -33.5 13.5t-13.5 33.5t13.5 34.5t33.5 14.5t34 -14.5t14 -34.5t-14 -33.5t-34 -13.5zM768 815q0 20 14 34.5t34 14.5t34 -14.5t14 -34.5t-14 -33.5t-34 -13.5
t-34 13.5t-14 33.5z" />
</svg>
