<?xml version="1.0" standalone="no"?>
<!DOCTYPE svg PUBLIC "-//W3C//DTD SVG 1.1//EN" "http://www.w3.org/Graphics/SVG/1.1/DTD/svg11.dtd" >
<svg xmlns="http://www.w3.org/2000/svg" xmlns:xlink="http://www.w3.org/1999/xlink" version="1.1" viewBox="-10 0 1034 1024">
   <path fill="currentColor"
d="M208 63h1q58 0 100 43q43 42 43 102q0 46 -26.5 83.5t-69.5 52.5v336q43 15 69.5 52.5t26.5 83.5q0 59 -42.5 101.5t-102 42.5t-102 -42.5t-42.5 -101.5q0 -46 27.5 -83.5t69.5 -52.5v-336q-42 -15 -68.5 -52.5t-26.5 -83.5q0 -59 42 -101.5t101 -43.5zM816 416
q20 0 34 14t14 34v216q42 15 69.5 52.5t27.5 83.5q0 59 -42.5 101.5t-102 42.5t-102 -42.5t-42.5 -101.5q0 -46 26.5 -83.5t69.5 -52.5v-216q0 -19 14 -33.5t34 -14.5zM686 78q14 -14 34 -14t34 15l15.5 15t31.5 31l15 15l63 -61q13 -15 33 -16q16 0 29.5 10.5t17.5 25.5
l2 12q0 20 -15 35l-62 63l62 61q12 14 12 33q0 20 -13.5 34t-34.5 14q-18 0 -31 -13v0q-1 0 -17 -15q-15 -16 -31 -31l-15 -16l-62 62q-14 15 -35 15q-16 0 -29.5 -9.5t-16.5 -26.5q-2 -6 -2 -12q0 -20 15 -35l63 -61l-63 -63q-14 -14 -14 -34t14 -34zM160 208q0 20 14 34
t34 14t34 -14t14 -34t-14 -34t-34 -14t-34 14t-14 34zM208 768q-20 0 -34 13.5t-14 33.5t14 34.5t34 14.5t34 -14.5t14 -34.5t-14 -33.5t-34 -13.5zM816 768q-20 0 -34 13.5t-14 33.5t14 34.5t34 14.5t34 -14.5t14 -34.5t-14 -33.5t-34 -13.5z" />
</svg>
