<?xml version="1.0" standalone="no"?>
<!DOCTYPE svg PUBLIC "-//W3C//DTD SVG 1.1//EN" "http://www.w3.org/Graphics/SVG/1.1/DTD/svg11.dtd" >
<svg xmlns="http://www.w3.org/2000/svg" xmlns:xlink="http://www.w3.org/1999/xlink" version="1.1" viewBox="-10 0 1034 1024">
   <path fill="currentColor"
d="M349 330q34 68 99 109t144 41h88q15 -43 52.5 -69.5t83.5 -26.5q59 0 102 42t43 102t-42.5 102t-102.5 42q-46 0 -83.5 -27t-52.5 -70h-88q-80 0 -150 -31.5t-123 -88.5v56.5v111.5v57q43 15 70 52.5t27 83.5q0 59 -42 101.5t-102 42.5t-102 -42.5t-42 -101.5
q0 -46 26.5 -83.5t69.5 -52.5v-336q-43 -15 -69.5 -52.5t-26.5 -83.5q0 -59 42 -102t102 -43t102 42.5t42 102.5q0 38 -18 70.5t-49 51.5zM272 864q20 0 33.5 -14.5t13.5 -34.5t-13.5 -33.5t-33.5 -13.5t-34 13.5t-14 33.5t14 34.5t34 14.5zM816 575q20 0 34 -13.5t14 -33.5
t-14 -34t-34 -14t-34 14t-14 34t14 33.5t34 13.5zM319 208q0 -19 -13.5 -33.5t-33.5 -14.5t-34 14t-14 34t14 34t34 14t33.5 -14t13.5 -34z" />
</svg>
