<?xml version="1.0" standalone="no"?>
<!DOCTYPE svg PUBLIC "-//W3C//DTD SVG 1.1//EN" "http://www.w3.org/Graphics/SVG/1.1/DTD/svg11.dtd" >
<svg xmlns="http://www.w3.org/2000/svg" xmlns:xlink="http://www.w3.org/1999/xlink" version="1.1" viewBox="-10 0 1034 1024">
   <path fill="currentColor"
d="M240 288q-33 0 -56.5 -24t-23.5 -56.5t23.5 -56t56.5 -23.5t56 23.5t23 56t-23 56.5t-56 24zM193 495q0 -19 13.5 -33t33.5 -14t34 14t14 33v185q43 15 69.5 52.5t26.5 83.5q0 59 -42 101.5t-102 42.5t-102 -42.5t-42 -101.5q0 -46 27 -83.5t70 -52.5v-185zM240 864
q20 0 34 -14.5t14 -34.5t-14 -33.5t-34 -13.5t-33.5 13.5t-13.5 33.5t13.5 34.5t33.5 14.5zM560 368q0 33 -23.5 56.5t-57 23.5t-56.5 -23.5t-23 -56.5t23 -56.5t56.5 -23.5t57 23.5t23.5 56.5zM928 528q0 60 -42 102t-102 42t-102 -42t-42 -102t42 -102t102 -42t102 42
t42 102zM831 528q0 -20 -13.5 -34t-33.5 -14t-34 14t-14 34t14 33.5t34 13.5t33.5 -13.5t13.5 -33.5z" />
</svg>
