<?xml version="1.0" standalone="no"?>
<!DOCTYPE svg PUBLIC "-//W3C//DTD SVG 1.1//EN" "http://www.w3.org/Graphics/SVG/1.1/DTD/svg11.dtd" >
<svg xmlns="http://www.w3.org/2000/svg" xmlns:xlink="http://www.w3.org/1999/xlink" version="1.1" viewBox="-10 0 1044 1024">
   <path fill="currentColor"
d="M512 0q139 0 257 68.5t186.5 186.5t68.5 257t-68.5 257t-186.5 186.5t-257 68.5t-257 -68.5t-186.5 -186.5t-68.5 -257t68.5 -257t186.5 -186.5t257 -68.5zM370 560q12 143 87 267q25 41 55 78q30 -36 55 -78q75 -124 87 -267h-284zM654 464q-12 -143 -87 -268
q-26 -42 -55 -77q-31 37 -55 77q-75 124 -87 268h284zM273 560h-175q15 125 97.5 221t201.5 131q-11 -17 -22 -36q-90 -149 -102 -316zM98 464h175q12 -167 102 -317q12 -19 22 -36q-120 35 -202 131.5t-97 221.5zM751 560q-12 167 -102 316q-12 19 -22 36
q120 -35 201.5 -131t97.5 -221h-175zM926 464q-15 -125 -97.5 -221.5t-201.5 -131.5q11 17 22 36q89 150 102 317h175z" />
</svg>
