<?xml version="1.0" standalone="no"?>
<!DOCTYPE svg PUBLIC "-//W3C//DTD SVG 1.1//EN" "http://www.w3.org/Graphics/SVG/1.1/DTD/svg11.dtd" >
<svg xmlns="http://www.w3.org/2000/svg" xmlns:xlink="http://www.w3.org/1999/xlink" version="1.1" viewBox="-10 0 1034 1024">
   <path fill="currentColor"
d="M872 151l108 22q9 1 12 10q1 3 1 5q0 6 -5 11l-88 89q-16 16 -39 16h-1v0h-17h-37h-19l-182 183q3 11 3 25q0 40 -28 67.5t-68 27.5t-68 -27.5t-28 -67.5t28 -68t68 -28q12 0 25 3l183 -183v-72q0 -24 16 -40l88 -88q5 -5 12 -5q2 0 5 1q9 3 10 12zM128 511.5
q0 104.5 51.5 192.5t140 140t192.5 52t193 -52t140 -140.5t51 -191.5q0 -54 -14 -107q-3 -7 -3 -15q0 -19 14 -33.5t34 -14.5q17 0 30 10.5t17 27.5q18 65 18 132q0 97 -38.5 186t-102.5 153t-153 102t-186 38t-184.5 -37t-154.5 -103.5t-104 -154t-37 -184.5t38.5 -186.5
t102.5 -153.5t153 -102t186 -38q68 0 132 18q15 5 25 18t10 28q0 20 -14 34t-34 14q-6 0 -13 -2q-52 -14 -106 -14q-104 0 -193 51t-140 139.5t-51 193zM319 512q1 80 57 136t136 56q59 0 109 -33q39 -27 61.5 -69t22.5 -90q0 -9 -3 -23v-6q0 -19 14 -33.5t35 -14.5
q9 0 19 4q26 11 28 39q2 17 2 34q0 120 -84.5 204.5t-203.5 84.5t-203.5 -84.5t-84.5 -204t84.5 -204t203.5 -84.5q19 0 33 2q18 1 31 15t13 32q0 20 -14.5 34t-33.5 14h-6q-11 -2 -23 -2q-80 0 -136 57q-56 56 -57 135v1z" />
</svg>
