<?xml version="1.0" standalone="no"?>
<!DOCTYPE svg PUBLIC "-//W3C//DTD SVG 1.1//EN" "http://www.w3.org/Graphics/SVG/1.1/DTD/svg11.dtd" >
<svg xmlns="http://www.w3.org/2000/svg" xmlns:xlink="http://www.w3.org/1999/xlink" version="1.1" viewBox="-10 0 1034 1024">
   <path fill="currentColor"
d="M640 831q-27 0 -46 -18.5t-19 -45t19 -45t46 -18.5t46 18.5t19 45t-19 45t-46 18.5zM640 575q-27 0 -46 -18.5t-19 -45t19 -45t46 -18.5t46 18.5t19 45t-19 45t-46 18.5zM384 831q-27 0 -46 -18.5t-19 -45t19 -45t46 -18.5t46 18.5t19 45t-19 45t-46 18.5zM705 255.5
q0 26.5 -19 45t-46 18.5t-46 -18.5t-19 -45t19 -45t46 -18.5t46 18.5t19 45zM449 511.5q0 26.5 -19 45t-46 18.5t-46 -18.5t-19 -45t19 -45t46 -18.5t46 18.5t19 45zM384 319q-27 0 -46 -18.5t-19 -45t19 -45t46 -18.5t46 18.5t19 45t-19 45t-46 18.5z" />
</svg>
