<?xml version="1.0" standalone="no"?>
<!DOCTYPE svg PUBLIC "-//W3C//DTD SVG 1.1//EN" "http://www.w3.org/Graphics/SVG/1.1/DTD/svg11.dtd" >
<svg xmlns="http://www.w3.org/2000/svg" xmlns:xlink="http://www.w3.org/1999/xlink" version="1.1" viewBox="-10 0 1044 1024">
   <path fill="currentColor"
d="M489 954l-1 -1q-129 -70 -239 -165q-249 -215 -249 -436q0 -62 23 -116.5t61 -92t87 -59t101 -21.5q73 0 135.5 35t104.5 95q42 -60 104.5 -95t135.5 -35q52 0 101 21.5t87 59t61 92t23 116.5q0 222 -249 436q-102 88 -219 155l-20 10l-1 1q-11 5 -23 5t-23 -5z" />
</svg>
