<?xml version="1.0" standalone="no"?>
<!DOCTYPE svg PUBLIC "-//W3C//DTD SVG 1.1//EN" "http://www.w3.org/Graphics/SVG/1.1/DTD/svg11.dtd" >
<svg xmlns="http://www.w3.org/2000/svg" xmlns:xlink="http://www.w3.org/1999/xlink" version="1.1" viewBox="-10 0 1044 1024">
   <path fill="currentColor"
d="M272 160q-69 0 -122.5 54t-53.5 138q0 178 215 364q94 80 201 141q106 -61 201 -141q215 -185 215 -364q0 -84 -54 -138t-122 -54q-66 0 -119.5 43.5t-74.5 113.5q-4 15 -17 25t-29 10t-29 -9.5t-17 -25.5q-20 -71 -74 -114t-120 -43zM535 954q-11 5 -22.5 5t-23.5 -5
l-1 -1l-20 -10q-117 -67 -219 -155q-249 -215 -249 -436q0 -62 23 -116.5t61 -92t87 -59t101 -21.5q73 0 135.5 35t104.5 95q42 -60 104.5 -95t135.5 -35q52 0 101 21.5t87 59t61 92t23 116.5q0 221 -249 436q-111 95 -239 165z" />
</svg>
