<?xml version="1.0" standalone="no"?>
<!DOCTYPE svg PUBLIC "-//W3C//DTD SVG 1.1//EN" "http://www.w3.org/Graphics/SVG/1.1/DTD/svg11.dtd" >
<svg xmlns="http://www.w3.org/2000/svg" xmlns:xlink="http://www.w3.org/1999/xlink" version="1.1" viewBox="-10 0 1044 1024">
   <path fill="currentColor"
d="M28 123l77 78q72 -93 178.5 -147.5t228.5 -54.5q104 0 199 41t163.5 109.5t109 163t40.5 198.5t-40.5 199t-109 163.5t-163.5 109.5t-199 41q-130 0 -242 -61t-183 -166t-84 -232q-1 -3 -1 -5q0 -20 14.5 -34t33.5 -14q18 0 32 12t16 31q10 103 68 188.5t149.5 135
t196.5 49.5q113 0 208.5 -56t151.5 -152t56 -209t-56 -208.5t-151.5 -151.5t-208.5 -56q-102 0 -191.5 47t-146.5 127l21.5 22t43.5 44l22 21q4 5 4 12t-4.5 11.5t-10.5 4.5h-58.5h-116.5h-59q-7 0 -11.5 -4.5t-4.5 -12.5v-232v-1q0 -6 4.5 -10.5t11.5 -4.5t12 4zM496 256
q20 0 34 13.5t14 34.5v191l130 53q28 12 28 42v2q0 19 -13.5 33t-34.5 14q-8 0 -16 -2l-40 -16.5t-80 -31.5l-40 -17q-13 -5 -21 -17t-8 -27v-224q0 -20 13.5 -34t33.5 -14z" />
</svg>
