<?xml version="1.0" standalone="no"?>
<!DOCTYPE svg PUBLIC "-//W3C//DTD SVG 1.1//EN" "http://www.w3.org/Graphics/SVG/1.1/DTD/svg11.dtd" >
<svg xmlns="http://www.w3.org/2000/svg" xmlns:xlink="http://www.w3.org/1999/xlink" version="1.1" viewBox="-10 0 1034 1024">
   <path fill="currentColor"
d="M442 43q31 -25 70 -25t70 25l84 67l168 134l84 67q43 34 43 87v450q0 46 -33.5 79t-79.5 33h-224q-19 0 -34 -14t-15 -34v-337h-126v337q0 19 -14.5 33.5t-34.5 14.5h-224q-46 0 -79.5 -33t-33.5 -79v-450q0 -53 43 -87zM522 118q-5 -4 -10 -4.5t-10 4.5l-84 67l-168 134
l-84 67q-6 5 -6 12v450q0 7 4.5 11.5t11.5 4.5h176v-336q0 -20 14 -34t34 -14h224q20 0 34 14t14 34v336h176q7 0 11.5 -4.5t4.5 -11.5v-450q0 -7 -6 -12z" />
</svg>
