<?xml version="1.0" standalone="no"?>
<!DOCTYPE svg PUBLIC "-//W3C//DTD SVG 1.1//EN" "http://www.w3.org/Graphics/SVG/1.1/DTD/svg11.dtd" >
<svg xmlns="http://www.w3.org/2000/svg" xmlns:xlink="http://www.w3.org/1999/xlink" version="1.1" viewBox="-10 0 1034 1024">
   <path fill="currentColor"
d="M176 63h672q20 0 34 14.5t14 34.5t-14 34t-34 14h-48v79q0 74 -32.5 137.5t-89.5 106.5l-21 17q-7 4 -7 12t7 12l21 16q57 43 89.5 106.5t32.5 137.5v80h48q20 0 34 14t14 34t-14 34t-34 14h-672q-20 0 -34 -14t-14 -34t14 -34t34 -14h48v-80q0 -74 32.5 -137.5
t89.5 -106.5l21 -16q7 -4 7 -12t-7 -12l-21 -17q-57 -43 -89.5 -106.5t-32.5 -137.5v-79h-48q-20 0 -34 -14t-14 -34t14 -34.5t34 -14.5zM705 160h-386v79q0 49 22.5 93.5t61.5 73.5l22 16q44 34 44 90t-44 90l-22 15q-39 29 -60.5 73t-23.5 94v80h386v-80q-1 -50 -23.5 -94
t-60.5 -73l-22 -15q-44 -34 -44 -90.5t44 -89.5l22 -16q39 -29 60.5 -72.5t23.5 -94.5v-79z" />
</svg>
