<?xml version="1.0" standalone="no"?>
<!DOCTYPE svg PUBLIC "-//W3C//DTD SVG 1.1//EN" "http://www.w3.org/Graphics/SVG/1.1/DTD/svg11.dtd" >
<svg xmlns="http://www.w3.org/2000/svg" xmlns:xlink="http://www.w3.org/1999/xlink" version="1.1" viewBox="-10 0 1044 1024">
   <path fill="currentColor"
d="M0 512q0 -139 68.5 -257t186.5 -186.5t257 -68.5t257 68.5t186.5 186.5t68.5 257v336q0 20 -14 34t-34 14t-34 -14t-14 -34v-336q0 -113 -56 -208.5t-151.5 -151.5t-208.5 -56t-208.5 56t-151.5 151.5t-56 208.5v336q0 20 -14 34t-34 14t-34 -14t-14 -34v-336zM193 432
q0 -46 32.5 -79.5t78.5 -33.5h416q46 0 78.5 33.5t32.5 79.5v96q0 46 -32.5 79t-78.5 33h-416q-46 0 -78.5 -33t-32.5 -79v-96zM286 397.5q-14 13.5 -14 33.5t14 35l24 24t48 47l24 25q14 13 34 13t34 -13l15.5 -16t31.5 -31l15 -15l62 62q13 13 33.5 13t34.5 -13l24 -24
t48 -49l24 -23q15 -14 16 -35q0 -17 -10.5 -30t-26.5 -17q-5 -1 -11 -1q-22 0 -36 15l-62 62l-62 -62q-14 -14 -33.5 -14t-34.5 14l-15.5 15.5t-31.5 30.5l-15 16l-62 -62q-14 -14 -34 -14t-34 13.5zM352 784q0 -20 14 -34t34 -14h224q20 0 34 14t14 34t-14 33.5t-34 13.5
h-224q-20 0 -34 -13.5t-14 -33.5z" />
</svg>
