<?xml version="1.0" standalone="no"?>
<!DOCTYPE svg PUBLIC "-//W3C//DTD SVG 1.1//EN" "http://www.w3.org/Graphics/SVG/1.1/DTD/svg11.dtd" >
<svg xmlns="http://www.w3.org/2000/svg" xmlns:xlink="http://www.w3.org/1999/xlink" version="1.1" viewBox="-10 0 1044 1024">
   <path fill="currentColor"
d="M1024 848q0 46 -33 79t-79 33h-800q-46 0 -79 -33t-33 -79v-672q0 -46 33 -79.5t79 -33.5h800q46 0 79 33.5t33 79.5v672zM112 160q-6 0 -11 4.5t-5 11.5v672q0 7 4.5 11.5t11.5 4.5h60l2 -2l389 -389q33 -33 79 -33q43 0 76 29l52 47.5t106 95.5l52 47v-483
q0 -7 -4.5 -11.5t-11.5 -4.5h-800zM912 864q6 0 11 -4.5t5 -11.5v-59l-275 -249q-5 -4 -11 -4t-11 4l-81 81t-161 162l-81 81h604zM449 384v3q0 53 -38 90.5t-91 37.5t-90 -37.5t-37 -90.5v-3q1 -52 38 -88.5t89 -36.5t89.5 36.5t39.5 88.5zM352 383.5q0 -13.5 -9.5 -22.5
t-22.5 -9t-22.5 9t-9.5 22.5t9.5 23t22.5 9.5t22.5 -9.5t9.5 -23z" />
</svg>
