<?xml version="1.0" standalone="no"?>
<!DOCTYPE svg PUBLIC "-//W3C//DTD SVG 1.1//EN" "http://www.w3.org/Graphics/SVG/1.1/DTD/svg11.dtd" >
<svg xmlns="http://www.w3.org/2000/svg" xmlns:xlink="http://www.w3.org/1999/xlink" version="1.1" viewBox="-10 0 1044 1024">
   <path fill="currentColor"
d="M179 132q13 -31 41 -50t63 -19h458q34 0 62 19t42 50l175 408q4 9 4 20v288q0 46 -33 79t-79 33h-800q-46 0 -79 -33t-33 -79v-288q0 -10 4 -20zM283 160q-11 0 -16 10l-146 342h183q24 0 38 19l82 109h176l82 -109q14 -19 38 -19h183l-146 -342q-4 -10 -16 -10h-458z
M928 608h-184l-81 109q-14 19 -39 19h-224q-25 0 -39 -19l-81 -109h-184v240q0 7 4.5 11.5t11.5 4.5h800q6 0 11 -4.5t5 -11.5v-240z" />
</svg>
