<?xml version="1.0" standalone="no"?>
<!DOCTYPE svg PUBLIC "-//W3C//DTD SVG 1.1//EN" "http://www.w3.org/Graphics/SVG/1.1/DTD/svg11.dtd" >
<svg xmlns="http://www.w3.org/2000/svg" xmlns:xlink="http://www.w3.org/1999/xlink" version="1.1" viewBox="-10 0 1044 1024">
   <path fill="currentColor"
d="M0 512q0 -139 68.5 -257t186.5 -186.5t257 -68.5t257 68.5t186.5 186.5t68.5 257t-68.5 257t-186.5 186.5t-257 68.5t-257 -68.5t-186.5 -186.5t-68.5 -257zM512 96q-113 0 -208.5 56t-151.5 151.5t-56 208t56 208.5t151.5 152t208.5 56t208.5 -56t151.5 -152t56 -208.5
t-56 -208t-151.5 -151.5t-208.5 -56zM416 496q0 -20 14 -34t34 -14h64q19 0 33 14t14 33v177h17q20 0 34 14t14 34t-14 34t-34 14h-128q-19 0 -33.5 -14t-14.5 -34t14 -34t34 -14h16v-128h-16q-19 0 -33.5 -14t-14.5 -34zM512 384q-27 0 -45 -19t-18 -45t18 -45t45 -19
t45 19t18 45t-18 45t-45 19z" />
</svg>
