<?xml version="1.0" standalone="no"?>
<!DOCTYPE svg PUBLIC "-//W3C//DTD SVG 1.1//EN" "http://www.w3.org/Graphics/SVG/1.1/DTD/svg11.dtd" >
<svg xmlns="http://www.w3.org/2000/svg" xmlns:xlink="http://www.w3.org/1999/xlink" version="1.1" viewBox="-10 0 1044 1024">
   <path fill="currentColor"
d="M96 511.5q0 112.5 56 208.5t151.5 152t208.5 56q19 0 33.5 14t14.5 34t-14.5 34t-33.5 14q-139 0 -257 -68.5t-186.5 -186.5t-68.5 -257t68.5 -257t186.5 -186.5t257 -68.5t257 68.5t186.5 186.5t68.5 257q0 19 -14 33.5t-34 14.5t-34 -14.5t-14 -33.5q0 -113 -56 -208.5
t-151.5 -151.5t-208.5 -56t-208.5 56t-151.5 151.5t-56 208zM512 608q-40 0 -68 -28t-28 -68t28 -68t68 -28t68 28t28 68t-28 68t-68 28zM608 720q0 -20 14 -34t34 -14h320q20 0 34 14t14 34t-14 34t-34 14h-320q-20 0 -34 -14t-14 -34zM784 864h192q20 0 34 14t14 34
t-14 34t-34 14h-192q-20 0 -34 -14t-14 -34t14 -34t34 -14z" />
</svg>
