<?xml version="1.0" standalone="no"?>
<!DOCTYPE svg PUBLIC "-//W3C//DTD SVG 1.1//EN" "http://www.w3.org/Graphics/SVG/1.1/DTD/svg11.dtd" >
<svg xmlns="http://www.w3.org/2000/svg" xmlns:xlink="http://www.w3.org/1999/xlink" version="1.1" viewBox="-10 0 1044 1024">
   <path fill="currentColor"
d="M915 745q20 15 21 39q0 16 -10 29q-47 66 -113 114q-12 9 -29 9q-19 0 -33.5 -14.5t-14.5 -33.5q0 -25 21 -39q53 -39 92 -92q14 -20 39 -21q15 0 27 9zM745 108q15 -20 39 -20q16 0 29 10q66 47 114 113q9 12 9 28q0 19 -14.5 34t-33.5 15q-25 0 -39 -21
q-39 -53 -92 -92q-20 -14 -21 -39q0 -16 9 -28zM432 6q40 -6 80 -6t80 6q17 3 29 16.5t12 30.5q0 20 -14.5 34t-33.5 14h-7q-33 -5 -66 -5t-66 5h-5q-19 0 -33.5 -14t-14.5 -34q0 -17 11.5 -30.5t27.5 -16.5zM61 392q17 2 28.5 16t11.5 31v7q-5 33 -5 66t5 65v8
q0 19 -13.5 33.5t-34.5 14.5q-17 0 -30.5 -12t-16.5 -29q-6 -40 -6 -80t6 -80q3 -17 16.5 -29t30.5 -12q4 0 8 1zM963 392q4 -1 8 -1q17 0 30.5 12t16.5 29q6 40 6 80t-6 80q-3 17 -16.5 29t-30.5 12q-20 0 -34 -14.5t-14 -33.5v-8q5 -33 5 -65q0 -33 -5 -66v-7
q0 -17 11.5 -31t28.5 -16zM392 962q2 -17 16 -28.5t31 -11.5h7q33 5 66 6q33 0 66 -6h7q19 0 33.5 14t14.5 35q0 17 -12 30.5t-29 16.5q-40 6 -80 6t-80 -6q-17 -3 -29 -16.5t-12 -30.5q0 -5 1 -9zM109 745q12 -9 27 -9q25 0 39 21q39 53 92 92q17 14 18 37q0 19 -14 33.5
t-33 14.5q-14 0 -27 -9q-66 -47 -114 -112q-9 -12 -9 -29q1 -25 21 -39zM279 108q8 12 8 28q0 25 -20 39q-53 39 -92 92q-14 17 -37 17q-19 0 -33.5 -13.5t-14.5 -33.5q0 -14 8 -26q47 -66 113 -114q12 -9 29 -9q25 0 39 20z" />
</svg>
