<?xml version="1.0" standalone="no"?>
<!DOCTYPE svg PUBLIC "-//W3C//DTD SVG 1.1//EN" "http://www.w3.org/Graphics/SVG/1.1/DTD/svg11.dtd" >
<svg xmlns="http://www.w3.org/2000/svg" xmlns:xlink="http://www.w3.org/1999/xlink" version="1.1" viewBox="-10 0 1044 1024">
   <path fill="currentColor"
d="M580 579q-29 31 -70 31q-40 0 -68 -28t-28 -68q0 -41 30 -70q27 -25 63 -25h3q39 0 67 28t28 67v3q0 35 -25 62zM81 523q15 12 17 32q10 103 67.5 188.5t149.5 135.5t197 50q102 0 191.5 -47.5t146.5 -127.5l-87 -87q-4 -5 -4 -11.5t4.5 -11t10.5 -4.5h234q7 0 11.5 4.5
t4.5 11.5v38.5v75.5v86v33v1q0 6 -4.5 10.5t-11.5 4.5t-12 -4q-4 -5 -12 -13.5t-25 -25.5l-29 -29l-11 -10q-71 93 -177.5 146.5t-229.5 53.5q-130 0 -242 -60.5t-183 -165.5t-84 -232q-1 -2 -1 -5q0 -19 14.5 -33.5t33.5 -14.5q18 0 31 11zM322 142q-89 45 -148 127l87 87
q4 5 4 12t-4.5 11.5t-10.5 4.5h-234q-7 0 -11.5 -4.5t-4.5 -12.5v-38v-75v-86v-33v-1q0 -6 4.5 -10.5t11.5 -4.5t12 4q4 5 12 13t25 25.5t29 28.5l11 11q71 -93 177.5 -147t229.5 -54q130 0 242.5 61t183 166t83.5 232q1 3 1 6q0 19 -14.5 33t-33.5 14q-18 0 -32 -12.5
t-16 -30.5q-10 -103 -68 -189t-149.5 -135t-196.5 -49q-101 0 -190 46z" />
</svg>
