<?xml version="1.0" standalone="no"?>
<!DOCTYPE svg PUBLIC "-//W3C//DTD SVG 1.1//EN" "http://www.w3.org/Graphics/SVG/1.1/DTD/svg11.dtd" >
<svg xmlns="http://www.w3.org/2000/svg" xmlns:xlink="http://www.w3.org/1999/xlink" version="1.1" viewBox="-10 0 1044 1024">
   <path fill="currentColor"
d="M512 575q-40 0 -68 -27.5t-28 -67.5t28 -68t68 -28t68 28t28 68t-28 67.5t-68 27.5zM96 575q-40 0 -68 -27.5t-28 -67.5t28 -68t68 -28t68.5 28t28.5 68t-28.5 67.5t-68.5 27.5zM928 575q-40 0 -68.5 -27.5t-28.5 -67.5t28.5 -68t68.5 -28t68 28t28 68t-28 67.5t-68 27.5
z" />
</svg>
