<?xml version="1.0" standalone="no"?>
<!DOCTYPE svg PUBLIC "-//W3C//DTD SVG 1.1//EN" "http://www.w3.org/Graphics/SVG/1.1/DTD/svg11.dtd" >
<svg xmlns="http://www.w3.org/2000/svg" xmlns:xlink="http://www.w3.org/1999/xlink" version="1.1" viewBox="-10 0 1044 1024">
   <path fill="currentColor"
d="M0 176q0 -73 51.5 -124.5t124.5 -51.5h672q73 0 124.5 51.5t51.5 124.5v672q0 73 -51.5 124.5t-124.5 51.5h-672q-73 0 -124.5 -52t-51.5 -124v-672zM176 96q-33 0 -56.5 23.5t-23.5 56.5v672q0 33 23.5 56.5t56.5 23.5h672q33 0 56.5 -24t23.5 -56v-672
q0 -33 -23.5 -56.5t-56.5 -23.5h-672zM512 256q19 0 33.5 13.5t14.5 34.5v125l108 -63q11 -6 24 -6q19 0 33.5 14t14.5 33q0 29 -24 42l-108 63l108 62q22 13 22 39v2q0 19 -13.5 33.5t-33.5 14.5q-12 0 -23 -6v0q0 -1 -26 -16q-28 -15 -55 -31l-27 -15v125q0 20 -14.5 34
t-33.5 14t-33.5 -14t-14.5 -34v-125l-108 62q-11 6 -24 6q-19 0 -33.5 -13.5t-14.5 -33.5q0 -29 24 -42l108 -62l-108 -63q-24 -13 -24 -40v-2q0 -19 14 -33t34 -14q13 0 24 6v0q0 1 26 15q28 16 55 32l27 16v-125q0 -20 14.5 -34t33.5 -14z" />
</svg>
