<?xml version="1.0" standalone="no"?>
<!DOCTYPE svg PUBLIC "-//W3C//DTD SVG 1.1//EN" "http://www.w3.org/Graphics/SVG/1.1/DTD/svg11.dtd" >
<svg xmlns="http://www.w3.org/2000/svg" xmlns:xlink="http://www.w3.org/1999/xlink" version="1.1" viewBox="-10 0 1043 1024">
   <path fill="currentColor"
d="M672 0q95 0 176 47t128 128.5t47 176.5t-47 176t-128 128t-177 47q-41 0 -81 -9l-60 59q-14 14 -34 15h-12h-24h-11v48q-1 19 -15 34l-33 31q-13 14 -33 15h-12h-24h-13v48q0 19 -13 34l-32 31q-14 14 -34 15h-32h-64h-32q-46 0 -79 -33t-33 -79v-128q0 -20 14 -35
l316 -315q-10 -40 -11 -82q0 -96 48 -177t129 -128t176 -47zM416 352q0 41 13 81q2 7 2 15q0 19 -13 34l-322 322v108q0 6 4.5 11t11.5 5h108l4 -5v-75q0 -19 14 -33.5t34 -14.5h76l4 -4v-76q0 -19 14 -33.5t34 -14.5h76l66 -66q14 -14 33 -14q8 0 16 3q39 13 81 13
q106 0 181 -75t75 -181t-75 -181t-181 -75t-181 75t-75 181zM704 384q-26 0 -45 -19t-19 -45t19 -45t45 -19t45 19t19 45t-19 45t-45 19z" />
</svg>
