<?xml version="1.0" standalone="no"?>
<!DOCTYPE svg PUBLIC "-//W3C//DTD SVG 1.1//EN" "http://www.w3.org/Graphics/SVG/1.1/DTD/svg11.dtd" >
<svg xmlns="http://www.w3.org/2000/svg" xmlns:xlink="http://www.w3.org/1999/xlink" version="1.1" viewBox="-10 0 1034 1024">
   <path fill="currentColor"
d="M512 96q-112 0 -184 69.5t-72 170.5q0 43 16 76t47 71l14 17q30 36 43 54q33 48 40 95v5q0 19 -14 33.5t-34 14.5q-17 0 -30.5 -11t-16.5 -29q-3 -25 -24 -54q-16 -23 -35 -43q-14 -17 -17 -20q-39 -47 -62 -95.5t-23 -113.5q0 -141 101 -238.5t251 -97.5t251 97t101 239
q0 66 -23 113.5t-62 95.5q-6 7 -17 20q-25 29 -35 43q-19 30 -24 54q-3 17 -16 28t-31 11q-19 0 -33.5 -13.5t-14.5 -34.5v-4q7 -47 40 -95q13 -18 43 -54q8 -10 14 -17q32 -38 47.5 -71t15.5 -76q0 -100 -72 -170t-184 -70zM368 768h288q19 0 34 13.5t15 33.5t-14.5 34.5
t-34.5 14.5h-288q-19 0 -34 -14.5t-15 -34.5t15 -33.5t34 -13.5zM384 976q0 -20 14 -34t34 -14h160q20 0 34 14t14 34t-14 34t-34 14h-160q-20 0 -34 -14t-14 -34z" />
</svg>
