<?xml version="1.0" standalone="no"?>
<!DOCTYPE svg PUBLIC "-//W3C//DTD SVG 1.1//EN" "http://www.w3.org/Graphics/SVG/1.1/DTD/svg11.dtd" >
<svg xmlns="http://www.w3.org/2000/svg" xmlns:xlink="http://www.w3.org/1999/xlink" version="1.1" viewBox="-10 0 1034 1024">
   <path fill="currentColor"
d="M498 210l80 -80q66 -67 158 -67t157.5 66t65.5 159t-65 158l-160 160q-66 66 -158.5 66t-157.5 -66q-13 -13 -14 -33q0 -19 14.5 -33.5t34.5 -14.5q19 0 32 13q38 38 91 38t91 -38l39.5 -39.5l79.5 -79.5l40 -40q35 -37 35 -88q0 -53 -37.5 -90.5t-90.5 -37.5
q-51 0 -88 34l-80 80q-13 13 -33 14q-19 0 -33.5 -14.5t-14.5 -34.5q1 -19 14 -32zM197 826.5q37 37.5 90.5 37.5t91.5 -38l20 -20l39 -39l21 -21q13 -13 33 -13q19 0 33.5 14.5t14.5 33.5t-14 33l-20 20l-40 40l-20 20q-66 67 -157 67h-1q-92 -1 -157.5 -67t-65.5 -158.5
t65 -158.5l160 -159q66 -66 158.5 -66t157.5 66q13 13 14 32q0 19 -14.5 33.5t-34.5 14.5q-19 0 -32 -13q-38 -38 -91 -38t-91 38l-39.5 40t-79.5 80l-40 40q-38 38 -38 91t37 90.5z" />
</svg>
