<?xml version="1.0" standalone="no"?>
<!DOCTYPE svg PUBLIC "-//W3C//DTD SVG 1.1//EN" "http://www.w3.org/Graphics/SVG/1.1/DTD/svg11.dtd" >
<svg xmlns="http://www.w3.org/2000/svg" xmlns:xlink="http://www.w3.org/1999/xlink" version="1.1" viewBox="-10 0 1034 1024">
   <path fill="currentColor"
d="M240 128h224q20 0 34 13.5t14 33.5t-14 34.5t-34 14.5h-224q-6 0 -11 4.5t-5 10.5v545q0 6 4.5 11t11.5 5h544q6 0 11 -5t5 -11v-224q0 -20 14 -34t34 -14t34 13.5t14 34.5v224q0 46 -33 79t-79 33h-544q-46 0 -79 -33t-33 -79v-545q0 -46 33 -78.5t79 -32.5zM679 63h265
q6 0 11.5 5.5t5.5 11.5v265q0 7 -5.5 11.5t-12 4.5t-10.5 -5l-99 -98l-240 239q-14 13 -33 14q-19 0 -33.5 -14.5t-14.5 -33.5q0 -18 13 -33l60 -60t121 -120l59 -60l-98 -99q-5 -4 -5 -10.5t4.5 -11.5t11.5 -5v-1z" />
</svg>
