<?xml version="1.0" standalone="no"?>
<!DOCTYPE svg PUBLIC "-//W3C//DTD SVG 1.1//EN" "http://www.w3.org/Graphics/SVG/1.1/DTD/svg11.dtd" >
<svg xmlns="http://www.w3.org/2000/svg" xmlns:xlink="http://www.w3.org/1999/xlink" version="1.1" viewBox="-10 0 1034 1024">
   <path fill="currentColor"
d="M128 160v224h33q13 0 22.5 9t9.5 22.5t-9.5 23t-22.5 9.5h-129q-13 0 -22.5 -9.5t-9.5 -23t9 -22.5t23 -9h33v-172l-19 9q-6 3 -14 3q-12 0 -22 -9.5t-10 -23.5q0 -19 17 -27l65 -33q7 -3 14 -3q13 0 22.5 9.5t9.5 22.5zM59 660q-9 15 -27 16q-13 0 -22.5 -10t-9.5 -23
q0 -8 5 -17v-1q9 -13 23 -24q30 -25 68 -25q44 0 72 31q25 28 25 67q0 22 -7 40.5t-20 34t-22.5 23t-25.5 19.5l-3 2q-32 25 -41 38h86q13 0 23 10t10 23t-10 22.5t-23 9.5h-128q-13 0 -22.5 -9.5t-9.5 -22.5q0 -23 6.5 -42t20 -34.5t22.5 -23.5t26 -20l2 -2
q29 -22 40 -35.5t11 -32.5v-1q0 -13 -8 -24q-8 -9 -24 -9t-27 10q-6 4 -10 10zM319 848q0 -20 14.5 -34t34.5 -14h544q19 0 34 14t15 34t-14.5 34t-34.5 14h-544q-19 0 -34 -14t-15 -34zM319 528q0 -20 14.5 -34t34.5 -14h544q19 0 34 14t15 34t-14.5 33.5t-34.5 13.5h-544
q-19 0 -34 -13.5t-15 -33.5zM319 208q0 -20 14.5 -34t34.5 -14h544q19 0 34 14t15 34t-14.5 34t-34.5 14h-544q-19 0 -34 -14t-15 -34z" />
</svg>
