<?xml version="1.0" standalone="no"?>
<!DOCTYPE svg PUBLIC "-//W3C//DTD SVG 1.1//EN" "http://www.w3.org/Graphics/SVG/1.1/DTD/svg11.dtd" >
<svg xmlns="http://www.w3.org/2000/svg" xmlns:xlink="http://www.w3.org/1999/xlink" version="1.1" viewBox="-10 0 1034 1024">
   <path fill="currentColor"
d="M806 742l-226 227q-28 28 -67 28h-1q-40 -1 -68 -28l-56.5 -57t-113.5 -113l-56 -57q-58 -57 -90 -133.5t-32 -160.5q0 -114 55.5 -209.5t151.5 -151t209 -55.5q85 0 161 32t133.5 89.5t89.5 133.5t32 160.5t-32.5 161t-89.5 133.5zM738 221q-94 -93 -226 -93
t-225.5 93.5t-93.5 226t93 226.5l226 226l226 -226q94 -93 94 -226l1 -1q0 -132 -95 -226zM512 575q-1 1 -3 1q-53 0 -90.5 -37.5t-37.5 -90.5t37.5 -90.5t90.5 -37.5h3q52 1 88.5 38.5t36.5 89.5t-36.5 89t-88.5 38z" />
</svg>
