<?xml version="1.0" standalone="no"?>
<!DOCTYPE svg PUBLIC "-//W3C//DTD SVG 1.1//EN" "http://www.w3.org/Graphics/SVG/1.1/DTD/svg11.dtd" >
<svg xmlns="http://www.w3.org/2000/svg" xmlns:xlink="http://www.w3.org/1999/xlink" version="1.1" viewBox="-10 0 1034 1024">
   <path fill="currentColor"
d="M256 256q0 -105 75.5 -180.5t180.5 -75.5t180.5 75t75.5 181v128h16q46 0 79 32.5t33 78.5v353q0 46 -33 79t-79 33h-544q-46 0 -79 -33t-33 -79v-353q0 -46 33 -78.5t79 -32.5h16v-128zM784 480h-544q-6 0 -11 4.5t-5 10.5v353q0 7 4.5 11.5t11.5 4.5h544q6 0 11 -4.5
t5 -11.5v-353q0 -6 -5 -10.5t-11 -4.5zM672 384v-128q0 -67 -46.5 -113.5t-113.5 -46.5t-113.5 46.5t-46.5 113.5v128h320z" />
</svg>
