<?xml version="1.0" standalone="no"?>
<!DOCTYPE svg PUBLIC "-//W3C//DTD SVG 1.1//EN" "http://www.w3.org/Graphics/SVG/1.1/DTD/svg11.dtd" >
<svg xmlns="http://www.w3.org/2000/svg" xmlns:xlink="http://www.w3.org/1999/xlink" version="1.1" viewBox="-10 0 1044 1024">
   <path fill="currentColor"
d="M193 95q-40 0 -68.5 28t-28.5 68q0 29 18 50q11 14 47 15h490q-11 -31 -11 -64v-1q0 -51 26 -96h-473zM831 95q-39 0 -67 28t-28 68q0 44 42 73q22 14 22 40q0 19 -14 33.5t-34 14.5h-103h-204h-101q-31 65 -114 189q-29 42 -35 55q-48 75 -73.5 131t-25.5 104
q0 40 28.5 68.5t68.5 28.5h473q-26 -44 -26 -96v-1q0 -80 50 -179q29 -56 101 -165l2 -2q70 -105 95 -156q40 -79 40 -138q0 -40 -28 -68t-69 -28zM831 0q80 0 136.5 55.5t56.5 135.5q0 81 -50 181q-29 57 -102 165v1q-71 106 -96 157q-40 79 -40 136q0 40 28.5 68.5
t67.5 28.5t67.5 -28.5t28.5 -68.5q0 -51 -42 -80q-20 -14 -21 -38q0 -19 14 -34t34 -15q13 0 26 9q39 26 62 68t23 91q0 79 -56.5 135.5t-136.5 56.5h-159h-320h-159q-80 0 -136.5 -56.5t-56.5 -136.5q0 -68 30 -137t84 -150q13 -20 40 -61q58 -88 82 -131h-75
q-82 0 -122 -50q-39 -47 -39 -109v-1v-1q0 -79 56.5 -135t136.5 -56h638zM256 672h256q19 0 33.5 14t14.5 34t-14.5 34t-33.5 14h-256q-19 0 -33.5 -14t-14.5 -34t14.5 -34t33.5 -14zM319 528q0 -20 14.5 -34t34.5 -14h256q20 0 34 14t14 34t-14 33.5t-34 13.5h-256
q-19 0 -34 -13.5t-15 -33.5z" />
</svg>
