<?xml version="1.0" standalone="no"?>
<!DOCTYPE svg PUBLIC "-//W3C//DTD SVG 1.1//EN" "http://www.w3.org/Graphics/SVG/1.1/DTD/svg11.dtd" >
<svg xmlns="http://www.w3.org/2000/svg" xmlns:xlink="http://www.w3.org/1999/xlink" version="1.1" viewBox="-10 0 1034 1024">
   <path fill="currentColor"
d="M193 357v-41h144v234q-53 25 -141 25h-7q-189 0 -189 -246q0 -53 9.5 -96.5t31 -78t59 -53.5t89.5 -19q82 0 135 26v43q-40 -16 -68.5 -22.5t-66.5 -6.5q-75 0 -108.5 56t-33.5 151t34 151t108 56q75 0 104 -14v-165h-100zM642 386h1q66 6 89.5 27.5t23.5 63.5t-30.5 70
t-97.5 28q-55 0 -96 -15v-39q40 15 96 15q84 0 84 -58q0 -25 -14.5 -38t-58.5 -17q-65 -5 -88.5 -26.5t-23.5 -58.5q0 -39 29 -66.5t91 -27.5q55 0 92 15v39q-45 -15 -93 -16q-44 0 -60.5 14.5t-16.5 41.5q0 23 14.5 33.5t58.5 14.5zM993 250v34h-98v199q0 55 61 55
q16 0 25 -1v36q-11 2 -29 2q-44 0 -73 -21.5t-29 -65.5v-205h-64v-19l64 -18v-86l45 -13v103h98zM455 248v263q0 16 6 22t20 6v36q-36 0 -52.5 -16t-16.5 -53v-258h43zM465 152.5q0 13.5 -9.5 22.5t-23 9t-22.5 -8.5t-9 -22.5v-1q0 -13 9 -22t22.5 -9t23 9t9.5 22.5z" />
</svg>
