<?xml version="1.0" standalone="no"?>
<!DOCTYPE svg PUBLIC "-//W3C//DTD SVG 1.1//EN" "http://www.w3.org/Graphics/SVG/1.1/DTD/svg11.dtd" >
<svg xmlns="http://www.w3.org/2000/svg" xmlns:xlink="http://www.w3.org/1999/xlink" version="1.1" viewBox="-10 0 1036 1024">
   <path fill="currentColor"
d="M201 167v131q0 2 -2 3q-28 20 -75 20q-25 0 -44.5 -5t-38.5 -18.5t-30 -41.5t-11 -70t9.5 -71t27 -43.5t36.5 -20.5t43 -6q52 0 72 13q2 2 2 3l-10 41q0 4 -3 4h-1q-25 -8 -49 -8q-32 0 -51 17.5t-19 67.5q0 85 59 85l28 -3v-52h-33q-4 0 -5 -4v-42q0 -3 5 -3h86q4 0 4 3
zM1016 220q0 56 -17 78t-52 22q-17 0 -31.5 -4.5t-19.5 -9.5l-6 -4q-1 10 -2 11q-1 2 -3 2h-34q-5 0 -5 -4l1 -253q0 -3 4 -3h48q4 0 4 3v86q18 -12 45 -12q68 0 68 88zM630 55q4 0 4 4v253q0 3 -4 3h-48q-4 0 -4 -3v-108h-75v108q0 3 -4 3h-48q-4 0 -5 -3v-253q0 -4 5 -4
h48q4 0 4 4v93h75v-93q0 -4 4 -4h48zM818 138q4 0 4 4l-1 170q0 3 -3 3h-31q-3 0 -4 -2l-1 -10q-27 18 -57 18q-33 0 -50 -13.5t-17 -49.5v-116q0 -4 4 -4h49q4 0 4 4v108q0 13 4.5 19t16.5 6q8 0 15.5 -2.5t11.5 -4.5l3 -2v-124q0 -4 4 -4h48zM279 138q4 0 4 3v168
q0 6 -7 6h-43q-7 0 -7 -6v-167q0 -4 4 -4h49zM961 224q0 -29 -9 -38q-8 -7 -20 -7h-5q-6 0 -12.5 2t-9.5 4l-3 1v81q11 7 28 8q18 0 24.5 -9.5t6.5 -41.5zM255 61q12 0 21.5 9t9.5 22t-9.5 22.5t-21.5 9.5q-13 0 -22.5 -9.5t-9.5 -22.5t9.5 -22t22.5 -9zM422 274q3 0 3 3v1
v25v9v2q-1 1 -2 1q-10 5 -29 5q-65 0 -65 -58v-2v-75h-25q-4 0 -4 -5v-31q0 -3 3 -4l15 -3l12 -3v-49q0 -3 3 -3h49q3 0 3 3v48h36q4 0 4 4v38q0 5 -4 5h-36v71q0 19 24 19q3 0 7.5 -0.5t5.5 -0.5zM422 274z" />
</svg>
