<?xml version="1.0" standalone="no"?>
<!DOCTYPE svg PUBLIC "-//W3C//DTD SVG 1.1//EN" "http://www.w3.org/Graphics/SVG/1.1/DTD/svg11.dtd" >
<svg xmlns="http://www.w3.org/2000/svg" xmlns:xlink="http://www.w3.org/1999/xlink" version="1.1" viewBox="-10 0 1044 1024">
   <path fill="currentColor"
d="M112 128h800q46 0 79 32.5t33 78.5v545q0 46 -33 79t-79 33h-800q-46 0 -79 -33t-33 -79v-545q0 -46 33 -78.5t79 -32.5zM96 784q0 6 4.5 11t11.5 5h800q6 0 11 -5t5 -11v-412l-391 229q-11 7 -24.5 7t-25.5 -7l-97.5 -57.5t-195.5 -114.5l-98 -57v412zM928 260v-21
q0 -6 -4.5 -10.5t-11.5 -4.5h-800q-6 0 -11 4.5t-5 10.5v21l416 244z" />
</svg>
