<?xml version="1.0" standalone="no"?>
<!DOCTYPE svg PUBLIC "-//W3C//DTD SVG 1.1//EN" "http://www.w3.org/Graphics/SVG/1.1/DTD/svg11.dtd" >
<svg xmlns="http://www.w3.org/2000/svg" xmlns:xlink="http://www.w3.org/1999/xlink" version="1.1" viewBox="-10 0 1044 1024">
   <path fill="currentColor"
d="M512 0q212 0 362 150t150 362q0 167 -97.5 300.5t-251.5 184.5q-17 4 -26 -4t-9 -19q0 -3 0.5 -52t0.5 -90q0 -65 -35 -94q38 -5 68.5 -12.5t62.5 -25.5t53.5 -44.5t35.5 -70.5t14 -100q0 -80 -53 -138q11 -28 12 -58q0 -37 -17 -77q-2 -1 -5.5 -1.5t-16 1t-27.5 5.5
t-39.5 16.5t-52.5 30.5q-61 -17 -128 -17t-128 17q-43 -29 -78 -42q-34 -12 -47 -12h-2l-13 2q-16 40 -17 77q0 31 12 58q-53 58 -54 138q0 56 14 100t35.5 70.5t54 44.5t62.5 25.5t68 12.5q-27 23 -33 69q-14 6 -30 9t-37.5 3t-43.5 -14t-38 -41q-6 -10 -15.5 -20.5
t-27 -21.5t-35.5 -11q-15 0 -21 4.5t-2.5 10t10 10.5t13.5 9q14 8 30.5 32.5t22.5 40.5q23 67 113 67q27 0 59 -7v59v37q0 11 -8.5 18.5t-26.5 4.5q-155 -51 -252.5 -184t-97.5 -301q0 -212 150 -362t362 -150z" />
</svg>
