<?xml version="1.0" standalone="no"?>
<!DOCTYPE svg PUBLIC "-//W3C//DTD SVG 1.1//EN" "http://www.w3.org/Graphics/SVG/1.1/DTD/svg11.dtd" >
<svg xmlns="http://www.w3.org/2000/svg" xmlns:xlink="http://www.w3.org/1999/xlink" version="1.1" viewBox="-10 0 1044 1024">
   <path fill="currentColor"
d="M997 5q27 13 27 43v672q0 20 -14 34t-34 14q-15 0 -28 -9l-1 -1q-13 -8 -27 -16q-45 -25 -94 -41q-154 -54 -346 -60q2 118 32 229q4 16 4 32q0 38 -24 73q-34 49 -95 49h-84q-34 0 -62 -19.5t-39 -52.5q-52 -158 -52 -326v-1.5v-1.5v-2q-46 -18 -84 -56
q-76 -76 -76 -181.5t75.5 -180.5t180.5 -75h176q222 0 394 -62q52 -18 94 -41q13 -7 27 -15l1 -1q12 -9 28 -9q11 0 21 5zM256 224q-67 0 -113.5 46.5t-46.5 113t46.5 113.5t113.5 47h128v-320h-128zM480 545q209 6 378 65q38 14 70 29v-510q-33 15 -70 28q-169 59 -378 66
v322zM384 640h-128q2 150 47 281q1 3 3 4q3 2 7 3h21h43h20q10 0 17 -10q6 -8 6 -17q0 -3 -1 -6q-33 -125 -35 -255z" />
</svg>
