<?xml version="1.0" standalone="no"?>
<!DOCTYPE svg PUBLIC "-//W3C//DTD SVG 1.1//EN" "http://www.w3.org/Graphics/SVG/1.1/DTD/svg11.dtd" >
<svg xmlns="http://www.w3.org/2000/svg" xmlns:xlink="http://www.w3.org/1999/xlink" version="1.1" viewBox="-10 0 1044 1024">
   <path fill="currentColor"
d="M304 151q-94 55 -150 150.5t-56 208.5q0 114 56 209.5t152 151.5t209 56q110 0 205 -55q10 -6 22 -6q20 0 34.5 14.5t14.5 33.5q0 27 -23 41q-119 69 -256 69q-103 0 -198 -41t-163.5 -109t-109.5 -163.5t-41 -198.5q0 -132 63 -247q67 -121 187 -193.5t263 -72.5
q101 0 194.5 39.5t162 106t110 158t44.5 192.5v24.5v48.5v24q0 73 -51.5 124.5t-124.5 51.5q-46 0 -85.5 -22t-63.5 -60q-76 82 -187 82q-106 0 -181 -75t-75 -181q0 -48 17 -94q29 -72 94 -117t145 -45q106 0 181 74.5t75 181.5v20v40v20q0 33 23.5 56.5t56.5 23.5
t56.5 -24t23.5 -56v-88q-2 -112 -58.5 -205.5t-151 -148t-206.5 -54.5t-208 55zM672 511.5q0 -66.5 -46.5 -113t-113.5 -46.5t-113.5 46.5t-46.5 113t46.5 113.5t113.5 47t113.5 -47t46.5 -113.5z" />
</svg>
