<?xml version="1.0" standalone="no"?>
<!DOCTYPE svg PUBLIC "-//W3C//DTD SVG 1.1//EN" "http://www.w3.org/Graphics/SVG/1.1/DTD/svg11.dtd" >
<svg xmlns="http://www.w3.org/2000/svg" xmlns:xlink="http://www.w3.org/1999/xlink" version="1.1" viewBox="-10 0 1044 1024">
   <path fill="currentColor"
d="M512 96q-113 0 -208.5 56t-151.5 151.5t-56 208t56 208.5t151.5 152t208.5 56t209 -56t151.5 -152t55.5 -208q0 -82 -31 -158q-3 -9 -3 -18q0 -19 14 -33.5t33 -14.5q33 0 45 29q38 93 38 195q0 103 -40.5 198t-109 163.5t-163.5 109.5t-199 41t-199 -41t-163.5 -109.5
t-109 -163.5t-40.5 -199t40.5 -198.5t109 -163t163.5 -109t199 -40.5q100 0 195 38q13 6 21 17.5t8 27.5q0 19 -14 33.5t-34 14.5q-9 0 -18 -4q-75 -31 -157 -31h-1zM914 110q14 14 14 34t-15 34l-64.5 65t-129.5 130l-65 65q17 35 18 74q0 67 -46.5 113.5t-113.5 46.5
t-113.5 -47t-46.5 -113.5t46.5 -113t113.5 -46.5q39 0 74 18l260 -260q14 -14 34 -14t34 14zM449 511.5q0 26.5 18 45t45 18.5t45 -18.5t18 -45t-18 -45t-45 -18.5t-45 18.5t-18 45z" />
</svg>
