<?xml version="1.0" standalone="no"?>
<!DOCTYPE svg PUBLIC "-//W3C//DTD SVG 1.1//EN" "http://www.w3.org/Graphics/SVG/1.1/DTD/svg11.dtd" >
<svg xmlns="http://www.w3.org/2000/svg" xmlns:xlink="http://www.w3.org/1999/xlink" version="1.1" viewBox="-10 0 1044 1024">
   <path fill="currentColor"
d="M995 195q29 13 29 44v545q0 19 -14.5 33t-33.5 14t-33 -12l-72 -68t-144 -137l-72 -67q-15 -14 -15 -35t15 -35l288 -272q13 -13 33 -14q10 0 19 4zM0 784v-545q0 -19 14.5 -33t33.5 -14t33 13l72 68l144 136l72 68q15 14 15 34.5t-15 35.5l-288 272q-13 12 -33 12
t-34 -14t-14 -33zM96 351v322l170 -161zM758 512l170 161v-322zM512 256q19 0 33.5 13.5t14.5 34.5v32q0 20 -14.5 34t-33.5 14t-33.5 -14t-14.5 -34v-32q0 -20 14.5 -34t33.5 -14zM560 111v33q0 19 -14.5 33.5t-33.5 14.5t-33.5 -14t-14.5 -34v-33q0 -19 14.5 -33.5
t33.5 -14.5t33.5 14.5t14.5 33.5zM560 495v33q0 19 -14.5 33t-33.5 14t-33.5 -13.5t-14.5 -33.5v-33q0 -19 14.5 -33t33.5 -14t33.5 14t14.5 33zM512 640q19 0 33.5 13.5t14.5 34.5v32q0 20 -14.5 34t-33.5 14t-33.5 -14t-14.5 -34v-32q0 -20 14.5 -34t33.5 -14zM512 831
q19 0 33.5 14.5t14.5 33.5v33q0 19 -14.5 33.5t-33.5 14.5t-33.5 -14t-14.5 -34v-33q0 -19 14.5 -33.5t33.5 -14.5z" />
</svg>
