<?xml version="1.0" standalone="no"?>
<!DOCTYPE svg PUBLIC "-//W3C//DTD SVG 1.1//EN" "http://www.w3.org/Graphics/SVG/1.1/DTD/svg11.dtd" >
<svg xmlns="http://www.w3.org/2000/svg" xmlns:xlink="http://www.w3.org/1999/xlink" version="1.1" viewBox="-10 0 1034 1024">
   <path fill="currentColor"
d="M614.5 102q14.5 -14 33.5 -14q8 0 17 2q131 48 213.5 163t82.5 259q0 91 -36 174t-96 143t-143 95.5t-174 35.5q-143 0 -258.5 -82.5t-163.5 -213.5q-2 -8 -2 -16q0 -19 14 -33.5t34 -14.5q8 0 17 3q57 20 119 20q95 0 176 -47t128.5 -128t47.5 -176q0 -62 -21 -120
q-3 -8 -3 -16q0 -20 14.5 -34zM718 226q2 23 2 46q0 91 -35.5 174t-95.5 143t-142.5 96t-174.5 36q-18 0 -46 -3q49 68 124 107t162 39q95 0 176 -47t128 -128.5t47 -176.5q0 -87 -38.5 -162t-106.5 -124z" />
</svg>
