<?xml version="1.0" standalone="no"?>
<!DOCTYPE svg PUBLIC "-//W3C//DTD SVG 1.1//EN" "http://www.w3.org/Graphics/SVG/1.1/DTD/svg11.dtd" >
<svg xmlns="http://www.w3.org/2000/svg" xmlns:xlink="http://www.w3.org/1999/xlink" version="1.1" viewBox="-10 0 1044 1024">
   <path fill="currentColor"
d="M493 68q9 -4 19 -4t19 4l116.5 52t232.5 104l115 52q29 12 29 43.5t-29 43.5l-164 74v179q0 45 -29.5 80.5t-75.5 57.5q-90 45 -214 46q-27 0 -52 -3q-18 -2 -30.5 -15.5t-12.5 -32.5t13.5 -33.5t34.5 -14.5q2 0 3 1q22 2 44 2q101 0 171 -35q53 -27 53 -53v-136l-205 91
q-9 4 -19 4t-19 -4l-59.5 -26t-118.5 -53l-59 -26v106q30 10 52 33q44 44 44 115v192q0 19 -14 33.5t-34 14.5h-192q-19 0 -34 -14t-15 -34v-192q0 -71 46 -115q22 -23 51 -33v-149l-131 -60q-29 -12 -29 -43t29 -44zM165 319l347 156l346 -156l-346 -154zM160 720v144h96
v-144q0 -31 -16 -47q-12 -13 -31 -14h-1q-18 0 -32 14q-16 16 -16 47z" />
</svg>
