<?xml version="1.0" standalone="no"?>
<!DOCTYPE svg PUBLIC "-//W3C//DTD SVG 1.1//EN" "http://www.w3.org/Graphics/SVG/1.1/DTD/svg11.dtd" >
<svg xmlns="http://www.w3.org/2000/svg" xmlns:xlink="http://www.w3.org/1999/xlink" version="1.1" viewBox="-10 0 1044 1024">
   <path fill="currentColor"
d="M368 480h480q20 0 34 14t14 34t-14 33.5t-34 13.5h-480q-19 0 -34 -13.5t-15 -33.5t15 -34t34 -14zM368 800h480q20 0 34 14t14 34t-14 34t-34 14h-480q-19 0 -34 -14t-15 -34t15 -34t34 -14zM112 160h416q19 0 33 14t14 34t-13.5 34t-33.5 14h-416q-19 0 -34 -14
t-15 -34t15 -34t34 -14zM128 896q-27 0 -46 -19t-19 -45t19 -45t46 -19t46 19t19 45t-19 45t-46 19zM193 511.5q0 26.5 -19 45t-46 18.5t-46 -18.5t-19 -45t19 -45t46 -18.5t46 18.5t19 45zM852 314l-143 -160q-4 -4 -4 -10q0 -7 4.5 -11.5t11.5 -4.5h287q6 0 11 4.5t5 11.5
q0 6 -4 10l-36 40t-73 80l-35 40q-4 6 -11.5 6t-12.5 -6z" />
</svg>
