<?xml version="1.0" standalone="no"?>
<!DOCTYPE svg PUBLIC "-//W3C//DTD SVG 1.1//EN" "http://www.w3.org/Graphics/SVG/1.1/DTD/svg11.dtd" >
<svg xmlns="http://www.w3.org/2000/svg" xmlns:xlink="http://www.w3.org/1999/xlink" version="1.1" viewBox="-10 0 1045 1024">
   <path fill="currentColor"
d="M512 176v672q0 20 -14.5 34t-33.5 14q-17 0 -31 -11l-52.5 -45.5t-106.5 -90.5l-52 -45h-110q-46 0 -79 -33t-33 -79v-160q0 -46 33 -79.5t79 -33.5h110l211 -180q13 -11 31 -11q20 0 34 14t14 34zM722 334l109 110l111 -110q14 -12 33 -13q19 0 33.5 14t14.5 34
q0 18 -13 32l-27.5 28t-54.5 55l-28 28l110 110q15 13 15 35q0 16 -10 29t-26 17q-6 2 -12 2q-20 0 -35 -15l-111 -111l-109 111q-14 15 -35 15q-17 0 -30 -10t-17 -27q-1 -5 -1 -11q0 -22 15 -35l110 -110l-110 -111q-15 -13 -15 -35q0 -16 10 -29t26 -17q6 -2 12 -2
q21 1 35 16zM271 404q-13 11 -31 12h-32h-64h-32q-6 0 -11 4.5t-5 11.5v160q0 7 4.5 11.5t11.5 4.5h128q18 0 31 11l145 124v-463z" />
</svg>
