<?xml version="1.0" standalone="no"?>
<!DOCTYPE svg PUBLIC "-//W3C//DTD SVG 1.1//EN" "http://www.w3.org/Graphics/SVG/1.1/DTD/svg11.dtd" >
<svg xmlns="http://www.w3.org/2000/svg" xmlns:xlink="http://www.w3.org/1999/xlink" version="1.1" viewBox="-10 0 1044 1024">
   <path fill="currentColor"
d="M272 464h480q20 0 34 14t14 33.5t-14 34t-34 14.5h-480q-20 0 -34 -14.5t-14 -34t14 -33.5t34 -14zM1024 512q0 139 -68.5 257t-186.5 186.5t-257 68.5t-257 -68.5t-186.5 -186.5t-68.5 -257t68.5 -257t186.5 -186.5t257 -68.5t257 68.5t186.5 186.5t68.5 257zM928 511.5
q0 -112.5 -56 -208t-151.5 -151.5t-208.5 -56t-208.5 56t-151.5 151.5t-56 208t56 208.5t151.5 152t208.5 56t208.5 -56t151.5 -152t56 -208.5z" />
</svg>
