<?xml version="1.0" standalone="no"?>
<!DOCTYPE svg PUBLIC "-//W3C//DTD SVG 1.1//EN" "http://www.w3.org/Graphics/SVG/1.1/DTD/svg11.dtd" >
<svg xmlns="http://www.w3.org/2000/svg" xmlns:xlink="http://www.w3.org/1999/xlink" version="1.1" viewBox="-10 0 1034 1024">
   <path fill="currentColor"
d="M575 303q0 -20 14.5 -33.5t34.5 -13.5h256q20 0 34 13.5t14 33.5t-15 35l-30 30t-60 61l-30 30q32 8 56 20q79 42 79 129q0 61 -40 103q-35 37 -90 51q-28 7 -58 7q-23 0 -46 -4q-54 -9 -96 -37q-19 -14 -19 -39q0 -19 13.5 -33.5t34.5 -14.5q12 0 23 6q26 17 61 22
q15 3 29 4q18 0 35 -5q28 -7 43 -22q14 -15 15 -38q0 -29 -29 -44q-39 -20 -116 -20q-19 0 -33.5 -14t-14.5 -34t14 -34l110 -110h-140q-19 0 -34 -14.5t-15 -34.5zM346 673h-6q-14 0 -29 7q-18 8 -27 29q-12 29 -44 29q-19 0 -34 -14.5t-15 -33.5q0 -11 6 -22
q24 -50 69 -74q35 -18 72 -19q11 0 22 2q50 7 85 45.5t35 97.5q0 33 -10.5 60.5t-31 49.5t-35 33t-37.5 29q-38 27 -50 36h133q19 0 33 14t14 34t-14 34t-33 14h-209q-19 0 -33 -14t-14 -34q0 -56 41 -103q20 -23 74 -59q42 -29 59 -49t17 -45q0 -42 -38 -47zM358 6
q26 13 26 42v305h45q20 0 34 14t14 34t-13.5 34t-34.5 14h-188q-19 0 -33.5 -14t-14.5 -34t14 -34t34 -14h47v-216l-22 14q-11 8 -25 9q-20 0 -34 -14.5t-14 -34.5q0 -26 20 -40l96 -63q12 -8 27 -8q12 0 22 6z" />
</svg>
