<?xml version="1.0" standalone="no"?>
<!DOCTYPE svg PUBLIC "-//W3C//DTD SVG 1.1//EN" "http://www.w3.org/Graphics/SVG/1.1/DTD/svg11.dtd" >
<svg xmlns="http://www.w3.org/2000/svg" xmlns:xlink="http://www.w3.org/1999/xlink" version="1.1" viewBox="-10 0 1044 1024">
   <path fill="currentColor"
d="M112 1024q-46 0 -79 -33t-33 -79v-801q0 -46 33 -78.5t79 -32.5h544q46 0 79 32.5t33 78.5v801q0 8 -1 16h145q6 0 11 -5t5 -11v-382q0 -9 -7 -13l-68 -45q-22 -14 -22 -40q0 -20 14.5 -34t34.5 -14q15 0 26 8l17 11.5t34 22.5l17 11q50 33 50 93v382q0 46 -33 79t-79 33
h-224q-6 0 -12 -2q-10 2 -20 2h-192q-19 0 -33.5 -14t-14.5 -34v-80h-64v80q0 20 -14 34t-34 14h-192zM96 912q0 6 4.5 11t11.5 5h144v-80q0 -19 14 -33.5t34 -14.5h160q20 0 34 14t14 34v80h144q6 0 11 -5t5 -11v-801q0 -6 -4.5 -10.5t-11.5 -4.5h-544q-6 0 -11 4.5
t-5 10.5v801zM240 384h32q19 0 33 13.5t14 33.5t-13.5 34.5t-33.5 14.5h-32q-19 0 -33 -14.5t-14 -34.5t14 -33.5t33 -13.5zM193 240q0 -20 13.5 -34t33.5 -14h32q19 0 33 14t14 34t-13.5 34t-33.5 14h-32q-19 0 -33 -14t-14 -34zM449 431q0 -20 13.5 -33.5t33.5 -13.5h32
q19 0 33 13.5t14 33.5t-13.5 34.5t-33.5 14.5h-32q-19 0 -33 -14.5t-14 -34.5zM496 192h32q19 0 33 14t14 34t-13.5 34t-33.5 14h-32q-19 0 -33 -14t-14 -34t14 -34t33 -14zM193 624q0 -20 13.5 -34.5t33.5 -14.5h32q19 0 33 14.5t14 34.5t-13.5 34t-33.5 14h-32
q-19 0 -33 -14t-14 -34zM496 575h32q19 0 33 14.5t14 34.5t-13.5 34t-33.5 14h-32q-19 0 -33 -14t-14 -34t14 -34.5t33 -14.5z" />
</svg>
