<?xml version="1.0" standalone="no"?>
<!DOCTYPE svg PUBLIC "-//W3C//DTD SVG 1.1//EN" "http://www.w3.org/Graphics/SVG/1.1/DTD/svg11.dtd" >
<svg xmlns="http://www.w3.org/2000/svg" xmlns:xlink="http://www.w3.org/1999/xlink" version="1.1" viewBox="-10 0 1044 1024">
   <path fill="currentColor"
d="M788 943l76 -79h-208q-20 0 -34 -14.5t-14 -34.5t14 -33.5t34 -13.5h208l-76 -79q-12 -14 -12 -33q0 -20 14 -34t33 -14q22 0 35 14l153 161q13 13 13 32.5t-13 33.5l-38 40l-76 80l-39 39q-13 15 -35 16q-19 0 -33 -14t-14 -34t12 -33zM96 707q0 9 8 14l296 172v-354
l-304 -176v344zM456 108q-3 -2 -8 -2t-8 2l-73 43q-74 43 -149 85l-75 43l306 178l304 -178zM392 24q26 -14 55 -14q31 0 57 14l84 50q84 49 168 97l84 49q27 14 41.5 40.5t14.5 55.5v148q0 20 -14 34t-34 14t-34 -14t-14 -34v-101l-304 176v409q0 27 -18.5 45.5t-45.5 18.5
q-17 0 -33 -9l-85 -49q-86 -49 -172 -100l-87 -50q-25 -14 -40 -40.5t-15 -56.5v-391q0 -30 15 -55.5t40 -40.5z" />
</svg>
