<?xml version="1.0" standalone="no"?>
<!DOCTYPE svg PUBLIC "-//W3C//DTD SVG 1.1//EN" "http://www.w3.org/Graphics/SVG/1.1/DTD/svg11.dtd" >
<svg xmlns="http://www.w3.org/2000/svg" xmlns:xlink="http://www.w3.org/1999/xlink" version="1.1" viewBox="-10 0 1044 1024">
   <path fill="currentColor"
d="M843 689l-75 79h208q20 0 34 13.5t14 33.5t-14 34.5t-34 14.5h-208l75 79q13 13 13 33t-14 34t-34.5 14t-34.5 -16l-151 -159q-13 -13 -14 -33v-1q0 -19 14 -32v0q1 0 37 -40q38 -41 76 -81l38 -40q14 -14 34.5 -14t34.5 14t14 34q0 19 -13 33zM96 707q0 9 8 14l296 172
v-354l-304 -176v344zM456 108q-3 -2 -8 -2t-8 2l-73 43q-74 43 -149 85l-75 43l306 178l304 -178zM392 24q26 -14 55 -14q31 0 57 14l84 50q84 49 168 97l84 49q27 14 41.5 40.5t14.5 55.5v148q0 20 -14 34t-34 14t-34 -14t-14 -34v-101l-304 176v409q0 27 -18.5 45.5
t-45.5 18.5q-17 0 -33 -9l-85 -49q-86 -49 -172 -100l-87 -50q-25 -14 -40 -40.5t-15 -56.5v-391q0 -30 15 -55.5t40 -40.5z" />
</svg>
