<?xml version="1.0" standalone="no"?>
<!DOCTYPE svg PUBLIC "-//W3C//DTD SVG 1.1//EN" "http://www.w3.org/Graphics/SVG/1.1/DTD/svg11.dtd" >
<svg xmlns="http://www.w3.org/2000/svg" xmlns:xlink="http://www.w3.org/1999/xlink" version="1.1" viewBox="-10 0 1034 1024">
   <path fill="currentColor"
d="M460 641q55 -32 104 -73l-26 -27q-27 -27 -54 -53l-26 -26q-42 47 -74 102q46 30 76 77zM769 176q-92 68 -245 216l111 111q145 -145 216 -246q46 -65 58 -107q5 -15 5 -24q0 -8 -4 -13q-3 -3 -10 -3q-9 0 -26 6q-40 13 -105 60zM103 837q-5 45 -6 90q44 -1 89 -7
q54 -6 107 -20q48 -13 64 -31q43 -42 43 -101.5t-42.5 -102t-101.5 -42.5t-101 43q-17 16 -31 65q-15 52 -21 106zM713 98q77 -56 133 -74q30 -10 55 -10q45 0 77 32q33 33 33 79q0 25 -10 53q-17 57 -71 134q-80 113 -242 273q-101 99 -194 147q2 17 2 36q0 99 -70 170
q-35 35 -107 55q-51 14 -121 23q-74 8 -147 8h-4q-19 0 -33 -14t-14 -33v-4q0 -73 8 -147q6 -61 23 -122q22 -72 55 -106q71 -70 170 -70q18 0 37 2q48 -92 148 -190q170 -168 272 -242z" />
</svg>
