<?xml version="1.0" standalone="no"?>
<!DOCTYPE svg PUBLIC "-//W3C//DTD SVG 1.1//EN" "http://www.w3.org/Graphics/SVG/1.1/DTD/svg11.dtd" >
<svg xmlns="http://www.w3.org/2000/svg" xmlns:xlink="http://www.w3.org/1999/xlink" version="1.1" viewBox="-10 0 1034 1024">
   <path fill="currentColor"
d="M781 193q-33 -33 -78 -33q-1 0 -1 1q-47 0 -79 32l-93.5 93.5l-186.5 186.5l-93 93q-56 56 -56 136t56 135q57 57 136 58q79 0 135 -58l351 -350q13 -13 33 -13t34 14t14 34q0 19 -13 33l-351 351q-84 85 -203 85t-204 -85q-85 -84 -85 -204q0 -119 85 -204l373 -372
q61 -61 147 -62q86 0 147 61t61 147t-60 148l-374 372q-38 38 -91 38q-52 0 -90 -38q-38 -37 -38 -90t38 -90l351 -351q13 -12 33 -12q19 0 33.5 13.5t14.5 33.5q0 19 -13 33l-87.5 88t-175.5 175l-89 88q-9 9 -9 22.5t9 22.5t23 10q14 -1 24 -10l93 -93.5t186 -186.5
l93 -93q33 -33 33 -79.5t-33 -79.5z" />
</svg>
