<?xml version="1.0" standalone="no"?>
<!DOCTYPE svg PUBLIC "-//W3C//DTD SVG 1.1//EN" "http://www.w3.org/Graphics/SVG/1.1/DTD/svg11.dtd" >
<svg xmlns="http://www.w3.org/2000/svg" xmlns:xlink="http://www.w3.org/1999/xlink" version="1.1" viewBox="-10 0 1034 1024">
   <path fill="currentColor"
d="M175 304q0 -99 70.5 -170t170 -71t170 71t70.5 170q0 61 -28.5 114t-77.5 86q79 30 138 89q16 16 17 41v114v70v46q0 13 -10 22.5t-23 9.5h-594q-18 -1 -31.5 -15t-13.5 -33v-2q5 -117 73.5 -209.5t175.5 -132.5q-49 -33 -78 -86t-29 -114zM1008 440q0 41 -19.5 76.5
t-52.5 56.5q-8 5 -8 15v37q0 6 -4 12l-24 22q-2 3 -2 6t2 6l24 23q4 4 4 11v15q0 7 -4 11l-24 22q-2 3 -2 6.5t2 5.5l24 23q4 4 4 12v18q0 6 -4 10l-13 14.5t-25 27.5l-14 15q-9 11 -23.5 11t-25.5 -11l-51 -57q-4 -4 -4 -10v-58v-115v-57q0 -9 -8 -15q-33 -22 -52.5 -57
t-19.5 -76q0 -67 46.5 -114t113 -47t113.5 47t47 114zM896 416q0 -20 -14 -34.5t-34 -14.5t-34 14.5t-14 34.5t14 34t34 14t34 -14t14 -34z" />
</svg>
