<?xml version="1.0" standalone="no"?>
<!DOCTYPE svg PUBLIC "-//W3C//DTD SVG 1.1//EN" "http://www.w3.org/Graphics/SVG/1.1/DTD/svg11.dtd" >
<svg xmlns="http://www.w3.org/2000/svg" xmlns:xlink="http://www.w3.org/1999/xlink" version="1.1" viewBox="-10 0 1034 1024">
   <path fill="currentColor"
d="M232 226q-8 4 -8 13v609q0 7 4.5 11.5t11.5 4.5h544q6 0 11 -4.5t5 -11.5v-609q0 -9 -8 -13q-24 -14 -24 -42q0 -19 14 -33.5t34 -14.5q12 0 24 7q27 14 41.5 40.5t14.5 55.5v609q0 46 -33 79t-79 33h-544q-46 0 -79 -33t-33 -79v-609q0 -30 15 -56t41 -40q10 -7 24 -7
q19 0 33.5 14.5t14.5 33.5q0 28 -24 42zM368 63h288q19 0 34 14.5t15 33.5v193q0 19 -14.5 33.5t-34.5 14.5h-288q-19 0 -34 -14.5t-15 -33.5v-193q0 -19 15 -33.5t34 -14.5zM416 256h192v-96h-192v96z" />
</svg>
