<?xml version="1.0" standalone="no"?>
<!DOCTYPE svg PUBLIC "-//W3C//DTD SVG 1.1//EN" "http://www.w3.org/Graphics/SVG/1.1/DTD/svg11.dtd" >
<svg xmlns="http://www.w3.org/2000/svg" xmlns:xlink="http://www.w3.org/1999/xlink" version="1.1" viewBox="-10 0 1034 1024">
   <path fill="currentColor"
d="M705 91q33 -33 79 -33t79 33l17.5 17.5l34.5 34.5l18 18q33 33 33 79.5t-33 78.5l-551 551q-20 20 -49 29l-208 59q-6 2 -13 2q-19 0 -34 -14t-15 -34q0 -7 3 -13l59 -208q8 -29 29 -49zM716 400l-92 -92l-403 402q-2 2 -4 7l-8.5 31t-18.5 63l-8 31l125 -35q4 -2 6 -4z
M796 159q-5 -4 -12 -4.5t-11 4.5l-81 80l92 93l81 -81q4 -4 4 -11t-4 -12z" />
</svg>
