<?xml version="1.0" standalone="no"?>
<!DOCTYPE svg PUBLIC "-//W3C//DTD SVG 1.1//EN" "http://www.w3.org/Graphics/SVG/1.1/DTD/svg11.dtd" >
<svg xmlns="http://www.w3.org/2000/svg" xmlns:xlink="http://www.w3.org/1999/xlink" version="1.1" viewBox="-10 0 1034 1024">
   <path fill="currentColor"
d="M128 352q0 -93 65.5 -158.5t158 -65.5t158 65.5t65.5 158.5q0 96 -69 163q77 37 128.5 106.5t64.5 154.5q1 4 1 8q0 19 -14 33.5t-34 14.5q-17 0 -31 -11.5t-16 -29.5q-15 -92 -87 -153.5t-166.5 -61.5t-166 61.5t-86.5 153.5q-3 17 -16 28.5t-31 11.5q-20 0 -34 -13.5
t-14 -33.5v-8q14 -85 66 -154t129 -107q-71 -67 -71 -163zM705 256q79 0 135 56t56 136q0 74 -50 129q59 29 101.5 79t62.5 114q2 7 2 14q0 19 -14 33.5t-33 14.5q-6 0 -12 -1q-27 -7 -34 -34q-17 -56 -61 -96.5t-101 -54.5q-16 -4 -26.5 -17t-10.5 -29v-23v-1q0 -30 26 -42
q25 -12 39.5 -35t14.5 -52q0 -39 -28.5 -67t-66.5 -28q-20 0 -34.5 -14.5t-14.5 -34.5t14.5 -33.5t34.5 -13.5zM352 224h-3q-53 0 -90.5 37.5t-37.5 90t37.5 90.5t90.5 38h3q52 -1 88.5 -38.5t36.5 -89.5t-36.5 -89.5t-88.5 -38.5z" />
</svg>
