<?xml version="1.0" standalone="no"?>
<!DOCTYPE svg PUBLIC "-//W3C//DTD SVG 1.1//EN" "http://www.w3.org/Graphics/SVG/1.1/DTD/svg11.dtd" >
<svg xmlns="http://www.w3.org/2000/svg" xmlns:xlink="http://www.w3.org/1999/xlink" version="1.1" viewBox="-10 0 1044 1024">
   <path fill="currentColor"
d="M506 547q85 42 138.5 121t58.5 177q1 2 2 3q0 20 -14.5 34t-34.5 14q-19 0 -33 -13.5t-15 -31.5q-6 -101 -79.5 -172t-176 -71t-177 70.5t-79.5 172.5q-1 18 -14.5 31.5t-33.5 13.5t-34 -14t-14 -34v-2q5 -97 59.5 -177t139.5 -122q-71 -67 -71 -163q0 -93 65.5 -158.5
t158 -65.5t158 65.5t65.5 158.5v3q0 95 -69 160zM848 0q20 0 34 13.5t14 34.5v80h80q20 0 34 13.5t14 33.5t-14 34.5t-34 14.5h-80v80q0 19 -14 33.5t-34 14.5t-34 -14.5t-14 -33.5v-80h-80q-19 0 -33.5 -14.5t-14.5 -34.5t14 -33.5t34 -13.5h80v-80q0 -20 14 -34t34 -14z
M352 256h-3q-53 0 -90.5 37.5t-37.5 90.5t37.5 90.5t90.5 37.5h3q52 -1 88.5 -38.5t36.5 -89.5t-36.5 -89.5t-88.5 -38.5z" />
</svg>
