<?xml version="1.0" standalone="no"?>
<!DOCTYPE svg PUBLIC "-//W3C//DTD SVG 1.1//EN" "http://www.w3.org/Graphics/SVG/1.1/DTD/svg11.dtd" >
<svg xmlns="http://www.w3.org/2000/svg" xmlns:xlink="http://www.w3.org/1999/xlink" version="1.1" viewBox="-10 0 1034 1024">
   <path fill="currentColor"
d="M676 517q95 44 155 132.5t65 196.5v3q0 20 -14.5 34t-33.5 14t-33.5 -14t-14.5 -33q-5 -115 -88.5 -194.5t-199.5 -79.5t-199.5 79.5t-88.5 194.5q-1 19 -14.5 32t-33.5 13q-19 0 -33.5 -14.5t-14.5 -33.5v-1q5 -108 65 -196.5t155 -132.5q-43 -37 -67.5 -88t-24.5 -109
q0 -106 75 -181t180.5 -75t181 75t75.5 181q0 57 -24.5 109t-67.5 88zM672 320q0 -66 -46.5 -113t-113.5 -47t-113.5 47t-46.5 113t46.5 113t113.5 47t113.5 -47t46.5 -113z" />
</svg>
