<?xml version="1.0" standalone="no"?>
<!DOCTYPE svg PUBLIC "-//W3C//DTD SVG 1.1//EN" "http://www.w3.org/Graphics/SVG/1.1/DTD/svg11.dtd" >
<svg xmlns="http://www.w3.org/2000/svg" xmlns:xlink="http://www.w3.org/1999/xlink" version="1.1" viewBox="-10 0 1034 1024">
   <path fill="currentColor"
d="M478 222q10 -10 16 -23l48 -104q25 -53 83 -63q11 -2 21 -3q44 0 77 34l238 238q33 32 33 74v3q0 10 -2 21q-10 58 -63 83l-105 48q-12 5 -22 16q-14 14 -33.5 14t-34 -14.5t-14.5 -34t14 -33.5q22 -23 50 -35l105 -48q7 -4 9 -12v-3q0 -6 -5 -12l-238 -237q-5 -5 -11 -5
q-1 0 -3 1q-8 1 -12 8l-48 104q-12 29 -35 51q-14 14 -33.5 14t-34 -14.5t-14.5 -34t14 -33.5zM105 38l881 880q14 13 14 33.5t-14 34.5t-34 14t-33 -14l-212 -212l-10 38q-15 63 -79 81q-17 5 -33 5q-43 0 -76 -33l-141 -141l-254 254q-13 14 -33.5 14t-34.5 -14.5
t-14 -34.5t14 -33l254 -254l-141 -141q-33 -33 -33 -76q0 -16 5 -34q17 -63 81 -79l38 -9l-212 -212q-14 -13 -14 -33t14 -35q14 -14 33 -14h1q20 1 33 15zM401 622l176 174q5 5 12 5h4q9 -2 11 -12l23 -95l-297 -297l-96 23q-9 2 -12 11v5q0 6 5 11z" />
</svg>
