<?xml version="1.0" standalone="no"?>
<!DOCTYPE svg PUBLIC "-//W3C//DTD SVG 1.1//EN" "http://www.w3.org/Graphics/SVG/1.1/DTD/svg11.dtd" >
<svg xmlns="http://www.w3.org/2000/svg" xmlns:xlink="http://www.w3.org/1999/xlink" version="1.1" viewBox="-10 0 1034 1024">
   <path fill="currentColor"
d="M723 63l238 238q33 32 33 76v3q0 34 -18 61.5t-47 40.5l-85 39q-41 19 -70 54t-40 79l-37 158q-11 40 -44 64q-30 22 -64 22h-9q-41 -3 -71 -33l-141 -141l-254 254q-13 14 -33.5 14t-34.5 -14.5t-14 -34.5t14 -33l63.5 -63.5t127.5 -126.5l63 -64l-141 -141
q-30 -30 -33 -71v-9q1 -34 21 -65q25 -33 65 -44l158 -36q44 -11 79 -40t54 -70l39 -85q13 -30 40.5 -48t61.5 -18q46 0 79 34zM402 622l175 174q5 5 11 6q13 0 16 -13l9.5 -39.5t18.5 -77.5l9 -39q16 -67 58.5 -119t104.5 -80l85 -39q9 -5 9 -15q0 -6 -5 -12l-59.5 -59
t-118.5 -119l-60 -59q-5 -5 -11 -5q-10 0 -15 9l-39 85q-28 61 -80 103.5t-119 59.5l-157 37q-12 3 -12 16q0 6 5 11l174 174z" />
</svg>
