<?xml version="1.0" standalone="no"?>
<!DOCTYPE svg PUBLIC "-//W3C//DTD SVG 1.1//EN" "http://www.w3.org/Graphics/SVG/1.1/DTD/svg11.dtd" >
<svg xmlns="http://www.w3.org/2000/svg" xmlns:xlink="http://www.w3.org/1999/xlink" version="1.1" viewBox="-10 0 1044 1024">
   <path fill="currentColor"
d="M256 512h-96q-27 0 -45.5 19t-18.5 44v337q0 19 -14 33.5t-34 14.5t-34 -14t-14 -34v-337q0 -66 47 -112.5t113 -46.5h96v-87q0 -43 28 -75t70 -37l45 -5.5t90 -10.5l47 -7l48 -58q34 -40 86 -40h50q46 0 78.5 33t32.5 79v48h145q20 0 34 13.5t14 33.5t-14 34.5t-34 14.5
h-145v256h145q20 0 34 14t14 34t-14 34t-34 14h-145v47q0 47 -32.5 80t-78.5 33h-50q-52 0 -86 -41l-48 -58l-182 -23q-42 -5 -70 -36.5t-28 -73.5v-30.5v-60.5v-29zM657 197l-60 73q-12 15 -31 18l-50 6l-100 12l-50 6q-13 2 -14 17v75.5v151.5v76q0 13 14 15l200 26
q18 2 31 16l15.5 18.5t29.5 36.5l15 18q5 6 13 6h50q7 0 11.5 -4.5t4.5 -12.5v-543q0 -6 -4.5 -11t-11.5 -5h-50q-8 0 -13 5z" />
</svg>
