<?xml version="1.0" standalone="no"?>
<!DOCTYPE svg PUBLIC "-//W3C//DTD SVG 1.1//EN" "http://www.w3.org/Graphics/SVG/1.1/DTD/svg11.dtd" >
<svg xmlns="http://www.w3.org/2000/svg" xmlns:xlink="http://www.w3.org/1999/xlink" version="1.1" viewBox="-10 0 1044 1024">
   <path fill="currentColor"
d="M0 111q0 -46 33 -78.5t79 -32.5h800q46 0 79 32.5t33 78.5v801q0 46 -33 79t-79 33h-544q-19 0 -34 -14t-15 -34t14.5 -34t34.5 -14h544q6 0 11 -5t5 -11v-496h-832v112q0 19 -14 33t-34 14t-34 -13.5t-14 -33.5v-417zM416 319h512v-208q0 -6 -4.5 -10.5t-11.5 -4.5h-496
v223zM96 319h223v-223h-207q-6 0 -11 4.5t-5 10.5v208zM96 879v65q0 19 -14 33.5t-34 14.5t-34 -14.5t-14 -33.5v-10.5v-21v-24v-9.5q0 -99 70 -169.5t170 -70.5h2h14v-122q0 -7 4.5 -11.5t11.5 -4.5q6 0 11 4l184 171q5 5 5 12t-5 11l-184 172q-7 7 -17 2.5t-10 -14.5v-124
h-15h-1q-59 0 -101.5 42t-42.5 102z" />
</svg>
