<?xml version="1.0" standalone="no"?>
<!DOCTYPE svg PUBLIC "-//W3C//DTD SVG 1.1//EN" "http://www.w3.org/Graphics/SVG/1.1/DTD/svg11.dtd" >
<svg xmlns="http://www.w3.org/2000/svg" xmlns:xlink="http://www.w3.org/1999/xlink" version="1.1" viewBox="-10 0 1044 1024">
   <path fill="currentColor"
d="M96 111v101q0 19 -14 33.5t-34 14.5t-34 -14.5t-14 -33.5v-101q0 -46 33 -78.5t79 -32.5h100q19 0 33.5 13.5t14.5 33.5t-14.5 34.5t-33.5 14.5h-100q-6 0 -11 4.5t-5 10.5zM412 0h200q19 0 33 13.5t14 33.5t-13.5 34.5t-33.5 14.5h-200q-19 0 -33 -14.5t-14 -34.5
t14 -33.5t33 -13.5zM812 0h100q46 0 79 32.5t33 78.5v101q0 19 -14 33.5t-34 14.5t-34 -14.5t-14 -33.5v-101q0 -6 -4.5 -10.5t-11.5 -4.5h-100q-19 0 -33.5 -14.5t-14.5 -34.5t14.5 -33.5t33.5 -13.5zM96 411v201q0 19 -14 33t-34 14t-34 -13.5t-14 -33.5v-201
q0 -19 14 -33t34 -14t34 14t14 33zM1024 411v201q0 19 -14 33t-34 14t-34 -13.5t-14 -33.5v-201q0 -19 14 -33t34 -14t34 14t14 33zM96 812v100q0 6 4.5 11t11.5 5h100q19 0 33.5 14t14.5 34t-14.5 34t-33.5 14h-100q-46 0 -79 -33t-33 -79v-100q0 -19 14 -33.5t34 -14.5
t34 14.5t14 33.5zM1024 812v100q0 46 -33 79t-79 33h-100q-19 0 -33.5 -14t-14.5 -34t14.5 -34t33.5 -14h100q6 0 11 -5t5 -11v-100q0 -19 14 -33.5t34 -14.5t34 14.5t14 33.5zM412 928h200q19 0 33 14t14 34t-13.5 34t-33.5 14h-200q-19 0 -33 -14t-14 -34t14 -34t33 -14z
M416 192v64q0 19 -14 33.5t-34 14.5t-34.5 -14.5t-14.5 -33.5v-64q0 -20 14.5 -34t34.5 -14t34 14t14 34zM144 368q0 -20 14 -34.5t35 -14.5h63q19 0 33.5 14.5t14.5 34.5t-14.5 34t-33.5 14h-63q-20 0 -34.5 -14t-14.5 -34zM432 368q0 -20 14 -34.5t34 -14.5h64
q20 0 34 14.5t14 34.5t-14 34t-34 14h-64q-20 0 -34 -14t-14 -34zM368 432q20 0 34 14t14 34v64q0 20 -14 34t-34 14t-34.5 -14t-14.5 -34v-64q0 -20 14.5 -34t34.5 -14zM416 688v160q0 20 -14 34t-34 14t-34.5 -14t-14.5 -34v-160q0 -20 14.5 -34t34.5 -14t34 14t14 34z
M640 368q0 -20 14 -34.5t34 -14.5h160q20 0 34 14.5t14 34.5t-14 34t-34 14h-160q-20 0 -34 -14t-14 -34z" />
</svg>
