<?xml version="1.0" standalone="no"?>
<!DOCTYPE svg PUBLIC "-//W3C//DTD SVG 1.1//EN" "http://www.w3.org/Graphics/SVG/1.1/DTD/svg11.dtd" >
<svg xmlns="http://www.w3.org/2000/svg" xmlns:xlink="http://www.w3.org/1999/xlink" version="1.1" viewBox="-10 0 1044 1024">
   <path fill="currentColor"
d="M384 128q14 0 26.5 8t17.5 21l212 530l83 -209q6 -13 18 -21.5t27 -8.5h208q20 0 34 14t14 34t-14 34t-34 14h-175l-117 289q-5 13 -17 22t-27 9t-27 -8.5t-17 -22.5l-212 -528l-83 209q-6 13 -18 21.5t-27 8.5h-208q-20 0 -34 -14t-14 -34t14 -34t34 -14h175l117 -291
q5 -13 17 -21t27 -8z" />
</svg>
