<?xml version="1.0" standalone="no"?>
<!DOCTYPE svg PUBLIC "-//W3C//DTD SVG 1.1//EN" "http://www.w3.org/Graphics/SVG/1.1/DTD/svg11.dtd" >
<svg xmlns="http://www.w3.org/2000/svg" xmlns:xlink="http://www.w3.org/1999/xlink" version="1.1" viewBox="-10 0 1044 1024">
   <path fill="currentColor"
d="M0 512q0 -139 68.5 -257t186.5 -186.5t257 -68.5t257 68.5t186.5 186.5t68.5 257t-68.5 257t-186.5 186.5t-257 68.5t-257 -68.5t-186.5 -186.5t-68.5 -257zM512 96q-113 0 -208.5 56t-151.5 151.5t-56 208t56 208.5t151.5 152t208.5 56t208.5 -56t151.5 -152t56 -208.5
t-56 -208t-151.5 -151.5t-208.5 -56zM442 389h1q-13 27 -43 27q-20 0 -34 -14t-14 -35q0 -11 5 -21q19 -39 55 -63q41 -27 96 -27h4h1q57 0 103 34q55 41 56 110q0 42 -21 73q-15 24 -45 43q-4 3 -19 12h-1q-8 5 -17 10q-10 6 -17 17q-14 20 -40 20q-19 0 -33.5 -13.5
t-14.5 -34.5q0 -14 8 -25q17 -26 44 -43q10 -6 21 -13q13 -8 16 -10q11 -6 18 -16q4 -7 4 -20l2 -2q0 -20 -18 -32q-20 -14 -46 -14h-1q-30 0 -47 11q-15 11 -23 26zM575 704q0 26 -18 45t-45 19t-45 -19t-18 -45t18 -45t45 -19t45 19t18 45z" />
</svg>
