<?xml version="1.0" standalone="no"?>
<!DOCTYPE svg PUBLIC "-//W3C//DTD SVG 1.1//EN" "http://www.w3.org/Graphics/SVG/1.1/DTD/svg11.dtd" >
<svg xmlns="http://www.w3.org/2000/svg" xmlns:xlink="http://www.w3.org/1999/xlink" version="1.1" viewBox="-10 0 1034 1024">
   <path fill="currentColor"
d="M319 344v56q0 19 14.5 33.5t34.5 14.5h288q19 0 34 -14t15 -34v-56q-43 -15 -70 -52.5t-27 -83.5q0 -59 42 -102t102 -43t102 42.5t42 102.5q0 46 -26.5 83.5t-69.5 52.5v56q0 59 -42 101.5t-102 42.5h-96v136q42 15 69 52.5t27 83.5q0 59 -42.5 101.5t-101.5 42.5
t-101.5 -42.5t-42.5 -101.5q0 -46 27 -83.5t69 -52.5v-136h-96q-59 0 -101.5 -42t-42.5 -102v-56q-43 -15 -69.5 -52.5t-26.5 -83.5q0 -59 42 -102t102 -43t102 42.5t42 102.5q0 46 -27 83.5t-70 52.5zM319 208q0 -20 -13.5 -34t-33.5 -14t-34 14t-14 34t14 34t34 14
t33.5 -14t13.5 -34zM752 256q20 0 34 -14t14 -34t-14 -34t-34 -14t-33.5 14t-13.5 34t13.5 34t33.5 14zM560 815q0 -20 -14.5 -33.5t-33.5 -13.5t-33.5 13.5t-14.5 33.5t14.5 34.5t33.5 14.5t33.5 -14.5t14.5 -34.5z" />
</svg>
