<?xml version="1.0" standalone="no"?>
<!DOCTYPE svg PUBLIC "-//W3C//DTD SVG 1.1//EN" "http://www.w3.org/Graphics/SVG/1.1/DTD/svg11.dtd" >
<svg xmlns="http://www.w3.org/2000/svg" xmlns:xlink="http://www.w3.org/1999/xlink" version="1.1" viewBox="-10 0 1044 1024">
   <path fill="currentColor"
d="M63 160q0 -66 47.5 -113t113.5 -47h560q19 0 33 13.5t14 34.5v224q0 19 -13.5 33t-33.5 14t-34 -13.5t-14 -33.5v-176h-512q-27 0 -45.5 18.5t-18.5 45.5v430q31 -13 63 -14l1 -1q0 1 44 1h88l44 -1q19 0 34 14.5t15 34.5t-14.5 34t-34.5 14h-176q-27 0 -45.5 18.5
t-18.5 45.5t19 45.5t45 18.5h176q19 0 34 14t15 34t-14.5 34t-34.5 14h-176q-67 0 -114 -47t-47 -113v-576zM575 651v-76q0 -79 56.5 -135t136.5 -56t136.5 56t56.5 135v76q29 13 46 40.5t17 59.5v161q0 46 -33 79t-79 33h-288q-46 0 -79 -33t-33 -79v-161q0 -33 17 -60
t46 -40zM864 640v-65q0 -39 -28 -67t-68 -28t-68 28t-28 67v65h192z" />
</svg>
