<?xml version="1.0" standalone="no"?>
<!DOCTYPE svg PUBLIC "-//W3C//DTD SVG 1.1//EN" "http://www.w3.org/Graphics/SVG/1.1/DTD/svg11.dtd" >
<svg xmlns="http://www.w3.org/2000/svg" xmlns:xlink="http://www.w3.org/1999/xlink" version="1.1" viewBox="-10 0 1044 1024">
   <path fill="currentColor"
d="M63 160q0 -66 47.5 -113t113.5 -47h560q19 0 33 13.5t14 34.5v336q0 19 -13.5 33.5t-33.5 14.5t-34 -14.5t-14 -33.5v-288h-512q-27 0 -45.5 18.5t-18.5 45.5v430q31 -13 63 -14l1 -1q0 1 47.5 1h96.5l48 -1q20 0 34 14.5t14 34.5t-14 34t-34 14h-192q-27 0 -45.5 18.5
t-18.5 45.5t19 45.5t45 18.5h192q20 0 34 14t14 34t-14 34t-34 14h-192q-67 0 -114 -47t-47 -113v-576zM781 862l79 -78h-300q-20 0 -34 -14t-14 -33.5t14 -34t34 -14.5h300q-5 -5 -13 -13.5t-25.5 -25t-29 -28l-11.5 -11.5q-13 -14 -13 -34q0 -19 14 -33.5t34 -14.5
q19 0 33 13l161 161q14 14 14 34t-14 34l-161 161q-13 13 -33 13t-34.5 -14t-14.5 -34t14 -34z" />
</svg>
