<?xml version="1.0" standalone="no"?>
<!DOCTYPE svg PUBLIC "-//W3C//DTD SVG 1.1//EN" "http://www.w3.org/Graphics/SVG/1.1/DTD/svg11.dtd" >
<svg xmlns="http://www.w3.org/2000/svg" xmlns:xlink="http://www.w3.org/1999/xlink" version="1.1" viewBox="-10 0 1034 1024">
   <path fill="currentColor"
d="M63 160q0 -66 47.5 -113t113.5 -47h560q19 0 33 13.5t14 34.5v224q0 19 -13.5 33t-33.5 14t-34 -13.5t-14 -33.5v-176h-512q-27 0 -45.5 18.5t-18.5 45.5v430q31 -13 63 -14l1 -1q0 1 52 1h104l52 -1q19 0 33.5 14.5t14.5 34.5t-14 34t-34 14h-208q-27 0 -45.5 18.5
t-18.5 45.5t19 45.5t45 18.5h368q20 0 34 14t14 34t-14 34t-34 14h-368q-67 0 -114 -47t-47 -113v-576zM910 658l-77 -78v396q0 20 -14.5 34t-34 14t-34 -14t-14.5 -34v-396l-79 78q-13 13 -32 14q-19 0 -33.5 -14t-14.5 -35q0 -19 13 -32l161 -161q14 -13 33.5 -13t33.5 13
l40 40.5t80 80.5l41 40q12 13 12 32t-13.5 34t-34.5 15q-19 -1 -33 -14z" />
</svg>
