<?xml version="1.0" standalone="no"?>
<!DOCTYPE svg PUBLIC "-//W3C//DTD SVG 1.1//EN" "http://www.w3.org/Graphics/SVG/1.1/DTD/svg11.dtd" >
<svg xmlns="http://www.w3.org/2000/svg" xmlns:xlink="http://www.w3.org/1999/xlink" version="1.1" viewBox="-10 0 1045 1024">
   <path fill="currentColor"
d="M63 160q0 -66 47.5 -113t113.5 -47h560q19 0 33 13.5t14 34.5v480q0 19 -13.5 33t-33.5 14t-34 -13.5t-14 -33.5v-432h-512q-27 0 -45.5 18.5t-18.5 45.5v430q31 -13 63 -14l1 -1q0 1 76 1h152l76 -1q19 0 33 14.5t14 34.5t-13.5 34t-33.5 14h-304q-27 0 -45.5 18.5
t-18.5 45.5t19 45.5t45 18.5h304q19 0 33 14t14 34t-13.5 34t-33.5 14h-304q-67 0 -114 -47t-47 -113v-576zM722 654l109 110q7 -7 19 -18.5t36 -35.5l40 -40l16 -16q14 -15 35 -15q20 0 34 13.5t14 34.5q0 20 -15 35l-110 109l110 111q15 14 15 35q0 20 -14 34t-34 14
t-35 -16l-111 -109l-109 109q-14 15 -35 16q-20 0 -34 -14t-14 -34t15 -35l110 -111l-110 -109q-15 -14 -15 -35q0 -20 14 -34t34 -14q21 0 35 15z" />
</svg>
