<?xml version="1.0" standalone="no"?>
<!DOCTYPE svg PUBLIC "-//W3C//DTD SVG 1.1//EN" "http://www.w3.org/Graphics/SVG/1.1/DTD/svg11.dtd" >
<svg xmlns="http://www.w3.org/2000/svg" xmlns:xlink="http://www.w3.org/1999/xlink" version="1.1" viewBox="-10 0 1034 1024">
   <path fill="currentColor"
d="M848 512q20 0 34 13.5t14 34.5v288q0 20 -14 34t-34 14h-160q-20 0 -34 -14t-14 -34t14 -34t34 -14h112v-128h-48q-19 0 -33 -14t-14 -34t13.5 -34.5t33.5 -14.5h48v-15q0 -20 14 -34t34 -14zM319 784q0 -7 5.5 -11.5t11.5 -4.5h224q6 0 10.5 4.5t4.5 11.5v208
q0 6 -4.5 10.5t-10.5 4.5q-5 0 -9 -3l-23.5 -17t-46.5 -35l-23 -17q-4 -3 -10 -3t-10 3l-23 17.5t-46 34.5l-23 17q-5 3 -10 3q-6 0 -11.5 -4.5t-5.5 -10.5v-208zM176 512q20 0 34 13.5t14 34.5v17q8 -2 16 -2h32q19 0 33 14.5t14 34.5t-13.5 34t-33.5 14h-32q-6 0 -11 4.5
t-5 11.5v48q0 27 20 45q14 14 14 35q0 19 -14.5 33.5t-33.5 14.5t-34 -14q-48 -47 -48 -114v-44v-88v-44q0 -20 14 -34t34 -14zM705 47q0 -20 13.5 -33.5t33.5 -13.5h96q20 0 34 13.5t14 34.5v96q0 19 -14 33.5t-34 14.5t-34 -14t-14 -34v-48h-48q-19 0 -33 -14.5t-14 -34.5
zM384 47q0 -20 14 -33.5t34 -13.5h160q20 0 34 13.5t14 33.5t-14 34.5t-34 14.5h-160q-20 0 -34 -14.5t-14 -34.5zM384 624q0 -20 14 -34.5t34 -14.5h160q20 0 34 14.5t14 34.5t-14 34t-34 14h-160q-20 0 -34 -14t-14 -34zM319 42v7q0 18 -11.5 31.5t-28.5 15.5
q-20 3 -36 18.5t-19 35.5q-3 17 -16 28t-31 11q-19 0 -33.5 -13.5t-14.5 -34.5q0 -2 1 -4q7 -52 45 -90t90 -45q3 -1 7 -1q17 0 31 12t16 29zM176 256q20 0 34 13.5t14 34.5v96q0 19 -14 33.5t-34 14.5t-34 -14t-14 -34v-96q0 -20 14 -34t34 -14zM848 256q20 0 34 13.5
t14 34.5v96q0 19 -14 33.5t-34 14.5t-34 -14t-14 -34v-96q0 -20 14 -34t34 -14z" />
</svg>
