<?xml version="1.0" standalone="no"?>
<!DOCTYPE svg PUBLIC "-//W3C//DTD SVG 1.1//EN" "http://www.w3.org/Graphics/SVG/1.1/DTD/svg11.dtd" >
<svg xmlns="http://www.w3.org/2000/svg" xmlns:xlink="http://www.w3.org/1999/xlink" version="1.1" viewBox="-10 0 1044 1024">
   <path fill="currentColor"
d="M224 0h560q19 0 33 13.5t14 34.5v224q0 19 -13.5 33t-33.5 14t-34 -13.5t-14 -33.5v-176h-512q-27 0 -45.5 18.5t-18.5 45.5v430q31 -14 64 -15h176q19 0 34 14.5t15 34.5t-14.5 34t-34.5 14h-176q-27 0 -45.5 18.5t-18.5 45.5t19 45.5t45 18.5h176q19 0 34 14t15 34
t-14.5 34t-34.5 14h-176q-67 0 -114 -47t-47 -113v-576q0 -66 47 -113t114 -47zM512 516q0 -52 34.5 -92t86.5 -40h343q20 0 34 13.5t14 34.5v544q0 20 -14 34t-34 14h-320q-60 0 -102 -42t-42 -103v-363zM928 736v-256h-295q-8 0 -16 8q-9 11 -9 27v0.5v57.5v114v57
q23 -8 48 -8h272zM608 880q0 20 14 34t34 14h272v-97h-272q-20 0 -34 14.5t-14 34.5z" />
</svg>
