<?xml version="1.0" standalone="no"?>
<!DOCTYPE svg PUBLIC "-//W3C//DTD SVG 1.1//EN" "http://www.w3.org/Graphics/SVG/1.1/DTD/svg11.dtd" >
<svg xmlns="http://www.w3.org/2000/svg" xmlns:xlink="http://www.w3.org/1999/xlink" version="1.1" viewBox="-10 0 1044 1024">
   <path fill="currentColor"
d="M900 0h12q46 0 79 32.5t33 78.5v13q0 114 -43.5 216t-120.5 180l-7.5 7t-14.5 14l-8 8q-30 31 -62 58v205q0 30 -14.5 55t-38.5 40l-178 110q-11 7 -25 7q-16 0 -28.5 -10t-17.5 -24l-60 -199q-5 -3 -11 -8l-154 -154q-5 -5 -9 -11l-198 -60q-15 -5 -24.5 -17.5
t-9.5 -28.5q0 -13 7 -26l27 -44t55 -89l28 -44q14 -25 39.5 -39t55.5 -14h205q28 -33 58 -63l29 -29q78 -78 180 -121t216 -43zM572 231h-1l-28 30q-74 73 -129 160l-97 148l138 137l148 -96q87 -56 160 -129l30 -30q63 -63 99 -148t36 -179v-13q0 -6 -4.5 -10.5t-11.5 -4.5
h-12q-94 0 -179.5 36t-148.5 99zM227 932q-51 52 -191 73h-3q-6 0 -10.5 -4.5t-4.5 -9.5v-3q22 -140 74 -192q28 -32 69 -32h3q40 0 68 28t28 68q0 43 -33 72zM672 680q-7 5 -17 11l-150 97l35 115l125 -78q7 -4 7 -13v-132zM236 519l97 -151q4 -5 11 -16h-132q-9 0 -13 7
l-78 125zM768 320q0 26 -19 45t-45 19t-45 -19t-19 -45t19 -45t45 -19t45 19t19 45z" />
</svg>
