<?xml version="1.0" standalone="no"?>
<!DOCTYPE svg PUBLIC "-//W3C//DTD SVG 1.1//EN" "http://www.w3.org/Graphics/SVG/1.1/DTD/svg11.dtd" >
<svg xmlns="http://www.w3.org/2000/svg" xmlns:xlink="http://www.w3.org/1999/xlink" version="1.1" viewBox="-10 0 1044 1024">
   <path fill="currentColor"
d="M1024 688v160q0 46 -33 79t-79 33h-800q-46 0 -79 -33t-33 -79v-160q0 -46 33 -79.5t79 -33.5h800q46 0 79 33.5t33 79.5zM1024 176v160q0 46 -33 79t-79 33h-800q-46 0 -79 -33t-33 -79v-160q0 -46 33 -79.5t79 -33.5h800q46 0 79 33.5t33 79.5zM912 160h-800
q-6 0 -11 4.5t-5 11.5v160q0 7 4.5 11.5t11.5 4.5h800q6 0 11 -4.5t5 -11.5v-160q0 -7 -5 -11.5t-11 -4.5zM912 672h-800q-6 0 -11 4.5t-5 11.5v160q0 7 4.5 11.5t11.5 4.5h800q6 0 11 -4.5t5 -11.5v-160q0 -7 -5 -11.5t-11 -4.5z" />
</svg>
