<?xml version="1.0" standalone="no"?>
<!DOCTYPE svg PUBLIC "-//W3C//DTD SVG 1.1//EN" "http://www.w3.org/Graphics/SVG/1.1/DTD/svg11.dtd" >
<svg xmlns="http://www.w3.org/2000/svg" xmlns:xlink="http://www.w3.org/1999/xlink" version="1.1" viewBox="-10 0 1034 1024">
   <path fill="currentColor"
d="M688 63q20 0 34 14.5t14 33.5v161q0 6 4.5 11t11.5 5h160q19 0 34 14t15 34t-14.5 34t-34.5 14h-160q-46 0 -79 -33t-33 -79v-161q0 -19 14 -33.5t34 -14.5zM336 63q20 0 34 14.5t14 33.5v161q0 46 -33 79t-79 33h-160q-19 0 -34 -14t-15 -34t14.5 -34t34.5 -14h160
q6 0 11 -5t5 -11v-161q0 -19 14 -33.5t34 -14.5zM63 687q0 -20 14.5 -33.5t34.5 -13.5h160q46 0 79 32.5t33 78.5v161q0 19 -14 33.5t-34 14.5t-34 -14t-14 -34v-161q0 -6 -4.5 -10.5t-11.5 -4.5h-160q-19 0 -34 -14.5t-15 -34.5zM640 751q0 -46 33 -78.5t79 -32.5h160
q19 0 34 13.5t15 33.5t-14.5 34.5t-34.5 14.5h-160q-6 0 -11 4.5t-5 10.5v161q0 19 -14 33.5t-34 14.5t-34 -14t-14 -34v-161z" />
</svg>
