<?xml version="1.0" standalone="no"?>
<!DOCTYPE svg PUBLIC "-//W3C//DTD SVG 1.1//EN" "http://www.w3.org/Graphics/SVG/1.1/DTD/svg11.dtd" >
<svg xmlns="http://www.w3.org/2000/svg" xmlns:xlink="http://www.w3.org/1999/xlink" version="1.1" viewBox="-10 0 1034 1024">
   <path fill="currentColor"
d="M112 640q20 0 34 13.5t14 34.5v160q0 7 4.5 11.5t11.5 4.5h160q20 0 34 14t14 34t-14 34t-34 14h-160q-46 0 -79.5 -33t-33.5 -79v-160q0 -20 14.5 -34t34.5 -14zM912 640q20 0 34.5 13.5t14.5 34.5v160q0 46 -33.5 79t-79.5 33h-160q-20 0 -34 -14t-14 -34t14 -34
t34 -14h160q7 0 11.5 -4.5t4.5 -11.5v-160q0 -20 14 -34t34 -14zM176 160q-7 0 -11.5 4.5t-4.5 11.5v160q0 20 -14 34t-34 14t-34.5 -14t-14.5 -34v-160q0 -46 33.5 -79.5t79.5 -33.5h160q20 0 34 14.5t14 34.5t-14 34t-34 14h-160zM640 112q0 -20 14 -34.5t34 -14.5h160
q46 0 79.5 33.5t33.5 79.5v160q0 20 -14.5 34t-34.5 14t-34 -14t-14 -34v-160q0 -7 -4.5 -11.5t-11.5 -4.5h-160q-20 0 -34 -14t-14 -34z" />
</svg>
