<?xml version="1.0" standalone="no"?>
<!DOCTYPE svg PUBLIC "-//W3C//DTD SVG 1.1//EN" "http://www.w3.org/Graphics/SVG/1.1/DTD/svg11.dtd" >
<svg xmlns="http://www.w3.org/2000/svg" xmlns:xlink="http://www.w3.org/1999/xlink" version="1.1" viewBox="-10 0 1044 1024">
   <path fill="currentColor"
d="M112 63h800q46 0 79 33.5t33 79.5v256q0 35 -20 63q20 29 20 65v256q0 46 -33 79t-79 33h-800q-46 0 -79 -33t-33 -79v-256q0 -36 20 -65q-20 -29 -20 -63v-64v-129v-63q0 -46 33 -79.5t79 -33.5zM96 176v256q0 6 4.5 11t11.5 5h800q6 0 11 -5t5 -11v-256
q0 -7 -4.5 -11.5t-11.5 -4.5h-800q-6 0 -11 4.5t-5 11.5zM112 544q-6 0 -11 4.5t-5 11.5v256q0 6 4.5 10.5t11.5 4.5h800q6 0 11 -4.5t5 -10.5v-256q0 -7 -4.5 -11.5t-11.5 -4.5h-800zM449 303q0 -20 13.5 -33.5t33.5 -13.5h288q19 0 33 13.5t14 33.5t-13.5 34.5t-33.5 14.5
h-288q-19 0 -33 -14.5t-14 -34.5zM496 640h288q19 0 33 13.5t14 33.5t-13.5 34.5t-33.5 14.5h-288q-19 0 -33 -14.5t-14 -34.5t14 -33.5t33 -13.5zM193 303q0 -20 13.5 -33.5t33.5 -13.5h32q19 0 33 13.5t14 33.5t-13.5 34.5t-33.5 14.5h-32q-19 0 -33 -14.5t-14 -34.5z
M240 640h32q19 0 33 13.5t14 33.5t-13.5 34.5t-33.5 14.5h-32q-19 0 -33 -14.5t-14 -34.5t14 -33.5t33 -13.5z" />
</svg>
