<?xml version="1.0" standalone="no"?>
<!DOCTYPE svg PUBLIC "-//W3C//DTD SVG 1.1//EN" "http://www.w3.org/Graphics/SVG/1.1/DTD/svg11.dtd" >
<svg xmlns="http://www.w3.org/2000/svg" xmlns:xlink="http://www.w3.org/1999/xlink" version="1.1" viewBox="-10 0 1034 1024">
   <path fill="currentColor"
d="M959 191.5q0 79.5 -55.5 136t-135.5 56.5q-82 0 -139 -60l-62.5 35t-126.5 70l-62 35q6 24 6 48t-6 48l251 139q57 -59 139 -59q79 0 135 56t56 135.5t-56 136t-135.5 56.5t-136 -56.5t-56.5 -135.5q0 -25 7 -49l-251 -139q-56 60 -138 60q-80 0 -136.5 -56t-56.5 -136
t56.5 -136t136.5 -56q82 0 138 60l63 -35t125 -70l63 -35q-5 -24 -5 -48q0 -80 55.5 -136t135.5 -56t135.5 56t55.5 135.5zM864 831q0 -39 -28 -67t-68 -28t-68 28t-28 67.5t28 68t68 28.5t68 -28.5t28 -67.5v-1zM288 512q0 -40 -28.5 -68t-67.5 -28t-67.5 28t-28.5 68
t28.5 68t67.5 28t67.5 -28t28.5 -68zM864 191.5q0 -39.5 -28 -67.5t-68 -28t-68 28t-28 67.5t28 68t68 28.5t68 -28.5t28 -68z" />
</svg>
