<?xml version="1.0" standalone="no"?>
<!DOCTYPE svg PUBLIC "-//W3C//DTD SVG 1.1//EN" "http://www.w3.org/Graphics/SVG/1.1/DTD/svg11.dtd" >
<svg xmlns="http://www.w3.org/2000/svg" xmlns:xlink="http://www.w3.org/1999/xlink" version="1.1" viewBox="-10 0 1034 1024">
   <path fill="currentColor"
d="M240 416q-6 0 -11 4.5t-5 11.5v416q0 7 4.5 11.5t11.5 4.5h544q6 0 11 -4.5t5 -11.5v-416q0 -7 -4.5 -11.5t-11.5 -4.5h-64q-19 0 -33.5 -14t-14.5 -34t14 -34.5t34 -14.5h64q46 0 79 33.5t33 79.5v416q0 46 -33 79t-79 33h-544q-46 0 -79 -33t-33 -79v-416
q0 -46 33 -79.5t79 -33.5h64q19 0 33.5 14.5t14.5 34.5t-14 34t-34 14h-64zM501 11q5 -5 11 -5t11 5l46.5 46.5t93.5 92.5l46 46q5 5 5 12t-5.5 11.5t-11.5 4.5h-34h-69h-34v368q0 20 -14.5 34t-33.5 14t-33.5 -14t-14.5 -34v-368h-137q-6 0 -11.5 -4.5t-5.5 -11t5 -12.5z
" />
</svg>
