<?xml version="1.0" standalone="no"?>
<!DOCTYPE svg PUBLIC "-//W3C//DTD SVG 1.1//EN" "http://www.w3.org/Graphics/SVG/1.1/DTD/svg11.dtd" >
<svg xmlns="http://www.w3.org/2000/svg" xmlns:xlink="http://www.w3.org/1999/xlink" version="1.1" viewBox="-10 0 1034 1024">
   <path fill="currentColor"
d="M546 8l336 108q35 11 57 40t22 67v225q0 172 -84 299q-99 153 -322 247q-20 8 -43 8t-43 -8q-222 -94 -322 -247q-84 -127 -84 -299v-225q0 -38 22.5 -67t56.5 -40l336 -108q16 -5 34 -5t34 5zM507 100l-336 108q-11 3 -11 15v225q0 143 67 247q84 128 280 211q2 1 5 1
t5 -1q196 -84 280 -211q67 -102 67 -243v-4v-225q0 -12 -11 -15l-336 -108q-3 -1 -5 -1t-5 1zM608 416q0 26 -12.5 48t-35.5 36v156q0 19 -14.5 33.5t-33.5 14.5t-33.5 -14t-14.5 -34v-156q-22 -13 -35 -35.5t-13 -48.5q0 -40 28 -68t68 -28t68 28t28 68z" />
</svg>
