<?xml version="1.0" standalone="no"?>
<!DOCTYPE svg PUBLIC "-//W3C//DTD SVG 1.1//EN" "http://www.w3.org/Graphics/SVG/1.1/DTD/svg11.dtd" >
<svg xmlns="http://www.w3.org/2000/svg" xmlns:xlink="http://www.w3.org/1999/xlink" version="1.1" viewBox="-10 0 1034 1024">
   <path fill="currentColor"
d="M478 8q16 -5 33.5 -5t34.5 5l34.5 11.5t84 27t99 31.5t84.5 26l34 12q35 11 57 40t22 67v225q0 172 -84 299q-99 153 -322 247q-20 8 -43 8t-43 -8q-222 -94 -322 -247q-84 -127 -84 -299v-225q0 -38 22.5 -67t56.5 -40zM517 100q-3 -1 -5 -1t-5 1l-84 26.5t-168 53.5
l-84 28q-11 3 -11 15v225q0 143 67 247q84 127 280 211q2 1 5 1t5 -1q196 -83 280 -211q67 -102 67 -243v-4v-225q0 -12 -11 -15zM560 304v191q0 20 -14.5 34.5t-33.5 14.5t-33.5 -14t-14.5 -35v-191q0 -20 14.5 -34t33.5 -14t33.5 14t14.5 34zM575 671.5q0 26.5 -18 45.5
t-45 19t-45 -19t-18 -45.5t18 -45t45 -18.5t45 18.5t18 45z" />
</svg>
