<?xml version="1.0" standalone="no"?>
<!DOCTYPE svg PUBLIC "-//W3C//DTD SVG 1.1//EN" "http://www.w3.org/Graphics/SVG/1.1/DTD/svg11.dtd" >
<svg xmlns="http://www.w3.org/2000/svg" xmlns:xlink="http://www.w3.org/1999/xlink" version="1.1" viewBox="-11 0 1046 1024">
   <path fill="currentColor"
d="M546 8l336 108q35 11 57 40t22 67v225q0 26 -3 52q-1 19 -14.5 32.5t-33.5 13.5t-34 -14.5t-14 -34.5v-5q2 -22 2 -44v-225v-1q0 -11 -11 -14l-336 -108q-3 -1 -5 -1t-5 1q-8 2 -22 6.5t-43 14t-48.5 15.5l-19.5 6q-7 2 -14 2q-20 0 -34 -13.5t-14 -34.5q0 -15 9 -27.5
t23 -17.5q8 -2 22 -6.5t43.5 -14t49 -16l19.5 -6.5q16 -5 34 -5t34 5zM63 183l-44 -33q-20 -14 -20 -39q0 -20 14 -34t34 -14q16 0 29 10l232 168l464 336l233 168q20 14 20 39q0 20 -14 34t-34 14q-16 0 -29 -9l-20.5 -15t-40.5 -30l-21 -14q-101 140 -311 230q-22 9 -43 9
l-43 -9q-222 -94 -322 -247q-84 -127 -84 -299v-265zM160 252v196q0 143 67 247q84 127 280 211q2 1 5 1l5 -1q186 -80 271 -199z" />
</svg>
