<?xml version="1.0" standalone="no"?>
<!DOCTYPE svg PUBLIC "-//W3C//DTD SVG 1.1//EN" "http://www.w3.org/Graphics/SVG/1.1/DTD/svg11.dtd" >
<svg xmlns="http://www.w3.org/2000/svg" xmlns:xlink="http://www.w3.org/1999/xlink" version="1.1" viewBox="-10 0 1034 1024">
   <path fill="currentColor"
d="M128 176q0 -46 33 -79.5t79 -33.5h160q19 0 34 14.5t15 34.5t-14.5 34t-34.5 14h-160q-6 0 -11 4.5t-5 11.5v672q0 7 4.5 11.5t11.5 4.5h160q19 0 34 14t15 34t-14.5 34t-34.5 14h-160q-46 0 -79 -33t-33 -79v-672zM797 464l-127 -126q-15 -14 -16 -35q0 -17 10.5 -30
t26.5 -17q5 -1 11 -1q22 0 36 15l208 208q13 14 13 33.5t-13 34.5l-208 207q-14 15 -36 16q-16 0 -29 -10.5t-17 -25.5q-2 -6 -2 -12q0 -20 16 -35l127 -126h-365q-20 0 -34 -14.5t-14 -34t14 -33.5t34 -14h365z" />
</svg>
