<?xml version="1.0" standalone="no"?>
<!DOCTYPE svg PUBLIC "-//W3C//DTD SVG 1.1//EN" "http://www.w3.org/Graphics/SVG/1.1/DTD/svg11.dtd" >
<svg xmlns="http://www.w3.org/2000/svg" xmlns:xlink="http://www.w3.org/1999/xlink" version="1.1" viewBox="-10 0 1034 1024">
   <path fill="currentColor"
d="M961 175q0 20 -14.5 34.5t-34.5 14.5h-256q-20 0 -34 -14.5t-14 -34.5t14 -33.5t34 -13.5h256q19 0 34 13.5t15 33.5zM416 224h-304q-19 0 -34 -14.5t-15 -34.5t14.5 -33.5t34.5 -13.5h304v-80q0 -20 14 -34t34 -14t34 13.5t14 34.5v256q0 19 -14 33.5t-34 14.5
t-34 -14.5t-14 -33.5v-80zM496 560h-384q-19 0 -34 -14.5t-15 -34t14.5 -33.5t34.5 -14h384q20 0 34 14t14 33.5t-14 34t-34 14.5zM961 511.5q0 19.5 -14.5 34t-34.5 14.5h-176v80q0 19 -14 33.5t-34 14.5t-34 -14.5t-14 -33.5v-256q0 -19 14 -33.5t34 -14.5t34 14t14 34v80
h176q19 0 34 14t15 33.5zM384 848v128q0 20 -14 34t-34 14t-34 -14t-14 -34v-80h-176q-19 0 -34 -14t-15 -34t14.5 -34t34.5 -14h176v-80q0 -19 14 -33.5t34 -14.5t34 14t14 34v128zM961 848q0 20 -14.5 34t-34.5 14h-384q-20 0 -34 -14t-14 -34t14 -34t34 -14h384
q19 0 34 14t15 34z" />
</svg>
