<?xml version="1.0" standalone="no"?>
<!DOCTYPE svg PUBLIC "-//W3C//DTD SVG 1.1//EN" "http://www.w3.org/Graphics/SVG/1.1/DTD/svg11.dtd" >
<svg xmlns="http://www.w3.org/2000/svg" xmlns:xlink="http://www.w3.org/1999/xlink" version="1.1" viewBox="-10 0 1044 1024">
   <path fill="currentColor"
d="M320 512q-26 0 -45 -19t-19 -45t19 -45t45 -19t45 19t19 45t-19 45t-45 19zM768 448q0 26 -19 45t-45 19t-45 -19t-19 -45t19 -45t45 -19t45 19t19 45zM340 616q13 -8 28 -8q25 0 39 20l1 1q10 11 22 19q35 24 82 24t82 -24q12 -8 22 -19l1 -1q14 -20 39 -21
q19 0 34 14.5t15 33.5q0 15 -10 29h-1v2q-6 7 -12 13q-15 16 -34 29q-61 40 -132 40h-4q-77 0 -136 -40q-26 -18 -46 -42v-2h-1q-8 -13 -8 -28q0 -26 19 -40zM96 511.5q0 112.5 56 208.5t151.5 152t208.5 56t208.5 -56t151.5 -152t56 -208.5t-56 -208t-151.5 -151.5
t-208.5 -56t-208.5 56t-151.5 151.5t-56 208zM512 0q139 0 257 68.5t186.5 186.5t68.5 257t-68.5 257t-186.5 186.5t-257 68.5t-257 -68.5t-186.5 -186.5t-68.5 -257t68.5 -257t186.5 -186.5t257 -68.5z" />
</svg>
