<?xml version="1.0" standalone="no"?>
<!DOCTYPE svg PUBLIC "-//W3C//DTD SVG 1.1//EN" "http://www.w3.org/Graphics/SVG/1.1/DTD/svg11.dtd" >
<svg xmlns="http://www.w3.org/2000/svg" xmlns:xlink="http://www.w3.org/1999/xlink" version="1.1" viewBox="-10 0 1034 1024">
   <path fill="currentColor"
d="M482 82q7 -20 30 -21h1q22 0 29 21l30 84q37 99 112 174t174 111l84 31q20 7 20 29q1 1 1 2q0 21 -21 28l-84 31q-99 37 -174 112t-112 174l-30 84q-7 20 -30 20t-30 -20l-30 -84q-37 -99 -112 -174t-174 -112l-84 -31q-20 -7 -20 -30q-1 0 -1 -1q0 -21 21 -28l84 -31
q99 -37 174 -111.5t112 -173.5z" />
</svg>
