<?xml version="1.0" standalone="no"?>
<!DOCTYPE svg PUBLIC "-//W3C//DTD SVG 1.1//EN" "http://www.w3.org/Graphics/SVG/1.1/DTD/svg11.dtd" >
<svg xmlns="http://www.w3.org/2000/svg" xmlns:xlink="http://www.w3.org/1999/xlink" version="1.1" viewBox="-10 0 1044 1024">
   <path fill="currentColor"
d="M224 48q0 -20 14 -34t34 -14t33.5 13.5t13.5 34.5v63q28 35 60.5 68.5t53.5 51.5t57 49l16 13v-18q0 -66 26 -121q38 -75 113 -113q55 -29 117 -29q23 0 46 4q91 15 153.5 83t62.5 173q0 63 -43.5 115t-112.5 59l10 33l4 14q26 90 29 143q2 19 2 37q0 136 -96 213
q-93 74 -253 74h-4h-384q-20 0 -34 -14t-14 -34t14 -34t34 -14h88q-24 -36 -36 -77q-11 -35 -11 -71q0 -31 8 -61q-12 1 -23 1q-55 0 -107 -19q-14 -5 -23 -17.5t-9 -27.5q0 -19 14.5 -33.5t34.5 -14.5q9 0 17 3q34 14 66 14h12q38 -4 60 -13.5t34 -21.5h1q14 -14 34 -14
t34 13.5t14 34.5q0 20 -15 35q-55 56 -56 120q0 23 6 45q10 34 32 61.5t45 42.5h164q130 0 197 -53q60 -49 60 -142q0 -12 -1 -25q-4 -43 -26 -124l-5 -14q-15 -51 -22 -82q-18 -12 -33 -29q-30 -35 -41 -80q-1 -5 -1 -10q0 -20 14.5 -34t33.5 -14q16 0 29 9.5t17 26.5
q6 24 21 40q16 19 45 19q35 0 57.5 -24t22.5 -56q0 -68 -38 -109.5t-97 -51.5q-15 -2 -30 -2q-39 0 -73 18q-48 24 -72 70q-13 28 -16 61v24q0 18 2 35q4 25 17 76l2 12q1 2 1 3q36 46 60 100q4 10 4 21q0 19 -14 33.5t-33 14.5q-33 0 -45 -29q-24 -53 -58 -91.5t-88 -86.5
l-21 -17q-36 -30 -56.5 -47.5t-54 -51.5t-62.5 -68q-38 22 -65 56q-41 49 -47 97q12 12 38 15q7 1 15 1q30 0 52 -13q10 -5 21 -5q19 0 33.5 14t14.5 34q0 27 -23 41q-42 24 -92 24h-4q-13 0 -26 -1q-86 -8 -120 -75l-5 -11v-11q0 -87 69 -171q48 -58 107 -86v-47z" />
</svg>
