<?xml version="1.0" standalone="no"?>
<!DOCTYPE svg PUBLIC "-//W3C//DTD SVG 1.1//EN" "http://www.w3.org/Graphics/SVG/1.1/DTD/svg11.dtd" >
<svg xmlns="http://www.w3.org/2000/svg" xmlns:xlink="http://www.w3.org/1999/xlink" version="1.1" viewBox="-10 0 1034 1024">
   <path fill="currentColor"
d="M456 24q26 -14 56 -14q31 0 56 14l33 19.5t80 47l94 55t80 45.5l34 20q39 23 39 68.5t-39 69.5l-321 185q-26 15 -56 16q-31 0 -56 -16l-80 -46t-160 -93l-81 -46q-39 -24 -39 -69.5t39 -68.5zM520 108q-4 -2 -8 -2t-8 2l-74 43t-148 85l-74 43l296 172q4 2 8 2t8 -2
l74 -43l148 -86l74 -43zM102 498q13 -24 40 -24h2q12 0 24 7l84 48.5t168 96.5l84 50q4 2 8 2t8 -2l84 -49l168 -98l84 -48q11 -7 24 -7q20 0 34 14.5t14 33.5q0 28 -24 42l-336 195q-26 15 -56 15q-31 0 -56 -15l-34.5 -20t-84 -49t-99 -57.5t-83.5 -49.5l-35 -19
q-24 -14 -24 -42q0 -13 6 -24zM102 723q14 -25 42 -25q12 0 24 6l84 49.5t168 97.5l84 49q4 2 8 2t8 -2l84 -48.5t168 -98.5l84 -49q11 -6 24 -6q20 0 34 14.5t14 33.5q0 28 -24 42l-336 195q-26 15 -56 15q-31 0 -56 -15l-34.5 -20t-84 -48.5t-99 -57.5t-83.5 -49l-35 -20
q-24 -14 -24 -42q0 -12 6 -23z" />
</svg>
