<?xml version="1.0" standalone="no"?>
<!DOCTYPE svg PUBLIC "-//W3C//DTD SVG 1.1//EN" "http://www.w3.org/Graphics/SVG/1.1/DTD/svg11.dtd" >
<svg xmlns="http://www.w3.org/2000/svg" xmlns:xlink="http://www.w3.org/1999/xlink" version="1.1" viewBox="-10 0 1034 1024">
   <path fill="currentColor"
d="M512 16q30 0 43 27l121 244l269 38q17 3 29 16.5t12 32.5q0 20 -14 33l-196 191l46 268q1 4 1 8q0 19 -13.5 33.5t-34.5 14.5q-11 0 -22 -6l-60 -31t-121 -63l-60 -32l-241 126q-11 6 -22 6q-20 0 -34 -14t-14 -34q0 -4 1 -8l46 -268l-196 -191q-14 -13 -14 -33
q0 -18 11.5 -31.5t29.5 -17.5l67.5 -9.5t134.5 -18.5l67 -10l121 -244q13 -27 43 -27zM512 172l-89 180q-10 23 -36 26l-49.5 7t-98.5 14l-50 8l144 140q14 14 14 34q0 4 -1 9l-34 196l177 -93q10 -5 22.5 -5t23.5 5l44 23.5t89 46.5l44 23l-34 -196q-1 -4 -1 -9
q0 -20 14 -34l144 -140l-198 -29q-26 -3 -36 -26z" />
</svg>
