<?xml version="1.0" standalone="no"?>
<!DOCTYPE svg PUBLIC "-//W3C//DTD SVG 1.1//EN" "http://www.w3.org/Graphics/SVG/1.1/DTD/svg11.dtd" >
<svg xmlns="http://www.w3.org/2000/svg" xmlns:xlink="http://www.w3.org/1999/xlink" version="1.1" viewBox="-10 0 1034 1024">
   <path fill="currentColor"
d="M368 47q0 -20 14 -33.5t34 -13.5h192q19 0 33.5 13.5t14.5 33.5t-14 34.5t-34 14.5h-48v64v3q124 13 221 91h1l48 -48q14 -15 35 -16q16 0 29 10.5t17 26.5q2 5 2 11q0 22 -15 36l-48 47v1q94 118 94 270q0 117 -58 216.5t-157.5 157.5t-217 58t-216.5 -58t-157 -158
t-58 -216q0 -152 94 -270v-1l-48 -47q-12 -14 -12 -33q0 -20 13.5 -34t33.5 -14q19 0 33 13l12 12t24 23l12 13h1q97 -78 221 -91v-17v-34v-16h-48q-19 0 -33.5 -14.5t-14.5 -34.5zM512 928q91 0 168.5 -45.5t122.5 -122.5t45 -168t-45 -168.5t-122.5 -122.5t-168.5 -45
t-168.5 45t-122.5 122.5t-45 168.5t45 168t122.5 122.5t168.5 45.5zM537 500l85 -87q14 -14 34 -14t34.5 14.5t14.5 33.5q0 20 -15 35l-21.5 21t-42.5 43l-21 21q3 12 3 25q0 40 -28 68t-68 28t-67.5 -28t-27.5 -68t28 -68t68 -28q13 1 24 4z" />
</svg>
