<?xml version="1.0" standalone="no"?>
<!DOCTYPE svg PUBLIC "-//W3C//DTD SVG 1.1//EN" "http://www.w3.org/Graphics/SVG/1.1/DTD/svg11.dtd" >
<svg xmlns="http://www.w3.org/2000/svg" xmlns:xlink="http://www.w3.org/1999/xlink" version="1.1" viewBox="-10 0 1034 1024">
   <path fill="currentColor"
d="M708 544q52 53 52 129q0 93 -72 153q-82 70 -233 70q-79 0 -144.5 -24.5t-105.5 -63.5q-13 -14 -14 -33q0 -20 14.5 -34t34.5 -14q18 0 31 12q26 25 74 43t110 18q117 0 171 -47q38 -33 38 -80q0 -45 -42 -77q-43 -34 -124 -52h-386q-19 0 -34 -14t-15 -34t14.5 -34
t34.5 -14h800q19 0 34 14t15 34t-14.5 34t-34.5 14h-204zM485 208q-88 0 -133 36t-45 78q0 5 1 11v3q0 20 -14 34t-34 14q-19 0 -33 -13t-15 -31q-1 -9 -1 -18q0 -89 77.5 -150t196.5 -61q117 0 225 71q22 13 22 38v2q0 19 -14.5 33.5t-33.5 14.5q-14 0 -26 -8
q-85 -54 -173 -54z" />
</svg>
