<?xml version="1.0" standalone="no"?>
<!DOCTYPE svg PUBLIC "-//W3C//DTD SVG 1.1//EN" "http://www.w3.org/Graphics/SVG/1.1/DTD/svg11.dtd" >
<svg xmlns="http://www.w3.org/2000/svg" xmlns:xlink="http://www.w3.org/1999/xlink" version="1.1" viewBox="-10 0 1044 1024">
   <path fill="currentColor"
d="M512 768q-105 0 -180.5 -75.5t-75.5 -181t75.5 -180.5t180.5 -75t180.5 75t75.5 180.5t-75.5 181t-180.5 75.5zM512 672q67 0 113.5 -47t46.5 -113.5t-46.5 -113t-113.5 -46.5t-113.5 46.5t-46.5 113t46.5 113.5t113.5 47zM874 150q14 14 14 34t-14 34l-17 17t-34 33
l-17 17q-14 15 -35 16q-16 0 -29.5 -10.5t-16.5 -25.5q-2 -6 -2 -12q0 -20 15 -35l68 -69q14 -13 34 -13t34 14zM285.5 738q14.5 14 14.5 34t-14 34l-17 16.5t-35 34.5l-16 17q-14 14 -35 15q-19 0 -33.5 -14.5t-14.5 -33.5q0 -20 15 -35l17 -17t34 -33l17 -18
q13 -14 33 -14t34.5 14zM512 0q19 0 33.5 13.5t14.5 34.5v96q0 19 -14.5 33.5t-33.5 14.5t-33.5 -14t-14.5 -34v-96q0 -20 14.5 -34t33.5 -14zM193 511.5q0 19.5 -14.5 34t-34.5 14.5h-96q-20 0 -34 -14.5t-14 -34t14 -33.5t34 -14h96q19 0 34 14t15 33.5zM1024 511.5
q0 19.5 -14 34t-34 14.5h-96q-19 0 -34 -14.5t-15 -34t14.5 -33.5t34.5 -14h96q20 0 34 14t14 33.5zM512 831q19 0 33.5 14.5t14.5 33.5v97q0 20 -14.5 34t-33.5 14t-33.5 -14t-14.5 -34v-97q0 -19 14.5 -33.5t33.5 -14.5zM738.5 738q14.5 -14 34.5 -14t33 14l17 17l34 34
l17 17q13 14 14 33q0 19 -14.5 34t-33.5 15t-34 -14l-17 -17.5t-33 -33.5l-18 -17q-14 -13 -14 -33.5t14.5 -34.5zM150 150q14 -14 34 -14t34 13l17 17.5t33 34.5l18 17q13 13 13 33q0 19 -14.5 33.5t-33.5 14.5t-33 -14l-17 -16.5t-34 -34.5l-17 -16q-13 -14 -14 -34v-1
q0 -19 14 -33z" />
</svg>
