<?xml version="1.0" standalone="no"?>
<!DOCTYPE svg PUBLIC "-//W3C//DTD SVG 1.1//EN" "http://www.w3.org/Graphics/SVG/1.1/DTD/svg11.dtd" >
<svg xmlns="http://www.w3.org/2000/svg" xmlns:xlink="http://www.w3.org/1999/xlink" version="1.1" viewBox="-10 0 1034 1024">
   <path fill="currentColor"
d="M110 512h5q18 0 32 12t16 30q15 132 115 220.5t234 88.5q78 0 146.5 -31t117.5 -88l-77 -77q-5 -5 -5 -11.5t5.5 -11t11.5 -4.5h58h117h58q6 0 11.5 4.5t5.5 11.5v233v1q0 6 -5.5 10.5t-12 4.5t-10.5 -4l-88 -89q-63 70 -149.5 109t-183.5 39q-113 0 -210 -52t-159 -142
t-75 -201q-1 -2 -1 -5q0 -18 12.5 -32t30.5 -16zM512 160q-78 0 -146.5 31.5t-117.5 87.5l77 77q5 5 5 12t-5.5 11.5t-11.5 4.5h-58h-117h-58q-6 0 -11.5 -4.5t-5.5 -12.5v-232v-1q0 -6 5.5 -10.5t12 -4.5t10.5 4l88 89q63 -70 149.5 -109.5t183.5 -39.5q113 0 210 52.5
t159 142.5t75 201q1 2 1 5q0 20 -14 34t-34 14q-18 0 -32 -12.5t-16 -29.5q-15 -132 -115 -221t-234 -89z" />
</svg>
