<?xml version="1.0" standalone="no"?>
<!DOCTYPE svg PUBLIC "-//W3C//DTD SVG 1.1//EN" "http://www.w3.org/Graphics/SVG/1.1/DTD/svg11.dtd" >
<svg xmlns="http://www.w3.org/2000/svg" xmlns:xlink="http://www.w3.org/1999/xlink" version="1.1" viewBox="-10 0 1044 1024">
   <path fill="currentColor"
d="M208 256q-6 0 -10.5 4.5t-4.5 11.5v576q0 20 -14.5 34t-34.5 14h-96q-20 0 -34 -14t-14 -34t14 -34t34 -14h48v-528q0 -47 33 -79.5t79 -32.5h608q46 0 79 32.5t33 79.5v528h48q20 0 34 14t14 34t-14 34t-34 14h-96q-19 0 -34 -14t-15 -34v-576q0 -7 -4.5 -11.5
t-10.5 -4.5h-608zM510 510l-98 -99q-5 -5 -5 -11.5t4.5 -11t11.5 -4.5h265q6 0 11.5 4.5t5.5 11.5q-1 16 -1.5 44t-0.5 86v96.5t2 38.5h-2q0 6 -4.5 11t-11 5t-10.5 -4l-99 -100l-177 176q-13 15 -34 16q-19 0 -34 -14t-15 -34t16 -35z" />
</svg>
