<?xml version="1.0" standalone="no"?>
<!DOCTYPE svg PUBLIC "-//W3C//DTD SVG 1.1//EN" "http://www.w3.org/Graphics/SVG/1.1/DTD/svg11.dtd" >
<svg xmlns="http://www.w3.org/2000/svg" xmlns:xlink="http://www.w3.org/1999/xlink" version="1.1" viewBox="-10 0 1044 1024">
   <path fill="currentColor"
d="M0 111q0 -46 33 -78.5t79 -32.5h800q46 0 79 32.5t33 78.5v801q0 46 -33 79t-79 33h-800q-46 0 -79 -33t-33 -79v-801zM416 416v512h496q6 0 11 -5t5 -11v-496h-512zM928 319v-208q0 -6 -4.5 -10.5t-11.5 -4.5h-496v223h512zM96 416v496q0 6 4.5 11t11.5 5h207v-512h-223
zM319 319v-223h-207q-6 0 -11 4.5t-5 10.5v208h223z" />
</svg>
