<?xml version="1.0" standalone="no"?>
<!DOCTYPE svg PUBLIC "-//W3C//DTD SVG 1.1//EN" "http://www.w3.org/Graphics/SVG/1.1/DTD/svg11.dtd" >
<svg xmlns="http://www.w3.org/2000/svg" xmlns:xlink="http://www.w3.org/1999/xlink" version="1.1" viewBox="-10 0 1034 1024">
   <path fill="currentColor"
d="M907 73l91 157q15 27 16 57q0 33 -17.5 60t-46.5 41l-751 361q-23 11 -48 12q-31 0 -57 -15.5t-41 -41.5l-28 -49q-15 -26 -16 -56q0 -59 49 -92l690 -470q29 -19 63 -20q31 0 56.5 15t39.5 41zM606 669l169 247q9 12 9 28q0 19 -14 33.5t-34 14.5q-26 0 -40 -21
l-121 -177v182q0 20 -13.5 34t-33.5 14t-34 -14t-14 -34v-182l-121 177q-13 21 -38 21h-2q-19 0 -33 -14.5t-14 -33.5q0 -15 9 -28l32.5 -47.5t65.5 -95.5l33 -48q7 -10 18 -16l116 -56q10 -4 20 -4q26 0 40 20zM604 251l-318 217l60 104l347 -167zM802 116l-119 80l96 167
l129 -62q7 -3 10 -9v-5q0 -4 -3 -9l-22.5 -39.5t-44.5 -77.5l-24 -40q-3 -6 -10 -8h-3q-5 1 -9 3zM113 586q-7 5 -8 13q0 4 3 8l7 12.5t14 24.5l7 12q5 8 15 8q3 0 6 -1l25.5 -12t50.5 -25l26 -12l-53 -92z" />
</svg>
