<?xml version="1.0" standalone="no"?>
<!DOCTYPE svg PUBLIC "-//W3C//DTD SVG 1.1//EN" "http://www.w3.org/Graphics/SVG/1.1/DTD/svg11.dtd" >
<svg xmlns="http://www.w3.org/2000/svg" xmlns:xlink="http://www.w3.org/1999/xlink" version="1.1" viewBox="-10 0 1040 1024">
   <path fill="currentColor"
d="M762 26q25 -16 54 -16q26 0 48.5 13t34.5 35l109 188q12 23 12 48q0 28 -15 51t-39 35l-781 376q-19 10 -42 10q-26 0 -48 -13.5t-35 -34.5l-43 -76q-13 -22 -13 -47q0 -51 42 -80zM546 653q10 -4 20 -4q26 0 40 20l169 247q7 12 7 26q0 19 -13.5 33.5t-34.5 14.5
q-24 0 -38 -19l-121 -177v182q0 20 -13.5 34t-33.5 14t-34 -14t-14 -34v-182l-121 177q-13 21 -38 21h-2q-19 0 -33 -14.5t-14 -33.5q0 -15 9 -28l32.5 -47.5t65.5 -95.5l33 -48q7 -10 18 -16zM705 399l87 -42l-98 -168l-80 55zM210 519l53 93l87 -42l-60 -105z" />
</svg>
