<?xml version="1.0" standalone="no"?>
<!DOCTYPE svg PUBLIC "-//W3C//DTD SVG 1.1//EN" "http://www.w3.org/Graphics/SVG/1.1/DTD/svg11.dtd" >
<svg xmlns="http://www.w3.org/2000/svg" xmlns:xlink="http://www.w3.org/1999/xlink" version="1.1" viewBox="-10 0 1034 1024">
   <path fill="currentColor"
d="M63 175q0 -20 14.5 -33.5t34.5 -13.5h800q19 0 34 13.5t15 33.5t-14.5 34.5t-34.5 14.5h-800q-19 0 -34 -14.5t-15 -34.5zM63 496q0 -20 14.5 -34t34.5 -14h800q19 0 34 14t15 34t-14.5 34t-34.5 14h-800q-19 0 -34 -14t-15 -34zM112 768h800q19 0 34 13.5t15 33.5
t-14.5 34.5t-34.5 14.5h-800q-19 0 -34 -14.5t-15 -34.5t15 -33.5t34 -13.5z" />
</svg>
