<?xml version="1.0" standalone="no"?>
<!DOCTYPE svg PUBLIC "-//W3C//DTD SVG 1.1//EN" "http://www.w3.org/Graphics/SVG/1.1/DTD/svg11.dtd" >
<svg xmlns="http://www.w3.org/2000/svg" xmlns:xlink="http://www.w3.org/1999/xlink" version="1.1" viewBox="-10 0 1038 1024">
   <path fill="currentColor"
d="M565 4q88 10 129 56q42 49 42 148q0 31 -10 104l-1 7h91q65 0 107 22q50 26 72 77q23 50 23 139q0 59 -10 137l-3 20q-12 95 -20 130q-14 71 -43 107q-34 44 -89.5 58.5t-147.5 14.5q-131 0 -282 -42q-8 -2 -30 -8q-78 -22 -110 -27q-11 34 -40.5 55.5t-66.5 21.5h-64
q-46 0 -79 -33t-33 -79v-480q0 -46 33 -79.5t79 -33.5h64q31 0 56.5 15.5t39.5 41.5q33 -13 60 -33q84 -61 84 -167v-32q0 -60 43 -103q38 -38 89 -38q8 0 17 1zM288 851q45 6 133 30l28 9q138 38 256 38q80 0 113.5 -9t47.5 -26q14 -19 25 -69q7 -33 19 -124l2 -18
q10 -76 11 -129q0 -63 -15 -95q-8 -20 -28 -31q-23 -11 -64 -11h-111q-35 0 -59 -25q-20 -22 -20 -50q0 -5 1 -10q1 -9 5 -38q8 -62 8 -85q0 -62 -18 -84q-16 -18 -67 -25h-2q-15 0 -28 11q-13 12 -13 34v32q0 155 -124 245q-46 34 -100 52v94v190v94zM176 416h-64
q-6 0 -11 4.5t-5 11.5v480q0 6 4.5 11t11.5 5h64q6 0 11.5 -5t5.5 -11v-480q0 -7 -5.5 -11.5t-11.5 -4.5z" />
</svg>
