<?xml version="1.0" standalone="no"?>
<!DOCTYPE svg PUBLIC "-//W3C//DTD SVG 1.1//EN" "http://www.w3.org/Graphics/SVG/1.1/DTD/svg11.dtd" >
<svg xmlns="http://www.w3.org/2000/svg" xmlns:xlink="http://www.w3.org/1999/xlink" version="1.1" viewBox="-10 0 1039 1024">
   <path fill="currentColor"
d="M454 1023q-89 -10 -129 -57q-42 -48 -42 -147q0 -31 10 -104l1 -8h-91q-65 0 -107 -21q-51 -26 -72 -77q-23 -49 -23 -138q0 -60 10 -138l2 -20q13 -96 21 -130q14 -70 43 -107q33 -43 89 -58t148 -15q131 0 282 42l30 8q77 23 110 27q11 -34 40.5 -55.5t66.5 -21.5h63
q47 0 80 32.5t33 80.5v479q0 47 -33 79.5t-80 32.5h-63q-31 0 -56.5 -15t-41.5 -41q-32 13 -58 33q-84 61 -84 167v33q0 59 -44 103q-38 37 -88 37q-9 0 -17 -1zM731 176q-46 -5 -133 -31l-29 -8q-137 -38 -255 -38q-80 0 -114 9t-47 26q-14 19 -25 69q-7 33 -19 123l-3 20
q-10 76 -10 129q0 63 15 94q8 20 28 31q23 11 64 11h111q34 0 59 26q20 20 20 49q0 5 -1 10q-1 10 -5 38q-8 61 -8 85q0 63 18 84q15 18 67 25h4q14 0 26 -11q13 -13 13 -33v-33q0 -154 124 -245q46 -33 100 -51q-1 0 -1 -95t1 -189v-95zM843 611h63q7 0 12 -4.5t5 -11.5
v-479q0 -7 -5 -12t-12 -5h-63q-7 0 -12 4.5t-5 12.5v479q0 7 5 11.5t12 4.5z" />
</svg>
