<?xml version="1.0" standalone="no"?>
<!DOCTYPE svg PUBLIC "-//W3C//DTD SVG 1.1//EN" "http://www.w3.org/Graphics/SVG/1.1/DTD/svg11.dtd" >
<svg xmlns="http://www.w3.org/2000/svg" xmlns:xlink="http://www.w3.org/1999/xlink" version="1.1" viewBox="-10 0 1034 1024">
   <path fill="currentColor"
d="M348 147q-57 40 -91 102t-34 135h1q0 76 36 140t97 104q27 16 43 44q15 26 16 56v4v1l-10 213q-1 19 -15 33t-34 14t-34 -14.5t-14 -33.5v-3l10 -213q0 -12 -13 -21q-82 -52 -130 -138t-48 -186q0 -96 44 -179t120 -136q26 -18 55 -18t52 15q23 14 36.5 38.5t13.5 52.5
v181q0 8 6 13l48 33q4 3 9 3t9 -3l11 -8q12 -8 25 -17l12 -8q7 -5 8 -13h-2v-181q0 -29 13.5 -52.5t36.5 -38.5q24 -15 51 -15q31 0 56 18q76 52 120 135.5t44 179.5q0 101 -48 186.5t-130 137.5q-13 8 -13 20l10 214v2q0 20 -14 34t-34 14q-11 0 -22 -5q-26 -12 -27 -41
l-10 -214v-4q0 -31 16 -56q16 -28 43 -44q61 -39 97.5 -103.5t36.5 -140.5h-1q0 -73 -33.5 -135t-90.5 -102q-4 3 -4 10v181q0 59 -49 93l-49 32q-28 19 -62.5 19t-61.5 -19l-13 -9q-12 -7 -24 -15l-12 -8q-49 -34 -49 -93v-181q0 -7 -4 -10z" />
</svg>
