<?xml version="1.0" standalone="no"?>
<!DOCTYPE svg PUBLIC "-//W3C//DTD SVG 1.1//EN" "http://www.w3.org/Graphics/SVG/1.1/DTD/svg11.dtd" >
<svg xmlns="http://www.w3.org/2000/svg" xmlns:xlink="http://www.w3.org/1999/xlink" version="1.1" viewBox="-10 0 1044 1024">
   <path fill="currentColor"
d="M96 511.5q0 112.5 56 208.5t151.5 152t208.5 56q19 0 33.5 14t14.5 34t-14.5 34t-33.5 14q-139 0 -257 -68.5t-186.5 -186.5t-68.5 -257t68.5 -257t186.5 -186.5t257 -68.5t257 68.5t186.5 186.5t68.5 257q0 19 -14 33.5t-34 14.5t-34 -14.5t-14 -33.5q0 -113 -56 -208.5
t-151.5 -151.5t-208.5 -56t-208.5 56t-151.5 151.5t-56 208zM555 795q-4 -5 -4 -11.5t4 -10.5l185 -185q5 -5 12 -5l1 -1q6 0 11 5q4 5 4 12v137h208q20 0 34 14t14 34t-14 33.5t-34 13.5h-208v23.5v45v50.5v20q0 6 -4.5 10.5t-11.5 4.5t-12 -4zM722 434l-37 37l-72.5 72.5
t-82 81.5l-32.5 32q-13 14 -34 14q0 1 -1 1q-19 0 -33 -15q-4 -3 -10 -9t-22.5 -23t-31.5 -32l-30 -30l-24 -24t-10 -9v0q-14 -14 -14 -34t14 -34t34 -14t34 14l94 94l31.5 -31.5t61.5 -61t69.5 -69.5l27.5 -28q13 -14 33.5 -14t34.5 14t14 34t-14 34z" />
</svg>
