<?xml version="1.0" standalone="no"?>
<!DOCTYPE svg PUBLIC "-//W3C//DTD SVG 1.1//EN" "http://www.w3.org/Graphics/SVG/1.1/DTD/svg11.dtd" >
<svg xmlns="http://www.w3.org/2000/svg" xmlns:xlink="http://www.w3.org/1999/xlink" version="1.1" viewBox="-10 0 1034 1024">
   <path fill="currentColor"
d="M705 111v81h143q20 0 34 14t14 34t-14 34t-34 14h-672q-20 0 -34 -14t-14 -34t14 -34t34 -14h143v-81q0 -46 33.5 -78.5t79.5 -32.5h160q46 0 79.5 32.5t33.5 78.5zM288 427l42 423q1 6 5.5 10t10.5 4h332q6 0 10.5 -4t5.5 -10l10.5 -106t21.5 -212l10 -105
q2 -17 16 -29.5t31 -12.5q20 0 34 14t14 34v3l-41 423q-4 43 -36 71.5t-76 28.5v1q0 -1 -83 -1h-166l-83 1q-43 -1 -75 -29.5t-37 -71.5l-10.5 -105.5t-20.5 -210.5l-10 -106l-2 -6q0 -20 14.5 -34t34.5 -14q19 0 33 13t15 31zM416 111v81h192v-81q0 -6 -4.5 -10.5
t-11.5 -4.5h-160q-7 0 -11.5 4.5t-4.5 10.5z" />
</svg>
