<?xml version="1.0" standalone="no"?>
<!DOCTYPE svg PUBLIC "-//W3C//DTD SVG 1.1//EN" "http://www.w3.org/Graphics/SVG/1.1/DTD/svg11.dtd" >
<svg xmlns="http://www.w3.org/2000/svg" xmlns:xlink="http://www.w3.org/1999/xlink" version="1.1" viewBox="-10 0 1044 1024">
   <path fill="currentColor"
d="M429 640h-279l-57 160q-5 14 -17.5 22t-27.5 8q-19 0 -33.5 -13.5t-14.5 -34.5q0 -7 3 -14l54.5 -155t108.5 -310l54 -155q7 -24 27.5 -38t45.5 -14q26 0 46 15t28 38l206 620q2 7 2 14q0 19 -13.5 33.5t-34.5 14.5q-15 0 -27.5 -9t-17.5 -23zM630 361q31 -56 85.5 -80.5
t115.5 -24.5q78 0 135.5 45t57.5 122v361q0 19 -14 33.5t-34 14.5q-15 0 -27 -8.5t-17 -21.5q-56 29 -127 29h-5q-79 0 -133 -45q-58 -50 -59 -130q0 -76 57 -125q60 -51 166 -51h97v-57q0 -29 -25 -50t-72 -21q-87 0 -116 54q-14 26 -43 26q-19 0 -33.5 -14.5t-14.5 -33.5
q0 -13 6 -23zM397 544l-104 -314l-110 314h214zM928 575h-97q-71 0 -104 29q-22 19 -22 49v3q0 36 24 58q26 22 67 22h4q62 0 101 -29q27 -19 27 -35v-97z" />
</svg>
