<?xml version="1.0" standalone="no"?>
<!DOCTYPE svg PUBLIC "-//W3C//DTD SVG 1.1//EN" "http://www.w3.org/Graphics/SVG/1.1/DTD/svg11.dtd" >
<svg xmlns="http://www.w3.org/2000/svg" xmlns:xlink="http://www.w3.org/1999/xlink" version="1.1" viewBox="-10 0 1034 1024">
   <path fill="currentColor"
d="M523 43l186 185q5 5 5 12t-5.5 11.5t-11.5 4.5h-34h-69h-34v80q0 20 -14.5 34t-33.5 14t-33.5 -14t-14.5 -34v-80h-137q-6 0 -11.5 -4.5t-5.5 -11.5t5 -12l186 -185q5 -4 11 -4t11 4zM464 688q0 -20 14.5 -34t33.5 -14t33.5 13.5t14.5 34.5v80h137q6 0 11.5 4.5t5.5 11
t-5 11.5l-186 186q-5 4 -11 4t-11 -4l-46.5 -46.5t-93.5 -92.5l-46 -47q-5 -5 -5 -11.5t5.5 -11t11.5 -4.5h34h69h34v-80zM144 560h-32q-19 0 -34 -14.5t-15 -34t14.5 -33.5t34.5 -14h32q19 0 34 14t15 33.5t-15 34t-34 14.5zM384 511.5q0 19.5 -14 34t-34 14.5h-32
q-20 0 -34 -14.5t-14 -34t14 -33.5t34 -14h32q20 0 34 14t14 33.5zM528 560h-32q-19 0 -33 -14.5t-14 -34t13.5 -33.5t33.5 -14h32q19 0 33 14t14 33.5t-14 34t-33 14.5zM768 511.5q0 19.5 -14 34t-34 14.5h-32q-20 0 -34 -14.5t-14 -34t14 -33.5t34 -14h32q20 0 34 14
t14 33.5zM912 560h-32q-19 0 -34 -14.5t-15 -34t14.5 -33.5t34.5 -14h32q19 0 34 14t15 33.5t-15 34t-34 14.5z" />
</svg>
