<?xml version="1.0" standalone="no"?>
<!DOCTYPE svg PUBLIC "-//W3C//DTD SVG 1.1//EN" "http://www.w3.org/Graphics/SVG/1.1/DTD/svg11.dtd" >
<svg xmlns="http://www.w3.org/2000/svg" xmlns:xlink="http://www.w3.org/1999/xlink" version="1.1" viewBox="-10 0 1044 1024">
   <path fill="currentColor"
d="M826 379q36 -38 36 -89q0 -53 -37.5 -90.5t-90.5 -37.5q-51 0 -89 35l-53 54q-14 14 -35 14q-19 0 -33.5 -14t-14.5 -33q0 -20 15 -35l54 -53q66 -67 158 -67t157.5 66t65.5 159t-65 158l-12 13q-13 13 -33 13q-19 0 -33.5 -14.5t-14.5 -33.5t13 -33l3 -3l6 -6zM707 601
q-2 3 -5 5q-67 67 -150 81q-22 4 -41 4q-73 0 -125 -53q-15 -13 -15 -35q0 -19 13.5 -33.5t34.5 -14.5q20 0 35 15q24 25 60 25q10 0 22 -2q50 -9 92 -48l-80 -58v-1l-20 -13q-40 -26 -81 -26q-5 0 -10 1q-46 3 -80 37l-159 160q-39 38 -39 92q0 53 37 90.5t91 37.5t92 -39
l13.5 -13t26.5 -27l13 -13q13 -13 33 -13q19 0 33.5 14t14.5 34q0 19 -13 33l-13.5 13t-26.5 26l-14 14q-66 67 -157 67h-1q-92 -1 -157.5 -67t-65.5 -158.5t65 -158.5l160 -159q37 -38 86 -55l-229 -165q-19 -14 -19 -38q0 -19 14 -34t34 -15q15 0 28 10l95 68.5t189 135.5
l96 69q10 6 21 15l399 288q20 14 20 39q0 19 -14 33.5t-34 14.5q-15 0 -28 -9l-60.5 -43.5t-120.5 -86.5z" />
</svg>
