<?xml version="1.0" standalone="no"?>
<!DOCTYPE svg PUBLIC "-//W3C//DTD SVG 1.1//EN" "http://www.w3.org/Graphics/SVG/1.1/DTD/svg11.dtd" >
<svg xmlns="http://www.w3.org/2000/svg" xmlns:xlink="http://www.w3.org/1999/xlink" version="1.1" viewBox="-10 0 1044 1024">
   <path fill="currentColor"
d="M484 132q28 13 28 44v672q0 20 -14.5 34t-33.5 14q-17 0 -31 -11l-52.5 -45.5t-106.5 -90.5l-52 -45h-110q-46 0 -79 -33t-33 -79v-160q0 -46 33 -79.5t79 -33.5h110l211 -180q13 -11 31 -11q10 0 20 4zM416 280l-145 124q-13 11 -31 12h-32h-64h-32q-6 0 -11 4.5
t-5 11.5v160q0 7 4.5 11.5t11.5 4.5h128q18 0 31 11l145 124v-463zM806.5 150q13.5 -14 33.5 -14t34 13q71 72 110.5 165t39.5 197.5t-39.5 198t-110.5 164.5q-14 12 -32 13q-20 0 -34 -14t-14 -35q0 -18 12 -32q58 -57 90 -133t32 -161t-32.5 -161t-89.5 -133
q-13 -14 -13 -34t13.5 -34zM738 285q93 94 93 226.5t-93 226.5q-14 15 -35 15q-17 0 -30 -10t-17 -26q-1 -5 -1 -12q0 -20 16 -34q66 -66 66 -158l-1 -1q0 -93 -65 -159q-14 -13 -15 -33v-1q0 -20 14 -34t34 -14t34 14z" />
</svg>
