<?xml version="1.0" standalone="no"?>
<!DOCTYPE svg PUBLIC "-//W3C//DTD SVG 1.1//EN" "http://www.w3.org/Graphics/SVG/1.1/DTD/svg11.dtd" >
<svg xmlns="http://www.w3.org/2000/svg" xmlns:xlink="http://www.w3.org/1999/xlink" version="1.1" viewBox="-10 0 1044 1024">
   <path fill="currentColor"
d="M411 33q45 -33 101 -33t101 33l15 11t29 21l16 12q15 11 33 13l73 11q55 9 94.5 48.5t49.5 95.5l2.5 18t5.5 37l3 17q2 18 13 34l44 59q33 45 33 102q0 56 -33 101l-11 15t-22 29l-11 16q-11 15 -13 32l-3 18.5t-6 37.5l-2 17q-9 55 -48.5 95t-95.5 49h-1q-3 0 -18 3
l-36 6l-18 3q-17 2 -33 13l-15 11t-29 22l-16 10q-45 34 -101 34t-101 -34l-6.5 -4t-15 -10.5l-17 -13t-15.5 -11.5l-6 -4q-15 -11 -33 -13l-18 -3t-37 -7l-18 -2q-55 -9 -94.5 -48.5t-49.5 -94.5l-2.5 -18.5t-5.5 -36.5l-3 -18q-2 -18 -13 -33l-4.5 -6.5t-11 -15t-13 -17.5
t-10.5 -15l-5 -6q-33 -45 -33 -101t33 -102l11 -14.5t22 -29.5l11 -15q11 -15 13 -33l3 -18.5t6 -36.5l2 -18q9 -55 48.5 -95t95.5 -49l18.5 -2.5t36.5 -5.5l17 -3q18 -2 34 -13zM557 110q-20 -14 -45 -14t-45 14l-15 11t-29 22l-15 11q-34 25 -75 31l-18.5 3t-35.5 5l-19 3
q-25 4 -42 21.5t-21 42.5l-3 18l-6 36l-3 19q-6 41 -30 74l-5 6.5t-11.5 15t-12.5 17t-11 15.5l-4 6q-14 20 -15 44v2q0 24 15 44l44 59q25 34 30 75l12 73q4 25 21.5 42t41.5 21l73 11q41 6 75 31l59 44q20 14 45 14q1 1 2 1q24 0 43 -15l59 -44q34 -25 75 -31l18.5 -3
t35.5 -5l19 -3q25 -4 42 -21.5t21 -41.5l12 -73q6 -41 30 -75l44 -59q14 -20 15 -45v-2q0 -24 -15 -43l-44 -60q-25 -34 -30 -74l-3 -18.5t-6 -36.5l-3 -18q-4 -25 -21.5 -42t-41.5 -22l-18 -2.5t-36 -5.5l-19 -3q-41 -6 -75 -31l-14.5 -11t-30.5 -21zM442 389h1
q-13 27 -43 27q-20 0 -34 -14.5t-14 -34.5q0 -11 5 -21q19 -39 55 -63q41 -27 96 -27h4h1q57 0 103 34q55 41 56 110q0 42 -21 73q-15 24 -45 43q-4 3 -19 12h-1q-8 5 -17 10q-10 6 -17 17q-14 20 -40 20q-19 0 -33.5 -13.5t-14.5 -34.5q0 -14 8 -25q17 -26 44 -43
q6 -4 21 -13q13 -8 16 -10q11 -6 18 -16q4 -7 4 -20l2 -2q0 -20 -18 -32q-20 -14 -46 -14h-1q-30 0 -47 11q-15 11 -23 26zM575 704q0 26 -18 45t-45 19t-45 -19t-18 -45t18 -45t45 -19t45 19t18 45z" />
</svg>
