<?xml version="1.0" standalone="no"?>
<!DOCTYPE svg PUBLIC "-//W3C//DTD SVG 1.1//EN" "http://www.w3.org/Graphics/SVG/1.1/DTD/svg11.dtd" >
<svg xmlns="http://www.w3.org/2000/svg" xmlns:xlink="http://www.w3.org/1999/xlink" version="1.1" viewBox="-10 0 1034 1024">
   <path fill="currentColor"
d="M176 896q-46 0 -79.5 -33t-33.5 -79v-161q0 -19 14.5 -33.5t34.5 -14.5t34 14.5t14 33.5v161q0 6 4.5 11t11.5 5h672q7 0 11.5 -5t4.5 -11v-161q0 -19 14 -33.5t34 -14.5t34.5 14.5t14.5 33.5v161q0 46 -33.5 79t-79.5 33h-672zM754 302q14 14 14 34t-14 34t-34 14
t-34 -15l-31.5 -31t-62.5 -63l-32 -31v364q0 19 -14.5 33.5t-33.5 14.5t-33.5 -14t-14.5 -34v-364l-126 125q-14 14 -34 14l-1 1q-19 0 -33 -14t-14 -34t14 -34l208 -208q14 -14 33.5 -14t34.5 14l52 51.5t103 104.5z" />
</svg>
