<?xml version="1.0" standalone="no"?>
<!DOCTYPE svg PUBLIC "-//W3C//DTD SVG 1.1//EN" "http://www.w3.org/Graphics/SVG/1.1/DTD/svg11.dtd" >
<svg xmlns="http://www.w3.org/2000/svg" xmlns:xlink="http://www.w3.org/1999/xlink" version="1.1" viewBox="-10 0 1044 1024">
   <path fill="currentColor"
d="M722 434l-240 240q-14 14 -34 14t-34 -14q0 -1 -28 -29t-56 -55l-28 -28q-13 -14 -13 -33q0 -20 14 -34t34 -14q19 0 33 12l20 20q20 20 38 40l21 19l205 -206q13 -13 33 -13q19 0 33.5 14t14.5 34q0 19 -13 33zM467 110l-59 43q-34 26 -75 32q-1 0 -19 2t-35 6l-19 3
q-25 4 -42 21.5t-21 42.5l-3 18l-6 36l-3 19q-6 41 -30 74q1 0 -11 15t-22 30l-11 15q-14 20 -15 44v2q0 24 15 44q1 0 11 14q10 15 21 30l12 14q25 35 30 76l12 73q4 25 21.5 42t41.5 21l73 11q41 6 75 31l14 12q14 12 31 21l14 11q20 14 45 14q1 1 2 1q24 0 43 -15l59 -44
q34 -25 75 -31q1 0 19 -3t35 -5l19 -3q25 -4 42 -21.5t21 -41.5l3 -18q3 -18 6 -37l3 -18q6 -41 30 -75q-1 -1 11 -15t22 -30l11 -14q14 -20 15 -45v-2q0 -24 -15 -43q-1 0 -11 -15t-21 -29l-12 -16q-25 -34 -30 -74l-3 -18q-3 -18 -6 -38l-3 -17q-4 -25 -21.5 -42
t-41.5 -22q0 -1 -18 -3t-36 -5l-19 -3q-41 -6 -75 -32q-1 0 -6 -4q-6 -4 -14.5 -10.5t-17.5 -12.5t-15 -12l-6 -4q-20 -14 -45 -14t-45 14zM613 33l60 44q15 11 34 13l72 11q55 9 94.5 48.5t49.5 95.5q1 0 3 18t5 37l3 18q2 17 13 33l43 59q34 45 34 102q0 56 -34 101
l-10 15q-10 15 -22 29l-11 16q-11 15 -13 32l-3 18q-3 18 -6 38l-2 18q-9 55 -49 94.5t-96 48.5l-18 3l-36 6l-18 3q-17 2 -33 13l-15 11q-15 11 -29 22l-16 11q-45 33 -101 33t-101 -33l-15 -11l-30 -22l-15 -11q-15 -11 -34 -13l-17 -3q-18 -3 -37 -7l-18 -2
q-55 -9 -94.5 -48.5t-49.5 -94.5q-1 0 -3 -18t-5 -37l-3 -18q-2 -18 -13 -33l-11 -15q-11 -15 -22 -29l-11 -16q-33 -45 -33 -101t33 -102q0 -1 11 -15t22 -29l11 -15q11 -15 13 -33l11 -73q9 -55 48.5 -95t95.5 -49q1 0 19 -2t36 -6l18 -3q17 -2 33 -13l60 -44
q45 -33 101 -33t101 33z" />
</svg>
