<?xml version="1.0" standalone="no"?>
<!DOCTYPE svg PUBLIC "-//W3C//DTD SVG 1.1//EN" "http://www.w3.org/Graphics/SVG/1.1/DTD/svg11.dtd" >
<svg xmlns="http://www.w3.org/2000/svg" xmlns:xlink="http://www.w3.org/1999/xlink" version="1.1" viewBox="-10 0 1044 1024">
   <path fill="currentColor"
d="M496 896q-46 0 -79 -33t-33 -79v-545q0 -46 33 -78.5t79 -32.5h416q46 0 79 32.5t33 78.5v545q0 46 -33 79t-79 33h-416zM480 784q0 6 4.5 11t11.5 5h416q6 0 11 -5t5 -11v-545q0 -6 -4.5 -10.5t-11.5 -4.5h-416q-6 0 -11 4.5t-5 10.5v545zM313 224q7 11 8 25
q0 28 -25 41q-8 5 -8 14v416q0 9 8 14q25 13 25 41q0 20 -14.5 34t-34.5 14q-13 0 -24 -6q-26 -15 -40.5 -41t-14.5 -56v-416q0 -31 14.5 -56.5t40.5 -40.5q11 -6 24 -6h2q27 0 39 23zM104 354q-8 4 -8 13v289q0 9 8 13q24 14 24 42q0 19 -14 34t-34 15q-12 0 -24 -8
q-26 -14 -41 -40t-15 -56v-289q0 -31 15.5 -56.5t40.5 -39.5q10 -7 24 -7q19 0 33.5 14.5t14.5 33.5q0 28 -24 42z" />
</svg>
