<?xml version="1.0" standalone="no"?>
<!DOCTYPE svg PUBLIC "-//W3C//DTD SVG 1.1//EN" "http://www.w3.org/Graphics/SVG/1.1/DTD/svg11.dtd" >
<svg xmlns="http://www.w3.org/2000/svg" xmlns:xlink="http://www.w3.org/1999/xlink" version="1.1" viewBox="-10 0 1044 1024">
   <path fill="currentColor"
d="M352 272q0 40 20.5 74.5t55.5 52.5q26 13 26 42q0 12 -5 23l-166 310q-13 26 -43 26q-19 0 -33 -14t-14 -35q0 -11 5 -22q9 -17 24 -45.5t47 -88t53 -99l21 -39.5q-41 -34 -64 -82.5t-23 -102.5q0 -99 70 -169.5t169.5 -70.5t170 70.5t70.5 169.5q0 19 -14 33t-34 14
t-34 -13.5t-14 -33.5q0 -60 -42 -102t-102 -42t-102 42t-42 102zM471 230q11 -6 25 -6q28 0 42 24l167 277q38 -13 78 -13q99 0 170 70t71 169.5t-70.5 170t-170.5 70.5q-63 0 -119 -33q-24 -13 -24 -41q0 -20 14 -34t34 -14q12 0 24 6q34 19 71 20q60 0 102.5 -42.5
t42.5 -102t-42 -101.5t-103 -42q-39 0 -73 21q-11 6 -25 6q-27 0 -41 -23l-189 -315q-6 -11 -6 -25v-2q0 -27 22 -40zM185 561q6 11 6 25q0 28 -23 40q-33 19 -52.5 53t-19.5 72q0 60 42 102.5t101.5 42.5t102 -42t42.5 -103q0 -19 14 -33.5t34 -14.5h352q19 0 33 14.5
t14 34.5t-13.5 34t-33.5 14h-309q-16 83 -82 137.5t-153 54.5q-99 0 -169.5 -70.5t-70.5 -170.5q0 -66 33 -121t87 -86q11 -6 24 -7q28 0 41 24z" />
</svg>
