<?xml version="1.0" standalone="no"?>
<!DOCTYPE svg PUBLIC "-//W3C//DTD SVG 1.1//EN" "http://www.w3.org/Graphics/SVG/1.1/DTD/svg11.dtd" >
<svg xmlns="http://www.w3.org/2000/svg" xmlns:xlink="http://www.w3.org/1999/xlink" version="1.1" viewBox="-10 0 1044 1024">
   <path fill="currentColor"
d="M150 874q-71 -71 -110.5 -164.5t-39.5 -198t40.5 -199t109 -163t163.5 -109t199 -40.5t197.5 39.5t164.5 110.5t110.5 164t39.5 197.5t-40.5 199.5t-109 163.5t-163.5 109t-199 40.5t-197.5 -39.5t-164.5 -110.5zM386 318q-14 -13 -33 -13q-20 0 -34 14t-14 34
q0 18 13 33l31.5 31t63.5 63l31 32l-126 126q-15 14 -15 35q0 17 10.5 30t25.5 17q6 1 12 1q20 0 35 -16l126 -126l126 126q14 15 35 16q17 0 30 -10.5t17 -25.5q1 -6 1 -12q0 -20 -15 -35l-126 -126l126 -126q15 -14 15 -35q0 -17 -10.5 -30t-25.5 -17q-6 -1 -12 -1
q-20 0 -35 15l-126 126z" />
</svg>
