<?xml version="1.0" standalone="no"?>
<!DOCTYPE svg PUBLIC "-//W3C//DTD SVG 1.1//EN" "http://www.w3.org/Graphics/SVG/1.1/DTD/svg11.dtd" >
<svg xmlns="http://www.w3.org/2000/svg" xmlns:xlink="http://www.w3.org/1999/xlink" version="1.1" viewBox="-10 0 1044 1024">
   <path fill="currentColor"
d="M288 432h384q20 0 34 14t14 34t-14 34t-34 14h-384q-19 0 -33.5 -14t-14.5 -34t14.5 -34t33.5 -14zM0 479.5q0 -97.5 38 -186t102.5 -153t153 -102.5t186.5 -38t187 38t153 102.5t102.5 153t38.5 186.5q0 171 -109 303l39.5 40t79.5 79l39 40q14 14 14 34t-14 34t-34 14
t-34 -15l-159 -157q-131 107 -300 107h-3q-97 0 -186 -37.5t-153.5 -101.5t-102.5 -153.5t-38 -187zM480.5 96q-104.5 0 -193 51t-140 140t-51.5 193.5t51.5 192.5t140 139.5t193 51.5t192.5 -51.5t139.5 -139.5t51.5 -192.5t-51.5 -193.5t-139.5 -140t-192.5 -51z" />
</svg>
