<?xml version="1.0" standalone="no"?>
<!DOCTYPE svg PUBLIC "-//W3C//DTD SVG 1.1//EN" "http://www.w3.org/Graphics/SVG/1.1/DTD/svg11.dtd" >
<svg xmlns="http://www.w3.org/2000/svg" xmlns:xlink="http://www.w3.org/1999/xlink" version="1.1" viewBox="-10 0 1044 1024">
   <path fill="currentColor"
d="M240 480q0 -20 14 -34t34 -14h144v-144q0 -19 14 -34t34 -15t34 14.5t14 34.5v144h144q20 0 34 14t14 34t-14 34t-34 14h-144v144q0 20 -14 34t-34 14t-34 -14t-14 -34v-144h-144q-19 0 -33.5 -14t-14.5 -34zM480 0q98 0 187 38t153 102.5t102.5 153t38.5 186.5
q0 171 -109 303l39.5 40t79.5 79l39 40q14 14 14 34t-14 34t-34 14t-34 -15l-159 -157q-131 107 -300 107h-3q-97 0 -186 -37.5t-153 -102.5t-102.5 -153.5t-38.5 -186t38.5 -186t102.5 -153t152.5 -102.5t186.5 -38zM96 480.5q0 104.5 51.5 192.5t140 139.5t193 51.5
t192.5 -51.5t139.5 -139.5t51.5 -192.5t-51.5 -193.5t-139.5 -140t-192.5 -51t-193 51t-140 140t-51.5 193.5z" />
</svg>
