<?xml version="1.0" standalone="no"?>
<!DOCTYPE svg PUBLIC "-//W3C//DTD SVG 1.1//EN" "http://www.w3.org/Graphics/SVG/1.1/DTD/svg11.dtd" >
<svg xmlns="http://www.w3.org/2000/svg" xmlns:xlink="http://www.w3.org/1999/xlink" version="1.1" viewBox="-10 0 1034 1024">
   <path fill="currentColor"
d="M466 11q20 0 35 14l147 148l124 -125q14 -14 34 -14t34 14l136 136q14 13 14 33t-14 35l-125 124l147 147q14 14 14 34l1 1q0 19 -15 33l-135 136q-14 14 -34 14t-34 -14l-498 -498q-14 -14 -14 -34t14 -34l136 -136q13 -14 33 -14zM399 195l429 429l69 -67l-147 -147
q-14 -14 -14 -34l-1 -1q0 -19 15 -33l124 -124l-68 -69l-124 125q-14 14 -34 15h-1q-19 0 -34 -15l-146 -147zM161 297q14 -14 34 -14l1 -1q19 0 33 15l498 497q14 14 14 34.5t-14 34.5l-136 135q-13 14 -33 15h-1q-19 0 -34 -15l-147 -147l-124 125q-14 14 -34 14t-34 -14
l-136 -137q-14 -13 -14 -33t14 -34l125 -124l-147 -147q-14 -14 -14 -34q-1 -1 -1 -2q0 -19 15 -32zM127 467l147 146q14 14 14 34l1 1q0 19 -15 34l-124 124l68 68l124 -125q14 -14 34 -14t35 14l146 148l68 -69l-429 -429z" />
</svg>
