<?xml version="1.0" standalone="no"?>
<!DOCTYPE svg PUBLIC "-//W3C//DTD SVG 1.1//EN" "http://www.w3.org/Graphics/SVG/1.1/DTD/svg11.dtd" >
<svg xmlns="http://www.w3.org/2000/svg" xmlns:xlink="http://www.w3.org/1999/xlink" version="1.1" viewBox="-10 0 1038 1024">
   <path fill="currentColor"
d="M90 536q0 -117 56 -215l2 -4l-38 -32q-19 -15 -20 -39q0 -18 11 -33q14 -18 39 -19q17 0 32 12l38 30q39 -41 89 -70q75 -44 160 -55v-54q0 -20 14.5 -35.5t35.5 -15.5t36 15.5t15 35.5v54q85 10 160 55q50 30 89 70l38 -30q13 -11 32 -12q25 0 39 19q11 14 11 33
q0 25 -20 39l-39 32l2 4q56 98 57 215q0 22 -2 43l52 13q16 4 27.5 17.5t11.5 32.5q0 5 -2 11q-3 17 -17 28.5t-32 11.5q-5 0 -11 -1l-51 -12q-13 37 -33 70q-51 90 -136 146l23 48q5 10 5 22q0 32 -29 47q-10 5 -21 5q-32 0 -45 -29l-24 -49q-62 22 -129 22h-6
q-71 0 -134 -21l-23 47q-13 30 -45 30q-11 0 -21 -5q-29 -14 -29 -47q0 -12 5 -22l23 -47q-87 -55 -140 -147q-19 -34 -31 -69l-47 11q-5 1 -11 1q-18 0 -32 -11t-17 -29q-2 -6 -2 -11q0 -18 11.5 -32t27.5 -18l47 -12q-2 -21 -2 -44zM730 301q-74 -72 -170 -86v224z
M792 382l-160 129l195 46q1 -10 1 -21v-4q0 -82 -36 -150zM459 215q-96 14 -170 86l170 138v-224zM531 471q-10 -3 -21.5 -3t-22.5 3q-17 6 -29 21q-5 6 -8 13q-7 14 -8 30q0 11 4 24v-1q6 20 24 34v0q4 3 9 5v0q14 7 31 7q15 0 30 -7v0q1 0 2 -1v0q4 -2 7 -4l2 -2
q15 -11 21 -30v0q4 -12 5 -25q0 -11 -4 -21q-4 -11 -12 -22q-13 -15 -30 -21zM806 657l-205 -48l91 194q22 -16 43 -37q48 -50 71 -109zM601 847l-90 -190l-91 191q42 12 90 12t91 -13zM330 804l70 -150l22 -44l-209 48q24 58 72 107q21 23 45 39zM191 558l161 -37l36 -8
l-161 -131q-37 69 -37 153q0 12 1 23z" />
</svg>
