<?xml version="1.0" standalone="no"?>
<!DOCTYPE svg PUBLIC "-//W3C//DTD SVG 1.1//EN" "http://www.w3.org/Graphics/SVG/1.1/DTD/svg11.dtd" >
<svg xmlns="http://www.w3.org/2000/svg" xmlns:xlink="http://www.w3.org/1999/xlink" version="1.1" viewBox="-10 0 1034 1024">
   <path fill="currentColor"
d="M617 856q-6 0 -11 5t-5 11v34q0 7 5 12t11 5h168q7 0 12.5 -5t5.5 -12v-34q0 -6 -5 -11t-13 -5h-168zM617 520q-6 0 -11 5t-5 12v33q0 7 5 12.5t11 5.5h168q7 0 12.5 -5.5t5.5 -12.5v-33q0 -7 -5 -12t-13 -5h-168zM181 100q-7 0 -11.5 5t-4.5 13v117q0 6 4.5 11.5
t11.5 5.5h504q7 0 11.5 -5.5t4.5 -11.5v-117q0 -7 -4.5 -12.5t-11.5 -5.5h-504zM63 118q0 -49 35 -83.5t83 -34.5h504q49 0 83.5 34t34.5 84v117q0 48 -34.5 82.5t-83.5 34.5h-370v152h190q8 -28 30 -50q34 -34 79 -34h3h168q49 0 83.5 34t34.5 83v33q0 49 -34 83.5
t-84 34.5h-168q-48 0 -82 -35q-22 -22 -30 -49h-190v235h190q8 -28 30 -49q34 -34 79 -34h3h168q49 0 83.5 34t34.5 82v34q0 49 -34 83.5t-84 34.5h-168q-48 0 -82 -35q-22 -22 -30 -49h-240q-20 0 -35 -15t-15 -35v-538h-34q-48 0 -83 -34.5t-35 -82.5v-117z" />
</svg>
