<?xml version="1.0" standalone="no"?>
<!DOCTYPE svg PUBLIC "-//W3C//DTD SVG 1.1//EN" "http://www.w3.org/Graphics/SVG/1.1/DTD/svg11.dtd" >
<svg xmlns="http://www.w3.org/2000/svg" xmlns:xlink="http://www.w3.org/1999/xlink" version="1.1" viewBox="-10 0 1034 1024">
   <path fill="currentColor"
d="M96 256q0 -46 33 -79t79 -33h640q46 0 79.5 33t33.5 79v416q0 20 -14.5 34t-34.5 14t-34 -14t-14 -34v-416q0 -6 -4.5 -11.5t-11.5 -5.5h-640q-6 0 -10.5 5.5t-4.5 11.5v416q0 20 -14.5 34t-34.5 14t-34 -14t-14 -34v-416zM144 864q-20 0 -34 -14.5t-14 -34.5t14 -33.5
t34 -13.5t34.5 13.5t14.5 33.5t-14.5 34.5t-34.5 14.5zM912 864q-20 0 -34 -14.5t-14 -34.5t14 -33.5t34 -13.5t34.5 13.5t14.5 33.5t-14.5 34.5t-34.5 14.5zM720 864q-20 0 -34 -14.5t-14 -34.5t14 -33.5t34 -13.5t34 13.5t14 33.5t-14 34.5t-34 14.5zM336 864
q-20 0 -34 -14.5t-14 -34.5t14 -33.5t34 -13.5t34 13.5t14 33.5t-14 34.5t-34 14.5zM528 864q-20 0 -34 -14.5t-14 -34.5t14 -33.5t34 -13.5t33.5 13.5t13.5 33.5t-13.5 34.5t-33.5 14.5z" />
</svg>
