<?xml version="1.0" standalone="no"?>
<!DOCTYPE svg PUBLIC "-//W3C//DTD SVG 1.1//EN" "http://www.w3.org/Graphics/SVG/1.1/DTD/svg11.dtd" >
<svg xmlns="http://www.w3.org/2000/svg" xmlns:xlink="http://www.w3.org/1999/xlink" version="1.1" viewBox="-10 0 1044 1024">
   <path fill="currentColor"
d="M0 128q0 -53 37.5 -90.5t90.5 -37.5h768q53 0 90.5 37.5t37.5 90.5v256q0 53 -37.5 90.5t-90.5 37.5h-768q-53 0 -90.5 -37.5t-37.5 -90.5v-256zM128 109q-7 0 -12.5 6t-5.5 13v256q0 7 5.5 12.5t12.5 5.5h768q7 0 12.5 -5.5t5.5 -12.5v-256q0 -7 -5.5 -13t-12.5 -6h-768
zM0 713q0 -52 37.5 -90t90.5 -38h183q52 0 90 37.5t38 90.5v183q0 53 -37.5 90.5t-90.5 37.5h-183q-53 0 -90.5 -37.5t-37.5 -90.5v-183zM128 695q-7 0 -12.5 5t-5.5 13v183q0 7 5.5 12.5t12.5 5.5h183q7 0 12.5 -5.5t5.5 -12.5v-183q0 -7 -5.5 -12.5t-12.5 -5.5h-183z
M585 713q0 -52 37.5 -90t90.5 -38h183q53 0 90.5 37.5t37.5 90.5v183q0 53 -37.5 90.5t-90.5 37.5h-183q-52 0 -90 -37.5t-38 -90.5v-183zM713 695q-7 0 -12.5 5t-5.5 13v183q0 7 5.5 12.5t12.5 5.5h183q7 0 12.5 -5.5t5.5 -12.5v-183q0 -7 -5.5 -12.5t-12.5 -5.5h-183z" />
</svg>
