<?xml version="1.0" standalone="no"?>
<!DOCTYPE svg PUBLIC "-//W3C//DTD SVG 1.1//EN" "http://www.w3.org/Graphics/SVG/1.1/DTD/svg11.dtd" >
<svg xmlns="http://www.w3.org/2000/svg" xmlns:xlink="http://www.w3.org/1999/xlink" version="1.1" viewBox="-10 0 1044 1024">
   <path fill="currentColor"
d="M264 241.5q0 -20.5 14.5 -35t34.5 -14.5h398q20 0 34.5 14.5t14.5 35t-14.5 35t-34.5 14.5h-150v479q0 20 -14.5 34.5t-34.5 14.5t-34.5 -14.5t-14.5 -34.5v-479h-150q-20 0 -34.5 -14.5t-14.5 -35zM216 339q15 14 15 34.5t-14 34.5l-97 98l97 97q14 14 14 34.5t-14.5 35
t-35 14.5t-35.5 -14l-132 -133q-14 -14 -14 -34.5t14 -34.5l132 -132q14 -14 35 -14l1 -1q20 0 34 15zM807.5 338.5q14.5 -14.5 35 -14.5t35.5 15l132 132q14 14 14 34.5t-14 34.5l-132 133q-14 14 -35 14t-35.5 -14.5t-14.5 -35t14 -34.5l97 -97l-97 -98q-14 -14 -14 -34.5
t14.5 -35z" />
</svg>
