<?xml version="1.0" standalone="no"?>
<!DOCTYPE svg PUBLIC "-//W3C//DTD SVG 1.1//EN" "http://www.w3.org/Graphics/SVG/1.1/DTD/svg11.dtd" >
<svg xmlns="http://www.w3.org/2000/svg" xmlns:xlink="http://www.w3.org/1999/xlink" version="1.1" viewBox="-10 0 1044 1024">
   <path fill="currentColor"
d="M0 189q0 -52 37 -89t89 -37h179q52 0 89 37t37 89v36q0 52 -37 89t-89 37h-179q-52 0 -89 -37t-37 -89v-36zM126 172q-7 0 -12.5 5t-5.5 12v36q0 8 5.5 13.5t12.5 5.5h179q8 0 13.5 -5.5t5.5 -13.5v-36q0 -7 -5.5 -12t-13.5 -5h-179zM521 207.5q0 -22.5 16 -38.5t37 -16
h396q23 0 38.5 16t15.5 38.5t-16 38t-38 15.5h-396q-22 0 -37.5 -15.5t-15.5 -38zM18 531q0 -22 15.5 -38t38.5 -16h683q23 0 38 16t15 38t-15.5 38t-37.5 16h-683q-23 0 -38.5 -16t-15.5 -38zM18 854q0 -22 15.5 -37.5t38.5 -15.5h862q23 0 38.5 15.5t15.5 37.5t-16 38
t-38 16h-862q-23 0 -38.5 -16t-15.5 -38zM952.5 585q-22.5 0 -38.5 -16t-16 -38t16 -38t38.5 -16t38 16t15.5 38t-15.5 38t-38 16z" />
</svg>
