<?xml version="1.0" standalone="no"?>
<!DOCTYPE svg PUBLIC "-//W3C//DTD SVG 1.1//EN" "http://www.w3.org/Graphics/SVG/1.1/DTD/svg11.dtd" >
<svg xmlns="http://www.w3.org/2000/svg" xmlns:xlink="http://www.w3.org/1999/xlink" version="1.1" viewBox="-10 0 1043 1024">
   <path fill="currentColor"
d="M479 1q4 -1 16 -1t30 1q37 1 50 3q160 20 278.5 125.5t156.5 261.5q13 55 13 120.5t-13 121.5q-25 98 -83.5 179t-144.5 134.5t-189 71.5q-42 6 -83 6q-60 0 -119 -15q-169 -42 -277 -175t-113 -306v-20q0 -191 131 -339q61 -69 147 -113t176 -53q19 -1 24 -2zM566 100
q-29 -4 -57 -4q-93 0 -179 42q-61 30 -111.5 80t-80.5 112q-41 86 -41 182q0 72 22 135q16 47 41 86q49 78 125.5 127.5t170.5 63.5q20 3 56 3q4 1 8 1q30 0 48 -4q68 -10 127 -39q84 -41 143 -115.5t80 -163.5q10 -47 10 -94t-10 -94q-19 -84 -75 -158q-12 -16 -37.5 -41.5
t-41.5 -37.5q-90 -68 -198 -81zM494 274q4 -1 20 -1q26 1 36 14q7 9 9 27v52v70q0 94 -0.5 111t-3.5 22q-7 14 -21 20q-7 2 -21.5 2t-22.5 -2q-14 -5 -21 -20q-3 -5 -3.5 -22t-0.5 -111v-55q0 -73 2 -80q5 -20 27 -27zM499 674v0q3 -1 10 -1h7q11 1 18 4q14 8 22 22
q4 9 4 19q0 8 -3 17q-4 14 -17.5 23.5t-27.5 9.5t-27.5 -9.5t-17.5 -23.5q-3 -9 -3 -17q0 -9 4 -19q11 -18 31 -25z" />
</svg>
