<?xml version="1.0" standalone="no"?>
<!DOCTYPE svg PUBLIC "-//W3C//DTD SVG 1.1//EN" "http://www.w3.org/Graphics/SVG/1.1/DTD/svg11.dtd" >
<svg xmlns="http://www.w3.org/2000/svg" xmlns:xlink="http://www.w3.org/1999/xlink" version="1.1" viewBox="-10 0 1034 1024">
   <path fill="currentColor"
d="M299 68q12 -3 217 -3h205l11 4q36 13 60 41q9 10 105 179.5t100 181.5q7 20 7 40q1 2 1 3q0 19 -8 39q-4 12 -100 181t-105 179q-35 41 -91 46q-13 1 -99 1h-104q-156 -1 -179 -2t-45 -12q-25 -12 -43 -33q-8 -10 -104 -179t-100 -181q-7 -19 -7 -41q-1 -1 -1 -3
q0 -20 8 -38q4 -12 100 -181t104 -180q29 -33 68 -42zM708 164q-6 -3 -196 -3t-196.5 3t-8.5 6q-3 3 -97 168q-71 123 -82.5 145t-11.5 29t11.5 29t82.5 145q94 165 97 168q2 3 9 6t196 3q154 0 175.5 -0.5t28.5 -7.5q3 -2 97 -168q71 -123 83 -145.5t12 -29.5t-12 -29.5
t-82 -144.5q-94 -165 -97 -168q-2 -3 -9 -6zM495 276q8 -1 16 -1l16 1q14 2 27 6q9 4 60.5 32.5t66.5 38.5q30 20 45 56q6 15 7.5 31.5t1.5 71.5t-1.5 71t-7.5 31q-15 36 -45 57q-16 10 -67 38t-60 32q-22 7 -42 7l-42 -7q-10 -4 -62 -32.5t-66 -39.5q-41 -29 -51 -77
q-3 -13 -3 -80t3 -80q10 -49 51 -78q14 -10 66 -38.5t62 -33.5q14 -4 25 -6zM572 400v0q-37 -20 -45 -24t-15 -4t-15 4t-44 24q-46 27 -54 32t-11 12q-4 7 -4 67.5t4 67.5q3 7 11 12.5t54 31.5q37 20 44.5 24.5t14.5 4.5t15.5 -4t44.5 -25q50 -30 55.5 -33t9 -10.5t3.5 -68
t-3.5 -67.5t-9 -10.5t-55.5 -33.5z" />
</svg>
