<?xml version="1.0" standalone="no"?>
<!DOCTYPE svg PUBLIC "-//W3C//DTD SVG 1.1//EN" "http://www.w3.org/Graphics/SVG/1.1/DTD/svg11.dtd" >
<svg xmlns="http://www.w3.org/2000/svg" xmlns:xlink="http://www.w3.org/1999/xlink" version="1.1" viewBox="-10 0 1036 1024">
   <path fill="currentColor"
d="M463 221q-71 10 -129.5 50t-93.5 101l39 13q16 4 25.5 17.5t9.5 29.5q0 20 -14 34.5t-35 14.5q-8 0 -16 -3l-11 -3q-10 -4 -21 -7l-10 -4q-5 28 -5 55q0 126 88 216l7 -10q7 -10 14 -21l8 -10q14 -20 39 -20q20 0 35 14t15 35q0 16 -10 28l-7 11q-8 10 -15 21l-7 10
q67 35 142 35h1q77 0 144 -35l-22 -31q-9 -12 -9 -27q0 -20 14 -34.5t35 -14.5q25 0 39 18l21 31q34 -36 56 -79q27 -59 27 -123v-5q0 -33 -5 -62l-37 12q-7 2 -15 2q-19 0 -33.5 -14.5t-14.5 -34.5q0 -15 9 -28t24 -18l32 -10q-34 -60 -90.5 -100.5t-125.5 -52.5v7v15v7
q0 20 -14.5 34.5t-34.5 14.5t-34.5 -14.5t-14.5 -34.5v-30zM512 6q20 0 34.5 14.5t14.5 34.5v58q28 4 55 12l19 -44q5 -13 17.5 -22t27.5 -9q20 0 34.5 14.5t14.5 34.5q0 10 -4 20l-4 10q-4 10 -9 21l-4 11q28 15 52 33l41 -40q13 -13 33 -13t34.5 14.5t14.5 34.5
q0 19 -14 33l-40 40q24 29 41 61l41 -16q9 -5 20 -5q20 0 34.5 14.5t14.5 34.5q0 15 -8.5 28t-23.5 18l-42 18q7 27 10 54h53q19 1 33 14.5t14 33.5t-14 34.5t-33 14.5h-53q-4 34 -13 67q2 0 10 3q11 5 22 9l11 5q13 5 22.5 17.5t9.5 28.5q0 19 -14.5 33.5t-34.5 14.5
q-10 0 -21 -4l-11 -4q-10 -5 -20 -9l-12 -4q-12 23 -27 44l31 33q13 13 14 32q0 20 -14.5 34.5t-34.5 14.5q-19 0 -33 -13l-31 -30q-29 25 -62 43l17 42q4 9 4 20q0 20 -14.5 34.5t-34.5 14.5q-15 0 -27.5 -8.5t-17.5 -22.5l-18 -42q-28 8 -56 12v9v18v10q0 20 -14.5 34.5
t-34.5 14.5t-34.5 -14.5t-14.5 -34.5v-36q-35 -4 -70 -14l-4 11q-4 11 -9 21l-4 11q-5 13 -18 22.5t-28 9.5q-20 0 -34.5 -15t-14.5 -34q0 -11 5 -21l4 -11q4 -10 9 -21l4 -12q-28 -16 -53 -36l-27 25q-13 13 -33 13t-34.5 -14t-14.5 -35q0 -19 14 -32l27 -28
q-16 -22 -29 -45l-49 19q-8 3 -17 3q-20 0 -34.5 -14t-14.5 -34q0 -32 30 -45l47 -19q-9 -35 -13 -71q0 1 -11.5 1h-23.5l-12 -1q-20 0 -34.5 -14.5t-14.5 -34.5t14.5 -34t34.5 -14h49q4 -29 13 -57l-52 -21q-29 -13 -29 -45q0 -20 14.5 -34.5t34.5 -14.5q8 0 17 3l13 6
l26 10l14 6q17 -33 40 -60l-40 -40q-13 -13 -14 -33q0 -20 14.5 -34.5t34.5 -14.5q19 0 33 13l41 40q19 -14 41 -27l-19 -48q-4 -9 -4 -18q0 -20 14 -34.5t35 -14.5q32 0 45 29l19 47q33 -10 68 -15v-14v-30v-14q0 -20 14.5 -34.5t34.5 -14.5z" />
</svg>
