<?xml version="1.0" standalone="no"?>
<!DOCTYPE svg PUBLIC "-//W3C//DTD SVG 1.1//EN" "http://www.w3.org/Graphics/SVG/1.1/DTD/svg11.dtd" >
<svg xmlns="http://www.w3.org/2000/svg" xmlns:xlink="http://www.w3.org/1999/xlink" version="1.1" viewBox="-10 0 1034 1024">
   <path fill="currentColor"
d="M578 137l-159 343q82 -19 161 -57q122 -56 196 -132q72 -73 72 -131q0 -17 -15 -28q-23 -13 -71 -16q-11 -1 -23 -2q-70 0 -161 23zM293 523l162 -348q-37 14 -69 30q-112 53 -156 111q-12 16 -31 20h-8q-15 0 -27 -11q-16 -11 -20 -30q-1 -4 -1 -7q0 -15 11 -29
q58 -77 190 -140q94 -46 187 -70q111 -30 204 -30q16 0 32 1q72 3 116 30q61 38 61 110q0 98 -99 198q-44 44 -104 84q29 16 47 42q28 38 28 91q0 35 -24 73q-19 31 -55 63q-65 62 -168 126q-104 65 -220.5 111.5t-214.5 58.5h-6q-25 0 -39 -20q-9 -12 -9 -27q0 -10 5 -21z
M612 514q-121 55 -244 74l-153 305q150 -42 304 -137q94 -57 152 -113q27 -26 40 -46q5 -9 8 -16q1 -4 1 -6q0 -23 -9 -36q-8 -10 -24 -17q-23 -9 -53 -9q-11 0 -22 1z" />
</svg>
