<?xml version="1.0" standalone="no"?>
<!DOCTYPE svg PUBLIC "-//W3C//DTD SVG 1.1//EN" "http://www.w3.org/Graphics/SVG/1.1/DTD/svg11.dtd" >
<svg xmlns="http://www.w3.org/2000/svg" xmlns:xlink="http://www.w3.org/1999/xlink" version="1.1" viewBox="-10 0 1038 1024">
   <path fill="currentColor"
d="M394 20.5q14 14.5 14 34t-14 33.5q-38 37 -63 107.5t-33 155.5q-4 38 -4 74q0 40 5 77q2 18 5 33l319 -315q14 -14 34 -14t34 13.5t14 33.5t-15 34l-369 367q-14 14 -34 14h-4q-23 -2 -36 -20q-32 -47 -43 -134q-6 -44 -6 -92q0 -39 4 -80q3 -23 6 -44q-37 50 -61 97
q-45 88 -45 164v9q4 88 77 160q14 14 15 32q0 8 -4 16l-24 77l78 -25q8 -3 16 -3q17 0 32 16q77 76 167 80h15q72 0 156 -43q48 -26 100 -64q-25 4 -50 6q-43 4 -84 4q-45 0 -88 -5q-88 -12 -136 -46q-18 -12 -21 -35v-5q0 -19 14 -33l371 -368q13 -13 34 -13q0 -1 1 -1
q19 0 33 14t14 33.5t-14 33.5l-321 319q17 4 38 6q39 5 81 5q33 0 69 -3q84 -9 155 -35t110 -63q13 -14 33 -15h1q19 0 34 14q14 15 14 34.5t-14 33.5q-3 2 -14 13q-54 54 -90 87.5t-101.5 85t-124.5 81.5q-105 55 -202 56q-10 0 -19 -1q-113 -6 -207 -89l-140 45
q-8 2 -15 2q-19 0 -34 -15q-14 -14 -14 -31q0 -8 3 -17l45 -138q-79 -90 -84 -202v-16q0 -96 54 -204q32 -62 85.5 -132t90 -109.5t89.5 -90.5q14 -14 34 -14t34 14.5z" />
</svg>
