<?xml version="1.0" standalone="no"?>
<!DOCTYPE svg PUBLIC "-//W3C//DTD SVG 1.1//EN" "http://www.w3.org/Graphics/SVG/1.1/DTD/svg11.dtd" >
<svg xmlns="http://www.w3.org/2000/svg" xmlns:xlink="http://www.w3.org/1999/xlink" version="1.1" viewBox="-10 0 1044 1024">
   <path fill="currentColor"
d="M512 96q-113 0 -208.5 56t-151.5 151.5t-56 208.5q0 86 33 164q-6 -45 -6 -90q0 -40 5 -80l1 -1q29 -202 170 -280q38 -20 81 -31q41 -9 74 -9q2 0 3 1q35 0 65 7h1h1q26 7 52 21.5t55 41t52.5 61t38 85.5t14.5 110q0 126 -66 215q12 -5 24 -12q100 -54 122 -209
q5 -27 5 -62q0 -30 -4 -65q-8 -77 -37 -135q-32 -68 -88 -105q-9 -5 -17 -10q-69 -29 -143 -33h-4h-16zM536 0q102 2 180 42q138 59 223 186.5t85 283.5q0 104 -40.5 199t-109 163.5t-163.5 109t-199 40.5t-199 -40.5t-163.5 -109t-109 -163.5t-40.5 -199.5t40.5 -199
t109 -163t163.5 -109t199 -40.5h24zM916 415v22q0 41 -5 82q-29 202 -171 281q-37 20 -80 29q-41 10 -73 10h-3q-35 -1 -67 -8h-1l-1 -1q-25 -6 -51.5 -20.5t-55.5 -41.5t-51.5 -61t-37.5 -85t-15 -110q0 -126 67 -215q-12 5 -25 12q-100 55 -123 210q-5 26 -5 59q0 30 4 67
q8 77 37 136q33 68 89 104q53 35 127 42q20 1 37 1q113 0 209 -55.5t151.5 -151.5t55.5 -209q-1 -49 -12 -97zM520 295q-19 9 -38 25t-38.5 41.5t-31.5 65t-12 85.5q0 47 11.5 86t31 64.5t38.5 41.5t38 26q20 -9 39.5 -25t38.5 -41.5t31 -65t12 -86.5t-12 -86t-30.5 -64.5
t-38 -41.5t-39.5 -25z" />
</svg>
