<?xml version="1.0" standalone="no"?>
<!DOCTYPE svg PUBLIC "-//W3C//DTD SVG 1.1//EN" "http://www.w3.org/Graphics/SVG/1.1/DTD/svg11.dtd" >
<svg xmlns="http://www.w3.org/2000/svg" xmlns:xlink="http://www.w3.org/1999/xlink" version="1.1" viewBox="-10 0 1044 1024">
   <path fill="currentColor"
d="M0 49q0 -20 14.5 -34.5t34.5 -14.5h232q20 0 35 14t15 34.5t-15 35.5t-35 15h-182v825h182q20 0 35 15t15 35.5t-15 35t-35 14.5h-232q-20 0 -34.5 -14.5t-14.5 -34.5v-926zM693 48.5q0 -20.5 15 -34.5t35 -14h232q20 0 34.5 14t14.5 35v926q0 20 -14.5 34.5t-34.5 14.5
h-232q-20 0 -35 -14.5t-15 -35t15 -35.5t35 -15h182v-825h-182q-20 0 -35 -15t-15 -35.5zM264 313.5q0 -20.5 14.5 -35t34.5 -14.5h398q20 0 34.5 14.5t14.5 35t-14.5 35t-34.5 14.5h-150v480q0 20 -14.5 34.5t-34.5 14.5t-34.5 -14.5t-14.5 -34.5v-480h-150
q-20 0 -34.5 -14.5t-14.5 -35z" />
</svg>
