<?xml version="1.0" standalone="no"?>
<!DOCTYPE svg PUBLIC "-//W3C//DTD SVG 1.1//EN" "http://www.w3.org/Graphics/SVG/1.1/DTD/svg11.dtd" >
<svg xmlns="http://www.w3.org/2000/svg" xmlns:xlink="http://www.w3.org/1999/xlink" version="1.1" viewBox="-10 0 1044 1024">
   <path fill="currentColor"
d="M264 355q-69 0 -117 48t-48 117t48.5 117t116.5 48q55 0 98.5 -32.5t59.5 -83.5h-125q-20 0 -34.5 -14.5t-14.5 -34.5t14 -34.5t35 -14.5h203q18 -93 91 -154t169 -61q110 0 187 77t77 187t-77.5 187t-186.5 77q-84 0 -151.5 -47.5t-96.5 -124.5q-29 77 -96.5 124.5
t-151.5 47.5q-110 0 -187 -77t-77 -187t77.5 -187t186.5 -77q78 0 143 42q17 10 21 31q1 6 2 11q0 14 -8 26q-10 16 -31 21l-12 2q-13 0 -26 -8q-41 -26 -89 -26zM759.5 355q-68.5 0 -116.5 48t-48 117t48 117t116.5 48t117 -48t48.5 -117t-48.5 -117t-117 -48z" />
</svg>
