<?xml version="1.0" standalone="no"?>
<!DOCTYPE svg PUBLIC "-//W3C//DTD SVG 1.1//EN" "http://www.w3.org/Graphics/SVG/1.1/DTD/svg11.dtd" >
<svg xmlns="http://www.w3.org/2000/svg" xmlns:xlink="http://www.w3.org/1999/xlink" version="1.1" viewBox="-10 0 1044 1024">
   <path fill="currentColor"
d="M209 299q-55 34 -84 75t-29 83q0 61 59.5 118.5t167.5 88.5q19 5 28 23q6 11 6 22q-1 7 -3 14q-6 18 -22 28q-10 6 -23 7q-7 0 -14 -2q-128 -38 -211.5 -117t-83.5 -182q0 -72 43 -134t116 -106q147 -89 353 -89q158 0 288 55.5t188 150.5q36 59 36 123q0 20 -14 34
t-34 14t-34 -14t-14 -34q0 -37 -22 -73q-42 -69 -149 -115t-245 -46q-179 0 -303 76zM434 401q0 -19 14 -33.5t34 -14.5h254q5 0 9 1q17 4 36 14t37.5 27t29.5 46t11 65q0 61 -32.5 103t-78.5 48l104 166q7 11 7 25q0 5 -1 11q-4 19 -20 30q-11 7 -25 7q-6 1 -12 -1
q-19 -4 -30 -22l-136 -216h-105v191q0 20 -14 34t-34 14t-34 -14t-14 -34v-447zM530 562h206h1q26 -11 26 -56q0 -29 -14 -45q-8 -8 -19 -12h-200v113z" />
</svg>
