<?xml version="1.0" standalone="no"?>
<!DOCTYPE svg PUBLIC "-//W3C//DTD SVG 1.1//EN" "http://www.w3.org/Graphics/SVG/1.1/DTD/svg11.dtd" >
<svg xmlns="http://www.w3.org/2000/svg" xmlns:xlink="http://www.w3.org/1999/xlink" version="1.1" viewBox="-10 0 1044 1024">
   <path fill="currentColor"
d="M672 580.5q0 -13.5 9.5 -22.5t23.5 -9h43v-74h-43q-13 0 -23 -9t-10 -22.5t9.5 -23t23.5 -9.5h43v-44q0 -13 9 -22t22.5 -9t22.5 9t9 22v44h74v-44q0 -13 9 -22t22.5 -9t22.5 9t9 22v44h44q13 0 22.5 9.5t9.5 23t-9 22.5t-23 9h-44v74h44q13 0 22.5 9t9.5 22.5t-9 22.5
t-23 9h-44v44q0 13 -9 22.5t-22.5 9.5t-22.5 -9.5t-9 -22.5v-44h-74v44q0 13 -9 22.5t-22.5 9.5t-22.5 -9.5t-9 -22.5v-44h-43q-13 0 -23 -9t-10 -22.5zM422 6q12 -6 24 -6t24 6l302 176q16 10 22 30q2 7 2 13q-1 12 -8 23q-10 16 -28 22q-6 2 -12 2q-12 0 -25 -7l-278 -162
l-349 204v410l349 203l278 -161q11 -7 25 -8q6 0 12 2q18 6 28 23q6 11 8 23q0 6 -2 13q-5 19 -22 30l-302 176q-12 6 -24 6t-24 -6l-398 -233q-24 -14 -24 -41v-465q0 -27 24 -41zM449 352q-67 0 -114 46.5t-47 113t47 113.5t114 47q68 0 115 -50q13 -14 34 -14q1 0 1 -1h3
q17 0 30 13q15 14 15 34v1q0 18 -14 33q-75 80 -184 80q-106 0 -181 -75t-75 -181.5t74.5 -181t181.5 -74.5q109 0 184 79q13 14 13 34t-14 34q-14 13 -33 14l-1 -1q-20 0 -35 -15q-46 -49 -114 -49zM885 475h-74v74h74v-74z" />
</svg>
