<?xml version="1.0" standalone="no"?>
<!DOCTYPE svg PUBLIC "-//W3C//DTD SVG 1.1//EN" "http://www.w3.org/Graphics/SVG/1.1/DTD/svg11.dtd" >
<svg xmlns="http://www.w3.org/2000/svg" xmlns:xlink="http://www.w3.org/1999/xlink" version="1.1" viewBox="-10 0 1044 1024">
   <path fill="currentColor"
d="M461 195q-77 0 -131 54.5t-54 130.5v410q0 56 -40 97t-97.5 41t-98 -40.5t-40.5 -97.5q0 -20 15 -35t35.5 -15t35 15t14.5 35q0 15 11 26.5t27 11.5t27 -11t11 -27v-410q0 -118 83.5 -201t201.5 -83q96 0 172 57.5t101 147.5q121 4 205.5 90.5t84.5 208.5q0 3 -1 7
q1 3 1 7v264q0 20 -15 35t-35 15h-513q-20 0 -35 -14.5t-15 -35.5v-264q0 -20 14.5 -35t35.5 -15q77 0 130.5 -53.5t53.5 -130t-53.5 -131t-130.5 -54.5zM925 607q-1 -4 -1 -7q0 -77 -52 -134t-128 -65q-7 97 -72.5 169.5t-160.5 89.5v168h157v-111q0 -20 14 -35.5t35 -15.5
t35.5 15t14.5 36v111h157v-214q0 -4 1 -7z" />
</svg>
