<?xml version="1.0" standalone="no"?>
<!DOCTYPE svg PUBLIC "-//W3C//DTD SVG 1.1//EN" "http://www.w3.org/Graphics/SVG/1.1/DTD/svg11.dtd" >
<svg xmlns="http://www.w3.org/2000/svg" xmlns:xlink="http://www.w3.org/1999/xlink" version="1.1" viewBox="-10 0 1034 1024">
   <path fill="currentColor"
d="M91 3q13 -3 26 -3q26 0 48 12q10 5 243 140q232 136 234 137q3 0 92 -50q89 -51 100 -54q20 -7 38 -7l13 1q34 4 59.5 24.5t36.5 53.5l4 13l1 100q0 84 -1.5 102t-9.5 36q-12 25 -33 40q-9 7 -130 81l-121 73v114l-1 114l-4 13q-9 28 -29 47q-32 31 -75 33h-9
q-25 0 -45 -10q-17 -8 -99 -54.5t-89 -51.5q-30 -23 -41 -62q-3 -11 -4 -159v-148l-122 -67q-122 -68 -131 -75q-18 -15 -30 -39q-9 -18 -10.5 -38t-1.5 -114l1 -112l5 -13q10 -31 32.5 -51t52.5 -26zM207 149q-87 -50 -92.5 -50t-10.5 5l-5 4v103q0 102 3 106
q1 2 92.5 53.5t98.5 53.5l2 -7v-104v-112zM498 319q-94 -55 -100 -58l-4 -2v111l1 111l99 55q97 54 98 55v-109v-107zM879 278l-1 -1q-1 -1 -4 -1q-4 0 -11 4q-10 4 -67 36q-17 10 -28 16l-77 43v106v106l6 -5q7 -4 96 -57.5t92 -57t3 -91.5t-2 -91.5t-7 -6.5zM495 650
q-98 -54 -99.5 -54t-1.5 114l1 114l4 4q5 4 88.5 50t86.5 46q11 0 16 -8q2 -5 2 -108v-104z" />
</svg>
