<?xml version="1.0" standalone="no"?>
<!DOCTYPE svg PUBLIC "-//W3C//DTD SVG 1.1//EN" "http://www.w3.org/Graphics/SVG/1.1/DTD/svg11.dtd" >
<svg xmlns="http://www.w3.org/2000/svg" xmlns:xlink="http://www.w3.org/1999/xlink" version="1.1" viewBox="-10 0 1038 1024">
   <path fill="currentColor"
d="M285 49q13 -15 32 -16q3 -1 6 -1q17 0 30 11q59 50 60 109q0 13 -3 27q-11 51 -59 84q-16 14 -21 27q-3 7 -2 13q4 14 21 26q16 11 20 30q1 5 1 9q0 14 -8 27q-11 17 -30 22q-5 1 -10 1q-14 0 -27 -9q-49 -34 -61 -86q-3 -14 -3 -27q0 -58 60 -109l2 -1l2 -2
q17 -11 20 -27q2 -6 -1 -12q-5 -13 -23 -28q-17 -13 -18 -37q1 -18 12 -31zM584 178q11 13 11 30v5q-2 19 -17 33q-17 15 -24 27q-2 7 -1 14q3 14 20 26q16 11 21 31q1 5 1 10q0 13 -8 26q-11 16 -31 20q-5 1 -10 1q-13 0 -26 -8q-50 -33 -61 -86q-3 -13 -3 -27
q0 -58 60 -108q13 -11 30 -11h5q21 2 33 17zM13 486q4 -16 17 -26.5t30 -10.5h740q16 0 29.5 10.5t17.5 26.5q7 28 7 65q0 17 -2 38h118q19 0 33.5 14t14.5 35q0 120 -51 187q-77 102 -262 109q-27 33 -58 63q-13 14 -34 15h-366q-20 0 -35 -15q-125 -126 -177 -286
q-29 -89 -29 -158q0 -36 7 -67zM593 915q27 -28 49 -58q81 -109 107 -229q8 -41 8 -75v-7h-655q0 61 24 136q42 129 140 233h327zM774 829q81 -15 116 -61q24 -32 29 -82h-85q-22 73 -60 143z" />
</svg>
