<?xml version="1.0" standalone="no"?>
<!DOCTYPE svg PUBLIC "-//W3C//DTD SVG 1.1//EN" "http://www.w3.org/Graphics/SVG/1.1/DTD/svg11.dtd" >
<svg xmlns="http://www.w3.org/2000/svg" xmlns:xlink="http://www.w3.org/1999/xlink" version="1.1" viewBox="-10 0 1034 1024">
   <path fill="currentColor"
d="M796 188q-27 -42 -67 -65q-39 -23 -76 -23h-3q-38 1 -70 20l-323 209q-47 31 -56 95q-2 11 -2 23q0 52 33 108q28 42 69 65q38 23 74 23h4q37 -1 71 -20l160 -104q11 -8 25 -8q5 0 11 1q19 5 30 21q8 12 8 26q0 5 -1 10q-4 19 -20 31l-269 174q-12 7 -25 7q-5 0 -11 -1
q-19 -4 -30 -20q-8 -13 -9 -29q-68 -18 -121 -69q-10 25 -11 57q0 11 1 22q5 46 32 88q28 42 69 66q37 23 73 23h3t2 -1q37 0 70 -18l322 -210q48 -31 56 -95q2 -10 2 -22q0 -53 -34 -108q-27 -43 -66 -67q-38 -22 -74 -22h-3h-2q-38 1 -71 19l-160 104q-12 8 -27 9
q-5 0 -10 -1q-19 -4 -30 -21q-8 -12 -8 -26q0 -5 1 -11q4 -19 21 -29l161 -105v-1l108 -69q11 -7 24 -8q6 0 11 1q19 4 31 21q7 12 7 25v4q68 18 122 69q11 -27 11 -58q0 -10 -1 -22q-4 -46 -32 -88zM881 440q30 58 32 121v11q0 56 -24 108q-26 56 -78 90l-322 209
q-57 36 -119 36q-34 0 -70 -12q-100 -30 -161 -122q-46 -73 -47 -156q-1 -3 -1 -5q0 -81 44 -143q-29 -58 -32 -120v-14q0 -55 24 -105q26 -56 78 -90l322 -209q57 -35 120 -35q34 0 70 10q100 30 160 122q47 73 49 157v5q0 81 -45 142z" />
</svg>
