<?xml version="1.0" standalone="no"?>
<!DOCTYPE svg PUBLIC "-//W3C//DTD SVG 1.1//EN" "http://www.w3.org/Graphics/SVG/1.1/DTD/svg11.dtd" >
<svg xmlns="http://www.w3.org/2000/svg" xmlns:xlink="http://www.w3.org/1999/xlink" version="1.1" viewBox="-10 0 1034 1024">
   <path fill="currentColor"
d="M63 184q0 -50 35.5 -85.5t85.5 -35.5h656q50 0 85.5 35.5t35.5 85.5v655q0 50 -35.5 85.5t-85.5 35.5h-656q-50 0 -85.5 -35t-35.5 -86v-655zM184 167q-7 0 -12 5t-5 12v655q0 7 5 12.5t12 5.5h363v-449q0 -22 15 -36.5t36.5 -14.5t36.5 15t15 36v449h190q7 0 12 -5
t5 -13v-655q0 -7 -5 -12t-12 -5h-656z" />
</svg>
