<?xml version="1.0" standalone="no"?>
<!DOCTYPE svg PUBLIC "-//W3C//DTD SVG 1.1//EN" "http://www.w3.org/Graphics/SVG/1.1/DTD/svg11.dtd" >
<svg xmlns="http://www.w3.org/2000/svg" xmlns:xlink="http://www.w3.org/1999/xlink" version="1.1" viewBox="-10 0 1034 1024">
   <path fill="currentColor"
d="M485 6q12 -6 24.5 -6t24.5 6l398 232q23 13 23 39v2v465q0 27 -23 41l-398 233q-11 6 -23.5 6t-25.5 -6l-99 -59q-17 -10 -22 -29q-2 -6 -3 -13q0 -12 8 -23q10 -17 29 -23q6 -2 13 -2q12 0 23 7l76 44l349 -203v-410l-349 -204l-350 204v410l71 41q20 7 39 7q16 0 30 -6
q14 -7 24 -23q12 -23 12 -64v-336q0 -19 14.5 -33.5t33.5 -14.5t33.5 14t14.5 34v336q0 67 -24 111q-25 43 -69 63q-34 15 -70 15t-73 -14q-4 -1 -9 -3l-99 -59q-25 -14 -25 -41v-465q0 -27 25 -41zM527 338q43 -50 120 -50q72 0 114 45q13 13 13 32v1q-1 19 -15 33
q-13 14 -33 14h-1q-20 -1 -34 -15t-44 -14q-33 0 -46 16q-9 10 -9 23.5t9 24.5q13 15 46 16q6 0 13 2q57 8 91 48q32 37 32 85l-1 1q0 48 -31 86q-42 50 -119 50q-72 0 -114 -45q-13 -13 -13 -33q0 -1 1 -1q0 -20 14 -34q13 -13 33 -13h2q19 1 32.5 15.5t44.5 14.5
q32 0 46 -17q9 -10 9 -23t-9 -25q-14 -15 -46 -15q-7 0 -14 -2q-57 -8 -91 -48q-32 -38 -32 -86t32 -86z" />
</svg>
