<?xml version="1.0" standalone="no"?>
<!DOCTYPE svg PUBLIC "-//W3C//DTD SVG 1.1//EN" "http://www.w3.org/Graphics/SVG/1.1/DTD/svg11.dtd" >
<svg xmlns="http://www.w3.org/2000/svg" xmlns:xlink="http://www.w3.org/1999/xlink" version="1.1" viewBox="-10 0 1034 1024">
   <path fill="currentColor"
d="M193 96q-7 0 -12 4.5t-5 10.5v612q0 9 8 14l311 179q4 2 8 2l8 -2l329 -180q8 -4 8 -14v-611q0 -6 -4.5 -10.5t-12.5 -4.5h-638zM80 111q0 -46 32.5 -78.5t80.5 -32.5h638q47 0 80 32.5t33 78.5v611q0 31 -16 57.5t-42 40.5l-329 180q-25 14 -53 15q-1 -1 -2 -1
q-30 0 -55 -15l-311 -179q-27 -15 -41.5 -41t-14.5 -56v-612zM319 272q0 -20 14.5 -34t34.5 -14h296q19 0 33.5 14t14.5 34t-14.5 33.5t-33.5 13.5h-248v110h248q19 0 33.5 14.5t14.5 33.5v185q0 30 -27 43l-147 74q-10 5 -22 5l-21 -5l-149 -74q-27 -13 -27 -43v-37
q0 -20 14.5 -34t34.5 -14t34 14t14 34v8l100 49l99 -49v-108h-247q-19 0 -34 -14t-15 -34v-205z" />
</svg>
