<?xml version="1.0" standalone="no"?>
<!DOCTYPE svg PUBLIC "-//W3C//DTD SVG 1.1//EN" "http://www.w3.org/Graphics/SVG/1.1/DTD/svg11.dtd" >
<svg xmlns="http://www.w3.org/2000/svg" xmlns:xlink="http://www.w3.org/1999/xlink" version="1.1" viewBox="-10 0 1044 1024">
   <path fill="currentColor"
d="M640 138q-27 43 -38 129q-2 14 -11.5 25t-24.5 15q-48 13 -87 48q-47 43 -47 98q0 20 -14.5 35t-33.5 15t-33.5 -14.5t-14.5 -35.5v-238q-4 -20 -17 -36q-12 -17 -31 -17t-32 17t-16 39q-3 17 -16.5 29t-30.5 12h-64q-18 1 -28 7q-3 1 -4 3t-1 7q0 11 3 19q2 4 5 6
q8 6 24 6h96q19 0 33.5 14.5t14.5 34.5v180v0v1v4q1 5 4 12q5 15 16 27q31 36 92 36h208q20 0 34 14.5t14 34.5t-14 34.5t-34 14.5v96l60 146q3 9 3 18.5t-3 18.5q-7 19 -25 27q-9 4 -19 4l-18 -4q-18 -7 -26 -26l-64 -156q-4 -9 -4 -19v-105h-64v260q0 20 -14.5 34.5
t-33.5 14.5t-33.5 -14.5t-14.5 -34.5v-265q-72 -13 -116 -64t-44 -109v-131h-48q-47 0 -80 -25q-48 -35 -48 -104q0 -62 51 -94q32 -19 75 -20h2h29q9 -24 23 -42q42 -56 108 -57h1q65 0 107 57q28 37 35 82q1 4 1 8v58q36 -28 80 -45q14 -84 46 -136q53 -87 147 -87
q77 0 128 65q38 49 57 134q22 90 22 217v11v33q29 13 46 27q66 54 66 178v309q0 20 -14 34.5t-34 14.5t-34 -14.5t-14 -34.5v-309q0 -78 -30 -102q-8 -7 -28 -15q0 -1 -1 -1q-12 -5 -18 -10q-15 -9 -25 -20q-10 -13 -10 -30v-3q1 -28 1 -53q0 -123 -20 -209q-15 -65 -40 -96
q-22 -29 -52 -29q-40 0 -65 41zM736 519q20 0 34 14.5t14 33.5q0 65 23 105q8 14 17 22q4 3 7 5q2 2 3 2q14 5 22 17.5t8 27.5v228q0 20 -14 34.5t-34 14.5t-34 -14.5t-14 -34.5v-201q-35 -28 -57.5 -80t-22.5 -126q0 -19 14 -33.5t34 -14.5z" />
</svg>
