<?xml version="1.0" standalone="no"?>
<!DOCTYPE svg PUBLIC "-//W3C//DTD SVG 1.1//EN" "http://www.w3.org/Graphics/SVG/1.1/DTD/svg11.dtd" >
<svg xmlns="http://www.w3.org/2000/svg" xmlns:xlink="http://www.w3.org/1999/xlink" version="1.1" viewBox="-10 0 1044 1024">
   <path fill="currentColor"
d="M864 384q-66 0 -112.5 -47t-46.5 -114q0 -12 2 -25l-6 -2q-87 -52 -189 -52q-100 0 -184.5 49t-134 133.5t-49.5 185t49.5 185t134 133.5t184.5 49t184.5 -49t134 -133.5t49.5 -184.5q0 -18 -1 -36v-5q0 -16 10 -30q12 -15 33 -17h5q16 0 29 10q15 12 18 33q2 23 2 45
q0 94 -37 180t-99 148t-148 99t-180 37t-180 -37t-148 -99t-99 -148t-37 -180t37 -180t99 -148t148 -99t180 -37q127 0 237 64q1 -1 3 -2q46 -47 112 -47t113 47t47 113.5t-47 113.5t-113 47zM864.5 288q26.5 0 45 -18.5t18.5 -45.5t-18.5 -45.5t-45 -18.5t-45.5 18.5
t-19 45.5t19 45.5t45.5 18.5zM512 736q-93 0 -158.5 -65.5t-65.5 -158.5t65.5 -158.5t158.5 -65.5t158.5 65.5t65.5 158.5t-65.5 158.5t-158.5 65.5zM512 640q53 0 90.5 -37.5t37.5 -90.5t-37.5 -90.5t-90.5 -37.5t-90.5 37.5t-37.5 90.5t37.5 90.5t90.5 37.5z" />
</svg>
