<?xml version="1.0" standalone="no"?>
<!DOCTYPE svg PUBLIC "-//W3C//DTD SVG 1.1//EN" "http://www.w3.org/Graphics/SVG/1.1/DTD/svg11.dtd" >
<svg xmlns="http://www.w3.org/2000/svg" xmlns:xlink="http://www.w3.org/1999/xlink" version="1.1" viewBox="-10 0 1038 1024">
   <path fill="currentColor"
d="M390 649v43v83.5v94.5v37q0 7 4.5 11.5t11.5 4.5h247q7 0 12 -4.5t5 -11.5v-168h-157q-19 0 -33.5 -14.5t-14.5 -33.5t14 -33t34 -14h391h1q6 0 11 -4.5t5 -10.5v-253q0 -7 -5 -12t-12 -5h-156h-2q-6 0 -10.5 4.5t-4.5 12.5v73q0 46 -33 78.5t-80 32.5h-212q-6 0 -11 4.5
t-5 10.5v74zM731 266q7 -1 17 -1h156q47 0 80.5 32.5t33.5 78.5v253q0 46 -33.5 78t-80.5 32h-137v168q0 46 -33.5 78.5t-80.5 32.5h-247q-46 0 -79.5 -32.5t-33.5 -78.5v-149q-8 1 -17 1h-156q-47 0 -80.5 -32.5t-33.5 -78.5v-253q0 -46 33.5 -78.5t80.5 -32.5h137v-167
q0 -46 33.5 -78.5t80.5 -32.5h247q46 0 79.5 32t33.5 79v149zM371 100q-7 0 -12 4.5t-5 12.5v167h157v1q20 0 34 13.5t14 34.5q0 19 -14.5 33t-33.5 14h-391h-1q-6 0 -11 4.5t-5 10.5v42.5v81.5v92v37q0 7 5 11.5t11 4.5h1h156h2q6 0 10.5 -4.5t4.5 -11.5v-74q0 -46 33 -78
t80 -32h212q6 0 11 -5t5 -11v-331q0 -7 -4.5 -12t-11.5 -5h-247z" />
</svg>
