<?xml version="1.0" standalone="no"?>
<!DOCTYPE svg PUBLIC "-//W3C//DTD SVG 1.1//EN" "http://www.w3.org/Graphics/SVG/1.1/DTD/svg11.dtd" >
<svg xmlns="http://www.w3.org/2000/svg" xmlns:xlink="http://www.w3.org/1999/xlink" version="1.1" viewBox="-10 0 1034 1024">
   <path fill="currentColor"
d="M478 8q16 -5 34 -5l34 5l336 108q35 11 57 40.5t22 65.5v226q0 172 -84 299q-99 153 -322 247q-22 9 -43 9l-43 -9q-222 -94 -322 -247q-84 -127 -84 -299v-226q0 -36 22.5 -65.5t56.5 -40.5zM517 100q-2 -1 -5 -1l-5 1l-336 108q-11 3 -11 14v226q0 143 67 247
q84 127 280 211q2 1 5 1l5 -1q196 -84 280 -211q67 -102 67 -243v-4v-226q0 -11 -11 -14zM512 208q14 0 26.5 8t18.5 22l160 400q3 9 3 17v4q0 7 -3 16q-8 18 -27 25q-9 3 -17 3h-1q-3 0 -19 -3q-18 -8 -25 -26l-21 -51h-190l-21 51q-7 18 -25 26q-7 3 -16 3h-4l-17 -3
q-18 -7 -27 -25q-3 -7 -3 -16v-4q0 -9 3 -17l160 -400q6 -14 18.5 -22t26.5 -8zM455 528h114l-57 -143z" />
</svg>
