<?xml version="1.0" standalone="no"?>
<!DOCTYPE svg PUBLIC "-//W3C//DTD SVG 1.1//EN" "http://www.w3.org/Graphics/SVG/1.1/DTD/svg11.dtd" >
<svg xmlns="http://www.w3.org/2000/svg" xmlns:xlink="http://www.w3.org/1999/xlink" version="1.1" viewBox="-10 0 1034 1024">
   <path fill="currentColor"
d="M523.5 0q20.5 0 34.5 14t14 35q0 34 42 97q20 33 75 104q20 28 31 41q36 48 60 84t51 87t41.5 102t14.5 102q0 168 -115 269q-102 89 -248.5 89t-248.5 -89q-115 -99 -115 -266v-3q0 -51 14 -102t41.5 -102t51.5 -87t60 -84q10 -13 30 -41q54 -71 76 -104q41 -63 41 -97
q0 -20 14.5 -34.5t35 -14.5zM523 188q-3 6 -7 13q-24 36 -82 111q-18 26 -27 38q-71 95 -109.5 170t-38.5 146q0 123 81 194q74 65 182 65h2q108 -1 183 -65q80 -70 80 -191v-3q0 -72 -37.5 -146.5t-108.5 -169.5q-10 -12 -29 -38q-58 -76 -82 -111q-4 -7 -7 -13zM391.5 628
q20.5 0 34.5 14t14 35q0 30 27.5 56.5t55.5 26.5q20 0 34.5 14t14.5 34.5t-14 35.5t-35 15q-70 0 -125.5 -56t-55.5 -126q0 -20 14.5 -34.5t35 -14.5z" />
</svg>
