<?xml version="1.0" standalone="no"?>
<!DOCTYPE svg PUBLIC "-//W3C//DTD SVG 1.1//EN" "http://www.w3.org/Graphics/SVG/1.1/DTD/svg11.dtd" >
<svg xmlns="http://www.w3.org/2000/svg" xmlns:xlink="http://www.w3.org/1999/xlink" version="1.1" viewBox="-10 0 1049 1024">
   <path fill="currentColor"
d="M174 145q6 -2 11 -2q22 0 36 20l94 126q10 12 11 27q0 4 -1 7q-3 20 -20 33q-12 9 -26 9q-4 0 -9 -1q-19 -3 -31 -18l-34 -45l-6 28q-4 16 -17.5 26t-29.5 10q-14 0 -25 8q-10 8 -16 25q-10 26 -11 56q0 19 4 40q3 9 7 13q3 3 9 5q17 5 89 5q73 0 117 29t44 75
q0 38 -18 70q-29 53 -87 53q-3 0 -7 -1q-7 -1 -13 -1q-33 0 -55 26q-4 5 -8 11h328q-14 -33 -14 -75q0 -36 11 -61q14 -32 45 -51q49 -32 163 -32q19 0 33 14t14 34t-14 34t-33 14q-86 0 -112 17q-6 3 -8 8q-3 7 -3 23q0 28 10 44q8 12 25 20q26 10 79 11q46 -17 80 -51
q48 -48 48 -107q1 -1 1 -2q0 -57 -35 -90q-23 -23 -52 -28h-333q-19 0 -33.5 -14t-14.5 -34t14 -34.5t34 -14.5h337q3 0 7 1q60 8 108 55q49 48 61 120q5 -35 5 -75q0 -161 -62 -220q-34 -31 -87 -31h-3q-11 0 -23 1q-4 1 -7 1q-15 0 -28 -10q-16 -12 -18 -33l-2 -6
q0 -16 11 -29q12 -15 31 -18q19 -2 38 -3q91 0 154 59q92 86 92 289q0 202 -113 301q-45 39 -99 55q-46 13 -88 13h-16h-1h-5h-591q-22 0 -36 -16q-12 -13 -12 -32v-5q8 -67 49 -115q49 -60 125 -60q11 0 24 2q1 -1 2 -3q2 -5 4 -12q0 -3 1 -7q-1 -1 -2 -1q-17 -12 -62 -12
h-5q-81 0 -112 -10q-32 -9 -52 -30.5t-29 -55.5v-3q-6 -32 -6 -62q0 -47 15 -88q16 -42 47 -66q20 -16 46 -24l23 -94q8 -30 38 -35zM274 629z" />
</svg>
