<?xml version="1.0" standalone="no"?>
<!DOCTYPE svg PUBLIC "-//W3C//DTD SVG 1.1//EN" "http://www.w3.org/Graphics/SVG/1.1/DTD/svg11.dtd" >
<svg xmlns="http://www.w3.org/2000/svg" xmlns:xlink="http://www.w3.org/1999/xlink" version="1.1" viewBox="-10 0 1044 1024">
   <path fill="currentColor"
d="M512 96q-113 0 -209 55.5t-151.5 151.5t-55.5 208.5t55.5 209t151.5 152t209 55.5q128 0 233 -72l-361 -435v299q0 20 -14 34t-34 14t-34 -14t-14 -34v-432q0 -15 8.5 -27.5t22.5 -18.5q9 -3 19 -3q19 0 35 18l478 576q11 13 11 30v5q-2 19 -16 32q-69 59 -154.5 91.5
t-179.5 32.5q-139 0 -257 -68.5t-186.5 -186.5t-68.5 -257t68.5 -257t186.5 -186.5t257 -68.5t257 68.5t186.5 186.5t68.5 257q0 73 -19 141q-9 33 -24 64q-8 18 -27 25q-9 3 -17 3q-9 0 -19 -4q-18 -8 -25 -26q-4 -9 -4 -18t4 -18q11 -26 19 -53q15 -56 16 -114
q0 -113 -55.5 -209t-151.5 -151.5t-209 -55.5zM672 239q20 0 34 14.5t14 34.5v192q0 19 -14 33.5t-34 14.5t-34 -14t-14 -34v-192q0 -19 14 -34t34 -15z" />
</svg>
