<?xml version="1.0" standalone="no"?>
<!DOCTYPE svg PUBLIC "-//W3C//DTD SVG 1.1//EN" "http://www.w3.org/Graphics/SVG/1.1/DTD/svg11.dtd" >
<svg xmlns="http://www.w3.org/2000/svg" xmlns:xlink="http://www.w3.org/1999/xlink" version="1.1" viewBox="-10 0 1044 1024">
   <path fill="currentColor"
d="M753 64h223h2q26 0 40 24q6 11 6 21v3q0 11 -6 24l-465 791q-13 24 -40 24h-1q-28 -1 -41 -24l-465 -791q-6 -11 -6 -23.5t6 -24.5q13 -24 40 -24h2h309q27 0 40 22l115 178l115 -178q13 -22 40 -22h86zM244 160h-112l380 648l380 -648h-112l-268 459z" />
</svg>
