<?xml version="1.0" standalone="no"?>
<!DOCTYPE svg PUBLIC "-//W3C//DTD SVG 1.1//EN" "http://www.w3.org/Graphics/SVG/1.1/DTD/svg11.dtd" >
<svg xmlns="http://www.w3.org/2000/svg" xmlns:xlink="http://www.w3.org/1999/xlink" version="1.1" viewBox="-10 0 1034 1024">
   <path fill="currentColor"
d="M813 16q18 14 18 39v776q0 16 -9.5 29.5t-25.5 17.5l-544 138q-6 2 -13 2q-15 0 -28 -11q-18 -14 -18 -38v-777q0 -16 9.5 -29.5t25.5 -17.5l544 -137q6 -2 13 -2q15 0 28 10zM288 231v149l448 -121v-141zM736 359l-448 121v168l448 -114v-175zM736 635l-448 113v158
l448 -114v-157z" />
</svg>
