<?xml version="1.0" standalone="no"?>
<!DOCTYPE svg PUBLIC "-//W3C//DTD SVG 1.1//EN" "http://www.w3.org/Graphics/SVG/1.1/DTD/svg11.dtd" >
<svg xmlns="http://www.w3.org/2000/svg" xmlns:xlink="http://www.w3.org/1999/xlink" version="1.1" viewBox="-10 0 1044 1024">
   <path fill="currentColor"
d="M310 151q-33 19 -35 91q-1 19 -15 34q-13 12 -32 13h-3q-19 -1 -32.5 -15.5t-13.5 -35.5q5 -125 83 -170q35 -19 75 -19q52 0 115 33q17 10 23 28q2 8 2 16q0 11 -6 21q-9 17 -29 23q-7 3 -13 3q-11 0 -22 -6q-41 -22 -69 -22q-17 0 -28 6zM567 235q13 -11 30 -11h5
q20 2 33 17q55 66 101 146q100 175 118 332q3 29 3 54q0 46 -10 83q-19 69 -73 99q-34 19 -74 20q-35 0 -73 -15q-71 -26 -148 -95q-14 -13 -15 -34v-2q0 -18 13 -32t33 -15h3q17 0 32 12q61 56 114 76q23 8 41 8q14 0 26 -6q19 -11 29 -43q7 -25 7 -56q0 -19 -3 -43
q-15 -138 -107 -296q-41 -72 -91 -131q-10 -13 -10 -30v-5q2 -21 16 -33zM928 525q0 -38 -61 -76q-17 -10 -21 -29q-2 -6 -2 -12q0 -13 8 -25q10 -16 30 -21q6 -2 11 -2q13 0 25 8q106 66 106 157t-106 157q-12 8 -26 8q-5 0 -11 -2q-18 -4 -29 -21q-8 -12 -8 -25
q0 -5 2 -11q4 -19 20 -30q62 -38 62 -76zM311 872q12 6 28 6q28 0 69 -21q11 -6 22 -6q6 0 14 3q18 5 29 22q5 11 5 23q0 7 -2 14q-6 19 -23 29q-62 33 -115 33q-40 0 -74 -20q-79 -45 -83 -171v-3q0 -17 14 -32q12 -12 28 -14q-31 -10 -58 -22q-73 -32 -115 -75
q-50 -52 -50 -113q0 -73 70 -131q57 -48 155 -79q8 -2 16 -2q11 0 21 5q17 9 24 28q2 8 2 15q0 11 -5 22q-9 17 -29 23q-80 26 -123 62q-35 30 -35 57q0 22 23 45q29 30 84 54q127 55 309 56q83 0 160 -13q5 -1 10 -1q13 0 26 10q16 11 19 30q1 4 1 9q0 14 -9 27
q-11 16 -31 20q-85 14 -176 14q-140 0 -253 -31q1 1 3 2q14 14 14 34q3 73 35 91zM255 608q-18 -7 -27 -25q-4 -10 -4 -20q0 -8 3 -17q30 -80 75 -159q101 -176 229 -269q63 -47 122 -63q26 -6 48 -6q41 0 75 19q62 36 78 126q5 28 5 59q0 52 -14 115q-4 19 -22 31
q-11 7 -24 7q-5 0 -11 -1q-19 -4 -30 -20q-7 -12 -7 -27q0 -5 1 -10q11 -53 11 -96q0 -22 -3 -41q-8 -45 -32 -60q-11 -6 -28 -6q-10 0 -23 3q-40 10 -89 46q-112 82 -202 240q-42 73 -70 145q-6 18 -24 27q-10 4 -21 4zM605 516q0 36 -25.5 61.5t-61.5 25.5t-61.5 -25.5
t-25.5 -61.5t25.5 -61.5t61.5 -25.5t61.5 25.5t25.5 61.5z" />
</svg>
