<?xml version="1.0" standalone="no"?>
<!DOCTYPE svg PUBLIC "-//W3C//DTD SVG 1.1//EN" "http://www.w3.org/Graphics/SVG/1.1/DTD/svg11.dtd" >
<svg xmlns="http://www.w3.org/2000/svg" xmlns:xlink="http://www.w3.org/1999/xlink" version="1.1" viewBox="-10 0 1038 1024">
   <path fill="currentColor"
d="M525 8q27 8 33 36l77 345l345 77q28 6 36 32q2 7 2 15q0 17 -14 33l-458 457q-14 14 -33 15q-5 0 -11 -1l-375 -84q-30 -6 -36 -36l-84 -375q-1 -5 -1 -11q0 -18 14 -33l458 -458q14 -14 33 -14q7 0 14 2zM544 413l-60 -265l-379 379l60 265zM231 859l266 59l379 -379
l-266 -59z" />
</svg>
