<?xml version="1.0" standalone="no"?>
<!DOCTYPE svg PUBLIC "-//W3C//DTD SVG 1.1//EN" "http://www.w3.org/Graphics/SVG/1.1/DTD/svg11.dtd" >
<svg xmlns="http://www.w3.org/2000/svg" xmlns:xlink="http://www.w3.org/1999/xlink" version="1.1" viewBox="-10 0 1034 1024">
   <path fill="currentColor"
d="M193 102q-7 0 -12 4.5t-5 12.5v611q0 9 8 13l311 179q4 3 8 3l8 -3l329 -180q8 -4 8 -13v-610q0 -7 -4.5 -12t-12.5 -5h-638zM80 119q0 -47 32.5 -80t80.5 -33h638q47 0 80 32.5t33 80.5v610q0 31 -16 57t-42 41l-329 180q-26 13 -55 14h-2q-29 0 -53 -16l-311 -179
q-27 -14 -41.5 -40t-14.5 -56v-611zM319 278q0 -20 14.5 -34t34.5 -14h296q19 0 33.5 14t14.5 34v390q0 30 -27 43l-147 74q-10 5 -22 5l-21 -5l-149 -74q-27 -13 -27 -43v-36q0 -20 14.5 -34.5t34.5 -14.5t34 14t14 35v7l100 50l99 -50v-108h-166q-20 0 -34.5 -13.5
t-14.5 -33.5t14 -34t35 -14h166v-110h-247q-19 0 -34 -14t-15 -34z" />
</svg>
