<?xml version="1.0" standalone="no"?>
<!DOCTYPE svg PUBLIC "-//W3C//DTD SVG 1.1//EN" "http://www.w3.org/Graphics/SVG/1.1/DTD/svg11.dtd" >
<svg xmlns="http://www.w3.org/2000/svg" xmlns:xlink="http://www.w3.org/1999/xlink" version="1.1" viewBox="-10 0 1034 1024">
   <path fill="currentColor"
d="M53 8q12 -9 28 -8h9q20 4 31 21l108 156l122 -158q11 -17 32 -19h7q17 0 30 10q16 12 18 33v6q0 16 -10 30l-153 197v178q0 20 -14 35t-34 15t-34.5 -14.5t-14.5 -35.5v-179l-137 -198q-9 -12 -9 -27q0 -5 1 -9q4 -21 20 -33zM568.5 0q31.5 0 44.5 28l179 407q4 10 4 19
q0 10 -3 19q-7 18 -26 27q-10 4 -19 4q-10 0 -19 -3q-18 -7 -27 -26l-44 -101h-180l-44 101q-8 18 -26 26q-9 3 -19 3t-19 -4q-18 -8 -26 -27q-3 -9 -3 -19t4 -19l178 -407q14 -28 45.5 -28zM521 276h94l-47 -106zM614 555q15 4 25 17t10 29v374q0 20 -13.5 34.5t-34 14.5
t-35 -14.5t-14.5 -34.5v-208l-89 137q-13 22 -39 23h-2q-24 0 -39 -20l-108 -143v211q0 20 -14 34.5t-34 14.5t-34.5 -14.5t-14.5 -34.5v-358q0 -15 9.5 -28t23.5 -18q8 -3 16 -3q7 1 15 3q15 4 24 18l153 203l141 -218q8 -13 24 -19q8 -3 16 -3q0 1 14 3zM763 553
q20 0 34.5 14t14.5 34v326h130q20 0 34.5 14t14.5 34t-14 34.5t-35 14.5h-178q-20 0 -34.5 -14.5t-14.5 -34.5v-374q0 -19 14 -33.5t34 -14.5z" />
</svg>
