<?xml version="1.0" standalone="no"?>
<!DOCTYPE svg PUBLIC "-//W3C//DTD SVG 1.1//EN" "http://www.w3.org/Graphics/SVG/1.1/DTD/svg11.dtd" >
<svg xmlns="http://www.w3.org/2000/svg" xmlns:xlink="http://www.w3.org/1999/xlink" version="1.1" viewBox="-10 0 1034 1024">
   <path fill="currentColor"
d="M525 131q-4 -8 -13 -8t-13 8l-357 585q-3 4 -3 8q0 3 1 5q2 6 10 9l355 166q4 1 7 1l7 -1l355 -166q7 -3 10 -9q1 -2 1 -5q0 -4 -3 -8zM417 81q22 -36 58 -48q18 -6 37 -7l37 7q37 12 58 48l357 584q17 28 17 58q0 16 -6 34q-14 48 -60 68l-356 166q-24 10 -47 10
l-47 -10l-356 -166q-45 -20 -60 -68q-5 -17 -6 -34q0 -30 17 -58z" />
</svg>
