<?xml version="1.0" standalone="no"?>
<!DOCTYPE svg PUBLIC "-//W3C//DTD SVG 1.1//EN" "http://www.w3.org/Graphics/SVG/1.1/DTD/svg11.dtd" >
<svg xmlns="http://www.w3.org/2000/svg" xmlns:xlink="http://www.w3.org/1999/xlink" version="1.1" viewBox="-10 0 1034 1024">
   <path fill="currentColor"
d="M494 18q4 -1 20 -1q26 1 36 14q7 8 8.5 25.5t1.5 104.5q0 90 -1.5 105.5t-10.5 25.5q-12 12 -36 12t-36 -12q-9 -9 -10.5 -25t-1.5 -106q0 -108 3 -116q7 -20 27 -27zM176 145q8 -4 16.5 -4t15.5 4q8 3 85 80t81 85t4 17q0 16 -17 33.5t-33 17.5q-9 0 -18 -4
q-8 -4 -85 -81t-80 -85q-4 -8 -4 -16q0 -9 5 -18q3 -7 13 -16.5t17 -12.5zM822 146q9 -4 18 -4t17 4q19 9 29 29q5 8 5 17t-5 18q-4 8 -80 83.5t-84 80.5q-9 5 -18.5 5t-17.5 -5q-7 -3 -16.5 -13t-12.5 -17q-4 -8 -4 -16.5t4.5 -16.5t80 -84.5t84.5 -80.5zM45 467
q7 -2 118 -2h111l9 5q9 5 12 9q6 9 8 25q1 5 1 10q0 9 -3 18q-6 18 -25 25q-9 3 -116 3t-115 -3q-29 -8 -29 -45t29 -45zM752 466q5 -1 112 -1q14 -1 28 -1q80 0 87 3q29 8 29 45t-29 45q-8 3 -115 3t-116 -3q-18 -6 -25 -25q-3 -9 -3 -18q0 -5 1 -10q2 -15 8 -25
q8 -10 23 -13zM310 658q9 -4 18 -4t17 4q19 9 29 29q5 8 5 17t-5 18q-4 8 -80 83.5t-84 80.5q-9 5 -18.5 5t-17.5 -5q-7 -3 -16.5 -13t-12.5 -17q-4 -8 -4 -16.5t4.5 -16.5t80 -84.5t84.5 -80.5zM688 657q8 -4 16.5 -4t15.5 4q8 3 85 80t81 85t4 17q0 16 -17 33.5t-33 17.5
q-9 0 -18 -4q-8 -4 -85 -81t-80 -85q-4 -8 -4 -16q0 -9 5 -18q3 -7 13 -16.5t17 -12.5zM496 722v0q3 -1 11 -1h9q14 1 23 5q13 7 18 22q3 8 3 114.5t-3 116.5q-8 29 -44 29l-1 -1q-37 0 -45 -28q-3 -8 -3 -116q0 -86 1.5 -102.5t7.5 -25.5q8 -9 23 -13z" />
</svg>
