<?xml version="1.0" standalone="no"?>
<!DOCTYPE svg PUBLIC "-//W3C//DTD SVG 1.1//EN" "http://www.w3.org/Graphics/SVG/1.1/DTD/svg11.dtd" >
<svg xmlns="http://www.w3.org/2000/svg" xmlns:xlink="http://www.w3.org/1999/xlink" version="1.1" viewBox="-10 0 1043 1024">
   <path fill="currentColor"
d="M479 546q-293 -292 -293.5 -292t-8.5 11q-51 70 -71 153q-10 48 -10 94q0 70 23 135q16 47 41 86q49 78 125.5 127.5t170.5 63.5q20 3 56 3q4 1 8 1q30 0 48 -4q68 -10 127 -39q42 -20 71 -43l4 -5zM566 100q-29 -4 -56 -4q-94 0 -181 43q-46 23 -71 43l-4 4l292 292
l292 292l4 -4q20 -25 43 -71q42 -86 42 -183q0 -96 -41 -182q-30 -61 -80 -111.5t-111.5 -80.5t-128.5 -38zM479 1q4 -1 16 -1t30 1q37 1 50 3q160 20 278.5 125.5t156.5 261.5q13 55 13 120.5t-13 121.5q-25 98 -83.5 179t-144.5 134.5t-189 71.5q-42 6 -83 6
q-60 0 -119 -15q-169 -42 -277 -175t-113 -306v-20q0 -191 131 -339q61 -69 147 -113t176 -53q19 -1 24 -2z" />
</svg>
