<?xml version="1.0" standalone="no"?>
<!DOCTYPE svg PUBLIC "-//W3C//DTD SVG 1.1//EN" "http://www.w3.org/Graphics/SVG/1.1/DTD/svg11.dtd" >
<svg xmlns="http://www.w3.org/2000/svg" xmlns:xlink="http://www.w3.org/1999/xlink" version="1.1" viewBox="-10 0 1034 1024">
   <path fill="currentColor"
d="M238 116q7 -3 146 -3q15 -1 29 -1q111 0 117 4q27 12 29 40v7q0 27 -25 40l-10 4h-140h-140l-10 -4q-25 -13 -25 -39v-2v-6q2 -28 29 -40zM687 114q7 -2 32.5 -2t34.5 4q16 5 25 23q5 10 5 21q0 9 -4 19q-9 20 -29 27q-9 2 -31 2t-31 -2q-11 -4 -21 -15.5t-12 -24.5v-5
q0 -13 8 -26q9 -15 23 -21zM238 340q7 -4 66 -4h58l12 5q26 13 26 41v1q-1 30 -26 44l-12 5h-58q-59 0 -67 -4q-29 -13 -29 -43l1 -2q0 -31 29 -43zM530 338q6 -2 14 -2t16 3q16 5 26 23q5 8 5 21.5t-5 21.5q-13 26 -39 26h-6q-19 -1 -31.5 -14.5t-12.5 -32.5q0 -16 9.5 -29
t23.5 -17zM719 339q7 -2 83.5 -2t82.5 4q27 14 27 41v1q-1 29 -27 44q-7 4 -82 4h-42q-26 -1 -34 -1q-12 -2 -22 -9q-15 -14 -16 -37q0 -12 4 -22q10 -17 26 -23zM242 562q6 -3 34 -3h11q39 0 48 3q19 6 29 27q5 9 5 18q0 7 -3 15q-6 18 -23 28l-7 4l-45 1q-38 0 -48 -1.5
t-19 -10.5q-14 -13 -15 -31v-6q0 -13 7 -25q10 -13 26 -19zM498 562q6 -2 125 -2q101 0 117.5 1t27.5 11q15 14 15 35v3q-1 19 -15 33q-9 9 -25.5 10.5t-119.5 1.5q-122 0 -129 -3q-27 -12 -29 -40v-6q0 -13 7 -25q10 -13 26 -19zM244 785v0q5 -1 46 -1h50h88l7 4
q12 6 20.5 18.5t8.5 25.5t-8.5 25t-20.5 18l-7 4h-92q-91 0 -97 -3q-22 -9 -28 -28q-2 -6 -2 -13v-4q0 -11 4 -21q8 -19 31 -25z" />
</svg>
