<?xml version="1.0" standalone="no"?>
<!DOCTYPE svg PUBLIC "-//W3C//DTD SVG 1.1//EN" "http://www.w3.org/Graphics/SVG/1.1/DTD/svg11.dtd" >
<svg xmlns="http://www.w3.org/2000/svg" xmlns:xlink="http://www.w3.org/1999/xlink" version="1.1" viewBox="-10 0 1044 1024">
   <path fill="currentColor"
d="M0 111q0 -46 33 -78.5t79 -32.5h800q46 0 79 32.5t33 78.5v801q0 46 -33 79t-79 33h-800q-46 0 -79 -33t-33 -79v-801zM112 96q-6 0 -11 4.5t-5 10.5v801q0 6 4.5 11t11.5 5h800q6 0 11 -5t5 -11v-801q0 -6 -4.5 -10.5t-11.5 -4.5h-800zM752 244q18 6 27 24q5 10 5 21
q0 8 -3 15l-152 421q-12 35 -41.5 54.5t-61.5 20.5h-3q-30 -1 -58 -18q-31 -18 -44 -52l-177 -424q-4 -9 -4 -18.5t4 -18.5q7 -18 25 -25q9 -4 19 -5l18 5q18 7 27 25l176 424q4 10 15.5 10t14.5 -10l152 -422q5 -18 24 -26q10 -4 20 -5q9 1 17 4z" />
</svg>
