<?xml version="1.0" standalone="no"?>
<!DOCTYPE svg PUBLIC "-//W3C//DTD SVG 1.1//EN" "http://www.w3.org/Graphics/SVG/1.1/DTD/svg11.dtd" >
<svg xmlns="http://www.w3.org/2000/svg" xmlns:xlink="http://www.w3.org/1999/xlink" version="1.1" viewBox="-10 0 1044 1024">
   <path fill="currentColor"
d="M0 111q0 -46 33 -78.5t79 -32.5h800q46 0 79 32.5t33 78.5v801q0 46 -33 79t-79 33h-800q-46 0 -79 -33t-33 -79v-801zM112 96q-6 0 -11 4.5t-5 10.5v801q0 6 4.5 11t11.5 5h800q6 0 11 -5t5 -11v-801q0 -6 -4.5 -10.5t-11.5 -4.5h-800zM326 268q66 -60 186.5 -60
t185.5 60q53 50 54 116q0 19 -14 33.5t-34 14.5t-34 -14.5t-14 -33.5q0 -24 -23 -45q-38 -35 -121 -35t-121 35q-24 22 -24 44q0 1 1 1q0 23 23 45q38 35 121 35q121 0 186 60q53 50 54 115v2q0 64 -54 115q-66 60 -186.5 60t-185.5 -60q-53 -50 -54 -116q0 -19 14 -33.5
t34 -14.5t34 14t14 34q0 24 23 45q38 35 121 35t121 -35q24 -22 24 -45l-1 -1q0 -23 -23 -44q-38 -35 -121 -35q-121 0 -186 -60q-53 -50 -53 -116t53 -116z" />
</svg>
