<?xml version="1.0" standalone="no"?>
<!DOCTYPE svg PUBLIC "-//W3C//DTD SVG 1.1//EN" "http://www.w3.org/Graphics/SVG/1.1/DTD/svg11.dtd" >
<svg xmlns="http://www.w3.org/2000/svg" xmlns:xlink="http://www.w3.org/1999/xlink" version="1.1" viewBox="-10 0 1044 1024">
   <path fill="currentColor"
d="M0 111q0 -46 33 -78.5t79 -32.5h800q46 0 79 32.5t33 78.5v801q0 46 -33 79t-79 33h-800q-46 0 -79 -33t-33 -79v-801zM112 96q-6 0 -11 4.5t-5 10.5v801q0 6 4.5 11t11.5 5h800q6 0 11 -5t5 -11v-801q0 -6 -4.5 -10.5t-11.5 -4.5h-800zM528 304q-87 0 -148 61t-61 147
t61 147t148 61q49 0 92 -21.5t72 -58.5q12 -15 32 -18q3 0 6 -1q15 0 30 11q16 12 18 31v6q0 15 -10 30q-43 54 -105.5 85.5t-134.5 31.5q-126 0 -215 -89t-89 -215t89 -215t215 -89q72 0 134.5 31t105.5 85q10 13 10 30v6q-2 19 -18 32q-13 10 -30 10q-3 -1 -6 -1
q-19 -2 -32 -17q-30 -37 -72.5 -58.5t-91.5 -21.5z" />
</svg>
