<?xml version="1.0" standalone="no"?>
<!DOCTYPE svg PUBLIC "-//W3C//DTD SVG 1.1//EN" "http://www.w3.org/Graphics/SVG/1.1/DTD/svg11.dtd" >
<svg xmlns="http://www.w3.org/2000/svg" xmlns:xlink="http://www.w3.org/1999/xlink" version="1.1" viewBox="-11 0 1045 1024">
   <path fill="currentColor"
d="M741 17q6 -2 22 -2q5 1 9 1q23 0 30.5 3.5t107.5 70t105 74.5l1 2q6 8 7 46t1 260v56v75q0 210 -1 246.5t-9 43.5l-2 2q-8 8 -113 60l-104 52h-43h-43l-10 -5q-10 -5 -177 -156q-171 -155 -175 -159l-7 -6l-84 63q-85 63 -91 67q-7 4 -20.5 4t-21.5 -4t-60.5 -56.5
t-56.5 -60.5q-6 -10 -6 -21v-6q2 -14 10 -24q6 -7 75 -67q71 -58 71 -60v-1q0 -2 -72 -66q-72 -65 -76 -70q-9 -12 -9 -26q0 -11 7 -23q4 -8 56.5 -60.5t60.5 -56.5q7 -4 19 -4h3q10 0 17 3q6 2 95 68.5t91 66.5t189 -161.5t191.5 -164t12.5 -4.5zM850 165l-80 -52l-1 -1
q-1 0 -120 104q-77 67 -139 121q-4 3 -31.5 26.5t-45.5 38.5q-55 48 -62 51q-7 4 -17 6h-2q-12 0 -26 -9q-16 -10 -87 -63q-88 -67 -90 -67t-16 16l-15 14l73 68q74 67 79 74.5t6 20.5q0 12 -4 21.5t-13 18.5q-17 15 -139 121q0 2 6 8q7 8 14.5 14.5t9 6.5t84.5 -63
q84 -62 89 -65q9 -5 18 -5q11 0 24 6q6 3 189 169l184 166h18h18l77 -39l78 -38v-308v-309zM745 272h6q8 0 20 4q15 7 24 23l5 9v204v204l-5 9q-8 16 -25 22q-9 3 -18 4q-8 0 -17 -3q-7 -3 -145 -102q-4 -2 -10 -7q-102 -74 -120.5 -89t-21.5 -28v-1q-1 -4 -1 -8.5t1 -9.5
v-1q3 -14 21 -28.5t123 -89.5q5 -4 8 -6q138 -99 144.5 -102t10.5 -4zM702 560v-49v-47v-49l-67 48q-67 48 -67 49t67 49l67 48v-49z" />
</svg>
